<svg version="1.1" viewBox="0.0 0.0 600.0 371.0" fill="none" stroke="none" stroke-linecap="square" stroke-miterlimit="10" width="600" height="371" xmlns:xlink="http://www.w3.org/1999/xlink" xmlns="http://www.w3.org/2000/svg"><path fill="#ffffff" d="M0 0L600.0 0L600.0 371.0L0 371.0L0 0Z" fill-rule="nonzero"/><path stroke="#333333" stroke-width="1.0" stroke-linecap="butt" d="M77.5 332.5L581.5 332.5" fill-rule="nonzero"/><path stroke="#cccccc" stroke-width="1.0" stroke-linecap="butt" d="M77.5 283.5L581.5 283.5" fill-rule="nonzero"/><path stroke="#cccccc" stroke-width="1.0" stroke-linecap="butt" d="M77.5 234.5L581.5 234.5" fill-rule="nonzero"/><path stroke="#cccccc" stroke-width="1.0" stroke-linecap="butt" d="M77.5 185.5L581.5 185.5" fill-rule="nonzero"/><path stroke="#cccccc" stroke-width="1.0" stroke-linecap="butt" d="M77.5 137.5L581.5 137.5" fill-rule="nonzero"/><path stroke="#cccccc" stroke-width="1.0" stroke-linecap="butt" d="M77.5 88.5L581.5 88.5" fill-rule="nonzero"/><path stroke="#000000" stroke-width="1.0" stroke-linecap="butt" d="M77.5 332.5L77.5 88.5" fill-rule="nonzero"/><clipPath id="id_0"><path d="M77.55 88.28333L581.45 88.28333L581.45 332.45L77.55 332.45L77.55 88.28333Z" clip-rule="nonzero"/></clipPath><path stroke="#000000" stroke-width="2.0" stroke-linecap="butt" stroke-opacity="0.0" clip-path="url(#id_0)" d="M178.0 332.0L131.0 332.0L131.0 262.0C131.0 260.89542 131.89543 260.0 133.0 260.0L176.0 260.0C177.10457 260.0 178.0 260.89542 178.0 262.0Z" fill-rule="nonzero"/><path fill="#b6d7a8" clip-path="url(#id_0)" d="M178.0 332.0L131.0 332.0L131.0 262.0C131.0 260.89542 131.89543 260.0 133.0 260.0L176.0 260.0C177.10457 260.0 178.0 260.89542 178.0 262.0Z" fill-rule="nonzero"/><path stroke="#000000" stroke-width="2.0" stroke-linecap="butt" stroke-opacity="0.0" clip-path="url(#id_0)" d="M329.0 332.0L282.0 332.0L282.0 288.0C282.0 286.89542 282.89542 286.0 284.0 286.0L327.0 286.0C328.10458 286.0 329.0 286.89542 329.0 288.0Z" fill-rule="nonzero"/><path fill="#b6d7a8" clip-path="url(#id_0)" d="M329.0 332.0L282.0 332.0L282.0 288.0C282.0 286.89542 282.89542 286.0 284.0 286.0L327.0 286.0C328.10458 286.0 329.0 286.89542 329.0 288.0Z" fill-rule="nonzero"/><path stroke="#000000" stroke-width="2.0" stroke-linecap="butt" stroke-opacity="0.0" clip-path="url(#id_0)" d="M479.0 332.0L432.0 332.0L432.0 282.0C432.0 280.89542 432.89542 280.0 434.0 280.0L477.0 280.0C478.10458 280.0 479.0 280.89542 479.0 282.0Z" fill-rule="nonzero"/><path fill="#b6d7a8" clip-path="url(#id_0)" d="M479.0 332.0L432.0 332.0L432.0 282.0C432.0 280.89542 432.89542 280.0 434.0 280.0L477.0 280.0C478.10458 280.0 479.0 280.89542 479.0 282.0Z" fill-rule="nonzero"/><path stroke="#000000" stroke-width="2.0" stroke-linecap="butt" stroke-opacity="0.0" clip-path="url(#id_0)" d="M227.0 332.0L180.0 332.0L180.0 99.0C180.0 97.89543 180.89543 97.0 182.0 97.0L225.0 97.0C226.10457 97.0 227.0 97.89543 227.0 99.0Z" fill-rule="nonzero"/><path fill="#38761d" clip-path="url(#id_0)" d="M227.0 332.0L180.0 332.0L180.0 99.0C180.0 97.89543 180.89543 97.0 182.0 97.0L225.0 97.0C226.10457 97.0 227.0 97.89543 227.0 99.0Z" fill-rule="nonzero"/><path stroke="#000000" stroke-width="2.0" stroke-linecap="butt" stroke-opacity="0.0" clip-path="url(#id_0)" d="M378.0 332.0L331.0 332.0L331.0 241.0C331.0 239.89543 331.89542 239.0 333.0 239.0L376.0 239.0C377.10458 239.0 378.0 239.89543 378.0 241.0Z" fill-rule="nonzero"/><path fill="#38761d" clip-path="url(#id_0)" d="M378.0 332.0L331.0 332.0L331.0 241.0C331.0 239.89543 331.89542 239.0 333.0 239.0L376.0 239.0C377.10458 239.0 378.0 239.89543 378.0 241.0Z" fill-rule="nonzero"/><path stroke="#000000" stroke-width="2.0" stroke-linecap="butt" stroke-opacity="0.0" clip-path="url(#id_0)" d="M528.0 332.0L481.0 332.0L481.0 225.0C481.0 223.89543 481.89542 223.0 483.0 223.0L526.0 223.0C527.10455 223.0 528.0 223.89543 528.0 225.0Z" fill-rule="nonzero"/><path fill="#38761d" clip-path="url(#id_0)" d="M528.0 332.0L481.0 332.0L481.0 225.0C481.0 223.89543 481.89542 223.0 483.0 223.0L526.0 223.0C527.10455 223.0 528.0 223.89543 528.0 225.0Z" fill-rule="nonzero"/><path stroke="#b6d7a8" stroke-width="3.0" stroke-linejoin="round" stroke-linecap="round" d="M146.76562 276.58136L145.6875 276.58136L145.6875 269.3626L143.5 270.1595L143.5 269.1751L146.60938 268.00323L146.76562 268.00323L146.76562 276.58136ZM150.34375 276.01886Q150.34375 275.7376 150.5 275.5501Q150.67188 275.3626 151.0 275.3626Q151.34375 275.3626 151.51562 275.5501Q151.6875 275.7376 151.6875 276.01886Q151.6875 276.2845 151.51562 276.472Q151.34375 276.64386 151.0 276.64386Q150.67188 276.64386 150.5 276.472Q150.34375 276.2845 150.34375 276.01886ZM157.78125 273.722L158.96875 273.722L158.96875 274.597L157.78125 274.597L157.78125 276.58136L156.70312 276.58136L156.70312 274.597L152.8125 274.597L152.8125 273.95636L156.625 268.0501L157.78125 268.0501L157.78125 273.722ZM154.04688 273.722L156.70312 273.722L156.70312 269.5345L156.5625 269.76886L154.04688 273.722ZM164.35938 272.83136Q164.03125 273.2376 163.54688 273.4876Q163.07812 273.722 162.51562 273.722Q161.78125 273.722 161.23438 273.3626Q160.6875 273.00323 160.39062 272.347Q160.09375 271.6751 160.09375 270.87823Q160.09375 270.0345 160.40625 269.347Q160.73438 268.6595 161.32812 268.3001Q161.9375 267.9251 162.73438 267.9251Q164.0 267.9251 164.71875 268.87823Q165.45312 269.83136 165.45312 271.45636L165.45312 271.76886Q165.45312 274.26886 164.46875 275.4095Q163.48438 276.5501 161.5 276.58136L161.28125 276.58136L161.28125 275.6751L161.51562 275.6751Q162.85938 275.64386 163.57812 274.972Q164.29688 274.3001 164.35938 272.83136ZM162.6875 272.83136Q163.23438 272.83136 163.6875 272.50323Q164.15625 272.1595 164.375 271.6751L164.375 271.2376Q164.375 270.1751 163.90625 269.50323Q163.4375 268.83136 162.73438 268.83136Q162.01562 268.83136 161.57812 269.37823Q161.15625 269.9251 161.15625 270.83136Q161.15625 271.70636 161.5625 272.26886Q161.98438 272.83136 162.6875 272.83136Z" fill-rule="nonzero"/><path fill="#000000" d="M146.76562 276.58136L145.6875 276.58136L145.6875 269.3626L143.5 270.1595L143.5 269.1751L146.60938 268.00323L146.76562 268.00323L146.76562 276.58136ZM150.34375 276.01886Q150.34375 275.7376 150.5 275.5501Q150.67188 275.3626 151.0 275.3626Q151.34375 275.3626 151.51562 275.5501Q151.6875 275.7376 151.6875 276.01886Q151.6875 276.2845 151.51562 276.472Q151.34375 276.64386 151.0 276.64386Q150.67188 276.64386 150.5 276.472Q150.34375 276.2845 150.34375 276.01886ZM157.78125 273.722L158.96875 273.722L158.96875 274.597L157.78125 274.597L157.78125 276.58136L156.70312 276.58136L156.70312 274.597L152.8125 274.597L152.8125 273.95636L156.625 268.0501L157.78125 268.0501L157.78125 273.722ZM154.04688 273.722L156.70312 273.722L156.70312 269.5345L156.5625 269.76886L154.04688 273.722ZM164.35938 272.83136Q164.03125 273.2376 163.54688 273.4876Q163.07812 273.722 162.51562 273.722Q161.78125 273.722 161.23438 273.3626Q160.6875 273.00323 160.39062 272.347Q160.09375 271.6751 160.09375 270.87823Q160.09375 270.0345 160.40625 269.347Q160.73438 268.6595 161.32812 268.3001Q161.9375 267.9251 162.73438 267.9251Q164.0 267.9251 164.71875 268.87823Q165.45312 269.83136 165.45312 271.45636L165.45312 271.76886Q165.45312 274.26886 164.46875 275.4095Q163.48438 276.5501 161.5 276.58136L161.28125 276.58136L161.28125 275.6751L161.51562 275.6751Q162.85938 275.64386 163.57812 274.972Q164.29688 274.3001 164.35938 272.83136ZM162.6875 272.83136Q163.23438 272.83136 163.6875 272.50323Q164.15625 272.1595 164.375 271.6751L164.375 271.2376Q164.375 270.1751 163.90625 269.50323Q163.4375 268.83136 162.73438 268.83136Q162.01562 268.83136 161.57812 269.37823Q161.15625 269.9251 161.15625 270.83136Q161.15625 271.70636 161.5625 272.26886Q161.98438 272.83136 162.6875 272.83136Z" fill-rule="nonzero"/><path stroke="#b6d7a8" stroke-width="3.0" stroke-linejoin="round" stroke-linecap="round" d="M299.5625 298.92358Q299.5625 300.82983 298.90625 301.76733Q298.26562 302.6892 296.875 302.6892Q295.51562 302.6892 294.85938 301.78296Q294.20312 300.8767 294.17188 299.0642L294.17188 297.6267Q294.17188 295.73608 294.8125 294.82983Q295.46875 293.90796 296.85938 293.90796Q298.23438 293.90796 298.89062 294.79858Q299.54688 295.67358 299.5625 297.51733L299.5625 298.92358ZM298.46875 297.4392Q298.46875 296.0642 298.07812 295.4392Q297.70312 294.79858 296.85938 294.79858Q296.03125 294.79858 295.64062 295.4392Q295.26562 296.0642 295.26562 297.36108L295.26562 299.09546Q295.26562 300.47046 295.65625 301.14233Q296.0625 301.79858 296.875 301.79858Q297.67188 301.79858 298.0625 301.17358Q298.45312 300.54858 298.46875 299.22046L298.46875 297.4392ZM301.34375 302.0017Q301.34375 301.72046 301.5 301.53296Q301.67188 301.34546 302.0 301.34546Q302.34375 301.34546 302.51562 301.53296Q302.6875 301.72046 302.6875 302.0017Q302.6875 302.26733 302.51562 302.45483Q302.34375 302.6267 302.0 302.6267Q301.67188 302.6267 301.5 302.45483Q301.34375 302.26733 301.34375 302.0017ZM308.35938 298.8142Q308.03125 299.22046 307.54688 299.47046Q307.07812 299.70483 306.51562 299.70483Q305.78125 299.70483 305.23438 299.34546Q304.6875 298.98608 304.39062 298.32983Q304.09375 297.65796 304.09375 296.86108Q304.09375 296.01733 304.40625 295.32983Q304.73438 294.64233 305.32812 294.28296Q305.9375 293.90796 306.73438 293.90796Q308.0 293.90796 308.71875 294.86108Q309.45312 295.8142 309.45312 297.4392L309.45312 297.7517Q309.45312 300.2517 308.46875 301.39233Q307.48438 302.53296 305.5 302.5642L305.28125 302.5642L305.28125 301.65796L305.51562 301.65796Q306.85938 301.6267 307.57812 300.95483Q308.29688 300.28296 308.35938 298.8142ZM306.6875 298.8142Q307.23438 298.8142 307.6875 298.48608Q308.15625 298.14233 308.375 297.65796L308.375 297.22046Q308.375 296.15796 307.90625 295.48608Q307.4375 294.8142 306.73438 294.8142Q306.01562 294.8142 305.57812 295.36108Q305.15625 295.90796 305.15625 296.8142Q305.15625 297.6892 305.5625 298.2517Q305.98438 298.8142 306.6875 298.8142ZM315.46875 294.03296L315.46875 294.9392L315.26562 294.9392Q314.0 294.97046 313.25 295.70483Q312.5 296.42358 312.375 297.73608Q313.0625 296.97046 314.21875 296.97046Q315.32812 296.97046 316.0 297.7517Q316.67188 298.53296 316.67188 299.78296Q316.67188 301.09546 315.95312 301.89233Q315.23438 302.6892 314.01562 302.6892Q312.79688 302.6892 312.03125 301.7517Q311.28125 300.79858 311.28125 299.3142L311.28125 298.90796Q311.28125 296.54858 312.28125 295.29858Q313.28125 294.04858 315.26562 294.03296L315.46875 294.03296ZM314.04688 297.8767Q313.48438 297.8767 313.01562 298.20483Q312.54688 298.53296 312.35938 299.04858L312.35938 299.4392Q312.35938 300.5017 312.82812 301.14233Q313.3125 301.78296 314.01562 301.78296Q314.75 301.78296 315.17188 301.2517Q315.59375 300.70483 315.59375 299.82983Q315.59375 298.95483 315.17188 298.42358Q314.75 297.8767 314.04688 297.8767Z" fill-rule="nonzero"/><path fill="#000000" d="M299.5625 298.92358Q299.5625 300.82983 298.90625 301.76733Q298.26562 302.6892 296.875 302.6892Q295.51562 302.6892 294.85938 301.78296Q294.20312 300.8767 294.17188 299.0642L294.17188 297.6267Q294.17188 295.73608 294.8125 294.82983Q295.46875 293.90796 296.85938 293.90796Q298.23438 293.90796 298.89062 294.79858Q299.54688 295.67358 299.5625 297.51733L299.5625 298.92358ZM298.46875 297.4392Q298.46875 296.0642 298.07812 295.4392Q297.70312 294.79858 296.85938 294.79858Q296.03125 294.79858 295.64062 295.4392Q295.26562 296.0642 295.26562 297.36108L295.26562 299.09546Q295.26562 300.47046 295.65625 301.14233Q296.0625 301.79858 296.875 301.79858Q297.67188 301.79858 298.0625 301.17358Q298.45312 300.54858 298.46875 299.22046L298.46875 297.4392ZM301.34375 302.0017Q301.34375 301.72046 301.5 301.53296Q301.67188 301.34546 302.0 301.34546Q302.34375 301.34546 302.51562 301.53296Q302.6875 301.72046 302.6875 302.0017Q302.6875 302.26733 302.51562 302.45483Q302.34375 302.6267 302.0 302.6267Q301.67188 302.6267 301.5 302.45483Q301.34375 302.26733 301.34375 302.0017ZM308.35938 298.8142Q308.03125 299.22046 307.54688 299.47046Q307.07812 299.70483 306.51562 299.70483Q305.78125 299.70483 305.23438 299.34546Q304.6875 298.98608 304.39062 298.32983Q304.09375 297.65796 304.09375 296.86108Q304.09375 296.01733 304.40625 295.32983Q304.73438 294.64233 305.32812 294.28296Q305.9375 293.90796 306.73438 293.90796Q308.0 293.90796 308.71875 294.86108Q309.45312 295.8142 309.45312 297.4392L309.45312 297.7517Q309.45312 300.2517 308.46875 301.39233Q307.48438 302.53296 305.5 302.5642L305.28125 302.5642L305.28125 301.65796L305.51562 301.65796Q306.85938 301.6267 307.57812 300.95483Q308.29688 300.28296 308.35938 298.8142ZM306.6875 298.8142Q307.23438 298.8142 307.6875 298.48608Q308.15625 298.14233 308.375 297.65796L308.375 297.22046Q308.375 296.15796 307.90625 295.48608Q307.4375 294.8142 306.73438 294.8142Q306.01562 294.8142 305.57812 295.36108Q305.15625 295.90796 305.15625 296.8142Q305.15625 297.6892 305.5625 298.2517Q305.98438 298.8142 306.6875 298.8142ZM315.46875 294.03296L315.46875 294.9392L315.26562 294.9392Q314.0 294.97046 313.25 295.70483Q312.5 296.42358 312.375 297.73608Q313.0625 296.97046 314.21875 296.97046Q315.32812 296.97046 316.0 297.7517Q316.67188 298.53296 316.67188 299.78296Q316.67188 301.09546 315.95312 301.89233Q315.23438 302.6892 314.01562 302.6892Q312.79688 302.6892 312.03125 301.7517Q311.28125 300.79858 311.28125 299.3142L311.28125 298.90796Q311.28125 296.54858 312.28125 295.29858Q313.28125 294.04858 315.26562 294.03296L315.46875 294.03296ZM314.04688 297.8767Q313.48438 297.8767 313.01562 298.20483Q312.54688 298.53296 312.35938 299.04858L312.35938 299.4392Q312.35938 300.5017 312.82812 301.14233Q313.3125 301.78296 314.01562 301.78296Q314.75 301.78296 315.17188 301.2517Q315.59375 300.70483 315.59375 299.82983Q315.59375 298.95483 315.17188 298.42358Q314.75 297.8767 314.04688 297.8767Z" fill-rule="nonzero"/><path stroke="#b6d7a8" stroke-width="3.0" stroke-linejoin="round" stroke-linecap="round" d="M447.76562 296.5711L446.6875 296.5711L446.6875 289.35236L444.5 290.14923L444.5 289.16486L447.60938 287.99298L447.76562 287.99298L447.76562 296.5711ZM451.34375 296.0086Q451.34375 295.72736 451.5 295.53986Q451.67188 295.35236 452.0 295.35236Q452.34375 295.35236 452.51562 295.53986Q452.6875 295.72736 452.6875 296.0086Q452.6875 296.27423 452.51562 296.46173Q452.34375 296.6336 452.0 296.6336Q451.67188 296.6336 451.5 296.46173Q451.34375 296.27423 451.34375 296.0086ZM459.5625 292.93048Q459.5625 294.83673 458.90625 295.77423Q458.26562 296.6961 456.875 296.6961Q455.51562 296.6961 454.85938 295.78986Q454.20312 294.8836 454.17188 293.0711L454.17188 291.6336Q454.17188 289.74298 454.8125 288.83673Q455.46875 287.91486 456.85938 287.91486Q458.23438 287.91486 458.89062 288.80548Q459.54688 289.68048 459.5625 291.52423L459.5625 292.93048ZM458.46875 291.4461Q458.46875 290.0711 458.07812 289.4461Q457.70312 288.80548 456.85938 288.80548Q456.03125 288.80548 455.64062 289.4461Q455.26562 290.0711 455.26562 291.36798L455.26562 293.10236Q455.26562 294.47736 455.65625 295.14923Q456.0625 295.80548 456.875 295.80548Q457.67188 295.80548 458.0625 295.18048Q458.45312 294.55548 458.46875 293.22736L458.46875 291.4461ZM466.39062 290.2586Q466.39062 290.89923 466.04688 291.39923Q465.70312 291.89923 465.14062 292.18048Q465.79688 292.46173 466.1875 293.02423Q466.57812 293.5711 466.57812 294.27423Q466.57812 295.36798 465.82812 296.03986Q465.09375 296.6961 463.875 296.6961Q462.64062 296.6961 461.89062 296.03986Q461.15625 295.36798 461.15625 294.27423Q461.15625 293.5711 461.53125 293.02423Q461.90625 292.46173 462.57812 292.18048Q462.01562 291.89923 461.6875 291.39923Q461.35938 290.89923 461.35938 290.2586Q461.35938 289.18048 462.04688 288.55548Q462.73438 287.91486 463.875 287.91486Q465.0 287.91486 465.6875 288.55548Q466.39062 289.18048 466.39062 290.2586ZM465.5 294.24298Q465.5 293.52423 465.04688 293.08673Q464.59375 292.6336 463.85938 292.6336Q463.125 292.6336 462.67188 293.08673Q462.23438 293.52423 462.23438 294.2586Q462.23438 294.97736 462.67188 295.39923Q463.10938 295.80548 463.875 295.80548Q464.625 295.80548 465.0625 295.3836Q465.5 294.96173 465.5 294.24298ZM463.875 288.80548Q463.23438 288.80548 462.82812 289.21173Q462.4375 289.60236 462.4375 290.28986Q462.4375 290.93048 462.82812 291.33673Q463.21875 291.74298 463.85938 291.74298Q464.51562 291.74298 464.90625 291.33673Q465.29688 290.93048 465.29688 290.28986Q465.29688 289.6336 464.89062 289.22736Q464.48438 288.80548 463.875 288.80548Z" fill-rule="nonzero"/><path fill="#000000" d="M447.76562 296.5711L446.6875 296.5711L446.6875 289.35236L444.5 290.14923L444.5 289.16486L447.60938 287.99298L447.76562 287.99298L447.76562 296.5711ZM451.34375 296.0086Q451.34375 295.72736 451.5 295.53986Q451.67188 295.35236 452.0 295.35236Q452.34375 295.35236 452.51562 295.53986Q452.6875 295.72736 452.6875 296.0086Q452.6875 296.27423 452.51562 296.46173Q452.34375 296.6336 452.0 296.6336Q451.67188 296.6336 451.5 296.46173Q451.34375 296.27423 451.34375 296.0086ZM459.5625 292.93048Q459.5625 294.83673 458.90625 295.77423Q458.26562 296.6961 456.875 296.6961Q455.51562 296.6961 454.85938 295.78986Q454.20312 294.8836 454.17188 293.0711L454.17188 291.6336Q454.17188 289.74298 454.8125 288.83673Q455.46875 287.91486 456.85938 287.91486Q458.23438 287.91486 458.89062 288.80548Q459.54688 289.68048 459.5625 291.52423L459.5625 292.93048ZM458.46875 291.4461Q458.46875 290.0711 458.07812 289.4461Q457.70312 288.80548 456.85938 288.80548Q456.03125 288.80548 455.64062 289.4461Q455.26562 290.0711 455.26562 291.36798L455.26562 293.10236Q455.26562 294.47736 455.65625 295.14923Q456.0625 295.80548 456.875 295.80548Q457.67188 295.80548 458.0625 295.18048Q458.45312 294.55548 458.46875 293.22736L458.46875 291.4461ZM466.39062 290.2586Q466.39062 290.89923 466.04688 291.39923Q465.70312 291.89923 465.14062 292.18048Q465.79688 292.46173 466.1875 293.02423Q466.57812 293.5711 466.57812 294.27423Q466.57812 295.36798 465.82812 296.03986Q465.09375 296.6961 463.875 296.6961Q462.64062 296.6961 461.89062 296.03986Q461.15625 295.36798 461.15625 294.27423Q461.15625 293.5711 461.53125 293.02423Q461.90625 292.46173 462.57812 292.18048Q462.01562 291.89923 461.6875 291.39923Q461.35938 290.89923 461.35938 290.2586Q461.35938 289.18048 462.04688 288.55548Q462.73438 287.91486 463.875 287.91486Q465.0 287.91486 465.6875 288.55548Q466.39062 289.18048 466.39062 290.2586ZM465.5 294.24298Q465.5 293.52423 465.04688 293.08673Q464.59375 292.6336 463.85938 292.6336Q463.125 292.6336 462.67188 293.08673Q462.23438 293.52423 462.23438 294.2586Q462.23438 294.97736 462.67188 295.39923Q463.10938 295.80548 463.875 295.80548Q464.625 295.80548 465.0625 295.3836Q465.5 294.96173 465.5 294.24298ZM463.875 288.80548Q463.23438 288.80548 462.82812 289.21173Q462.4375 289.60236 462.4375 290.28986Q462.4375 290.93048 462.82812 291.33673Q463.21875 291.74298 463.85938 291.74298Q464.51562 291.74298 464.90625 291.33673Q465.29688 290.93048 465.29688 290.28986Q465.29688 289.6336 464.89062 289.22736Q464.48438 288.80548 463.875 288.80548Z" fill-rule="nonzero"/><path stroke="#38761d" stroke-width="3.0" stroke-linejoin="round" stroke-linecap="round" d="M196.78125 110.480804L197.96875 110.480804L197.96875 111.355804L196.78125 111.355804L196.78125 113.34018L195.70312 113.34018L195.70312 111.355804L191.8125 111.355804L191.8125 110.71518L195.625 104.80893L196.78125 104.80893L196.78125 110.480804ZM193.04688 110.480804L195.70312 110.480804L195.70312 106.293304L195.5625 106.52768L193.04688 110.480804ZM199.34375 112.77768Q199.34375 112.49643 199.5 112.30893Q199.67188 112.12143 200.0 112.12143Q200.34375 112.12143 200.51562 112.30893Q200.6875 112.49643 200.6875 112.77768Q200.6875 113.043304 200.51562 113.230804Q200.34375 113.40268 200.0 113.40268Q199.67188 113.40268 199.5 113.230804Q199.34375 113.043304 199.34375 112.77768ZM207.39062 107.02768Q207.39062 107.668304 207.04688 108.168304Q206.70312 108.668304 206.14062 108.949554Q206.79688 109.230804 207.1875 109.793304Q207.57812 110.34018 207.57812 111.043304Q207.57812 112.137054 206.82812 112.80893Q206.09375 113.46518 204.875 113.46518Q203.64062 113.46518 202.89062 112.80893Q202.15625 112.137054 202.15625 111.043304Q202.15625 110.34018 202.53125 109.793304Q202.90625 109.230804 203.57812 108.949554Q203.01562 108.668304 202.6875 108.168304Q202.35938 107.668304 202.35938 107.02768Q202.35938 105.949554 203.04688 105.324554Q203.73438 104.68393 204.875 104.68393Q206.0 104.68393 206.6875 105.324554Q207.39062 105.949554 207.39062 107.02768ZM206.5 111.012054Q206.5 110.293304 206.04688 109.855804Q205.59375 109.40268 204.85938 109.40268Q204.125 109.40268 203.67188 109.855804Q203.23438 110.293304 203.23438 111.02768Q203.23438 111.74643 203.67188 112.168304Q204.10938 112.574554 204.875 112.574554Q205.625 112.574554 206.0625 112.15268Q206.5 111.730804 206.5 111.012054ZM204.875 105.574554Q204.23438 105.574554 203.82812 105.980804Q203.4375 106.37143 203.4375 107.05893Q203.4375 107.699554 203.82812 108.105804Q204.21875 108.512054 204.85938 108.512054Q205.51562 108.512054 205.90625 108.105804Q206.29688 107.699554 206.29688 107.05893Q206.29688 106.40268 205.89062 105.99643Q205.48438 105.574554 204.875 105.574554ZM210.78125 108.543304L211.59375 108.543304Q212.375 108.52768 212.8125 108.137054Q213.25 107.74643 213.25 107.074554Q213.25 105.574554 211.75 105.574554Q211.04688 105.574554 210.625 105.980804Q210.21875 106.387054 210.21875 107.043304L209.125 107.043304Q209.125 106.02768 209.85938 105.355804Q210.60938 104.68393 211.75 104.68393Q212.95312 104.68393 213.64062 105.324554Q214.32812 105.96518 214.32812 107.105804Q214.32812 107.668304 213.96875 108.18393Q213.60938 108.699554 212.98438 108.96518Q213.6875 109.18393 214.0625 109.699554Q214.45312 110.21518 214.45312 110.96518Q214.45312 112.105804 213.70312 112.793304Q212.95312 113.46518 211.75 113.46518Q210.5625 113.46518 209.79688 112.80893Q209.04688 112.15268 209.04688 111.09018L210.14062 111.09018Q210.14062 111.762054 210.57812 112.168304Q211.01562 112.574554 211.76562 112.574554Q212.54688 112.574554 212.95312 112.168304Q213.375 111.74643 213.375 110.980804Q213.375 110.24643 212.92188 109.855804Q212.46875 109.449554 211.59375 109.43393L210.78125 109.43393L210.78125 108.543304Z" fill-rule="nonzero"/><path fill="#ffffff" d="M196.78125 110.480804L197.96875 110.480804L197.96875 111.355804L196.78125 111.355804L196.78125 113.34018L195.70312 113.34018L195.70312 111.355804L191.8125 111.355804L191.8125 110.71518L195.625 104.80893L196.78125 104.80893L196.78125 110.480804ZM193.04688 110.480804L195.70312 110.480804L195.70312 106.293304L195.5625 106.52768L193.04688 110.480804ZM199.34375 112.77768Q199.34375 112.49643 199.5 112.30893Q199.67188 112.12143 200.0 112.12143Q200.34375 112.12143 200.51562 112.30893Q200.6875 112.49643 200.6875 112.77768Q200.6875 113.043304 200.51562 113.230804Q200.34375 113.40268 200.0 113.40268Q199.67188 113.40268 199.5 113.230804Q199.34375 113.043304 199.34375 112.77768ZM207.39062 107.02768Q207.39062 107.668304 207.04688 108.168304Q206.70312 108.668304 206.14062 108.949554Q206.79688 109.230804 207.1875 109.793304Q207.57812 110.34018 207.57812 111.043304Q207.57812 112.137054 206.82812 112.80893Q206.09375 113.46518 204.875 113.46518Q203.64062 113.46518 202.89062 112.80893Q202.15625 112.137054 202.15625 111.043304Q202.15625 110.34018 202.53125 109.793304Q202.90625 109.230804 203.57812 108.949554Q203.01562 108.668304 202.6875 108.168304Q202.35938 107.668304 202.35938 107.02768Q202.35938 105.949554 203.04688 105.324554Q203.73438 104.68393 204.875 104.68393Q206.0 104.68393 206.6875 105.324554Q207.39062 105.949554 207.39062 107.02768ZM206.5 111.012054Q206.5 110.293304 206.04688 109.855804Q205.59375 109.40268 204.85938 109.40268Q204.125 109.40268 203.67188 109.855804Q203.23438 110.293304 203.23438 111.02768Q203.23438 111.74643 203.67188 112.168304Q204.10938 112.574554 204.875 112.574554Q205.625 112.574554 206.0625 112.15268Q206.5 111.730804 206.5 111.012054ZM204.875 105.574554Q204.23438 105.574554 203.82812 105.980804Q203.4375 106.37143 203.4375 107.05893Q203.4375 107.699554 203.82812 108.105804Q204.21875 108.512054 204.85938 108.512054Q205.51562 108.512054 205.90625 108.105804Q206.29688 107.699554 206.29688 107.05893Q206.29688 106.40268 205.89062 105.99643Q205.48438 105.574554 204.875 105.574554ZM210.78125 108.543304L211.59375 108.543304Q212.375 108.52768 212.8125 108.137054Q213.25 107.74643 213.25 107.074554Q213.25 105.574554 211.75 105.574554Q211.04688 105.574554 210.625 105.980804Q210.21875 106.387054 210.21875 107.043304L209.125 107.043304Q209.125 106.02768 209.85938 105.355804Q210.60938 104.68393 211.75 104.68393Q212.95312 104.68393 213.64062 105.324554Q214.32812 105.96518 214.32812 107.105804Q214.32812 107.668304 213.96875 108.18393Q213.60938 108.699554 212.98438 108.96518Q213.6875 109.18393 214.0625 109.699554Q214.45312 110.21518 214.45312 110.96518Q214.45312 112.105804 213.70312 112.793304Q212.95312 113.46518 211.75 113.46518Q210.5625 113.46518 209.79688 112.80893Q209.04688 112.15268 209.04688 111.09018L210.14062 111.09018Q210.14062 111.762054 210.57812 112.168304Q211.01562 112.574554 211.76562 112.574554Q212.54688 112.574554 212.95312 112.168304Q213.375 111.74643 213.375 110.980804Q213.375 110.24643 212.92188 109.855804Q212.46875 109.449554 211.59375 109.43393L210.78125 109.43393L210.78125 108.543304Z" fill-rule="nonzero"/><path stroke="#38761d" stroke-width="3.0" stroke-linejoin="round" stroke-linecap="round" d="M346.76562 255.69955L345.6875 255.69955L345.6875 248.4808L343.5 249.27768L343.5 248.2933L346.60938 247.12143L346.76562 247.12143L346.76562 255.69955ZM350.34375 255.13705Q350.34375 254.8558 350.5 254.6683Q350.67188 254.4808 351.0 254.4808Q351.34375 254.4808 351.51562 254.6683Q351.6875 254.8558 351.6875 255.13705Q351.6875 255.40268 351.51562 255.59018Q351.34375 255.76205 351.0 255.76205Q350.67188 255.76205 350.5 255.59018Q350.34375 255.40268 350.34375 255.13705ZM357.35938 251.94955Q357.03125 252.3558 356.54688 252.6058Q356.07812 252.84018 355.51562 252.84018Q354.78125 252.84018 354.23438 252.4808Q353.6875 252.12143 353.39062 251.46518Q353.09375 250.7933 353.09375 249.99643Q353.09375 249.15268 353.40625 248.46518Q353.73438 247.77768 354.32812 247.4183Q354.9375 247.0433 355.73438 247.0433Q357.0 247.0433 357.71875 247.99643Q358.45312 248.94955 358.45312 250.57455L358.45312 250.88705Q358.45312 253.38705 357.46875 254.52768Q356.48438 255.6683 354.5 255.69955L354.28125 255.69955L354.28125 254.7933L354.51562 254.7933Q355.85938 254.76205 356.57812 254.09018Q357.29688 253.4183 357.35938 251.94955ZM355.6875 251.94955Q356.23438 251.94955 356.6875 251.62143Q357.15625 251.27768 357.375 250.7933L357.375 250.3558Q357.375 249.2933 356.90625 248.62143Q356.4375 247.94955 355.73438 247.94955Q355.01562 247.94955 354.57812 248.49643Q354.15625 249.0433 354.15625 249.94955Q354.15625 250.82455 354.5625 251.38705Q354.98438 251.94955 355.6875 251.94955ZM365.79688 255.69955L360.20312 255.69955L360.20312 254.9183L363.15625 251.63705Q363.8125 250.88705 364.0625 250.43393Q364.3125 249.96518 364.3125 249.46518Q364.3125 248.7933 363.90625 248.37143Q363.51562 247.93393 362.82812 247.93393Q362.03125 247.93393 361.57812 248.40268Q361.125 248.8558 361.125 249.68393L360.04688 249.68393Q360.04688 248.49643 360.79688 247.77768Q361.5625 247.0433 362.82812 247.0433Q364.03125 247.0433 364.71875 247.6683Q365.40625 248.2933 365.40625 249.34018Q365.40625 250.59018 363.79688 252.34018L361.51562 254.80893L365.79688 254.80893L365.79688 255.69955Z" fill-rule="nonzero"/><path fill="#ffffff" d="M346.76562 255.69955L345.6875 255.69955L345.6875 248.4808L343.5 249.27768L343.5 248.2933L346.60938 247.12143L346.76562 247.12143L346.76562 255.69955ZM350.34375 255.13705Q350.34375 254.8558 350.5 254.6683Q350.67188 254.4808 351.0 254.4808Q351.34375 254.4808 351.51562 254.6683Q351.6875 254.8558 351.6875 255.13705Q351.6875 255.40268 351.51562 255.59018Q351.34375 255.76205 351.0 255.76205Q350.67188 255.76205 350.5 255.59018Q350.34375 255.40268 350.34375 255.13705ZM357.35938 251.94955Q357.03125 252.3558 356.54688 252.6058Q356.07812 252.84018 355.51562 252.84018Q354.78125 252.84018 354.23438 252.4808Q353.6875 252.12143 353.39062 251.46518Q353.09375 250.7933 353.09375 249.99643Q353.09375 249.15268 353.40625 248.46518Q353.73438 247.77768 354.32812 247.4183Q354.9375 247.0433 355.73438 247.0433Q357.0 247.0433 357.71875 247.99643Q358.45312 248.94955 358.45312 250.57455L358.45312 250.88705Q358.45312 253.38705 357.46875 254.52768Q356.48438 255.6683 354.5 255.69955L354.28125 255.69955L354.28125 254.7933L354.51562 254.7933Q355.85938 254.76205 356.57812 254.09018Q357.29688 253.4183 357.35938 251.94955ZM355.6875 251.94955Q356.23438 251.94955 356.6875 251.62143Q357.15625 251.27768 357.375 250.7933L357.375 250.3558Q357.375 249.2933 356.90625 248.62143Q356.4375 247.94955 355.73438 247.94955Q355.01562 247.94955 354.57812 248.49643Q354.15625 249.0433 354.15625 249.94955Q354.15625 250.82455 354.5625 251.38705Q354.98438 251.94955 355.6875 251.94955ZM365.79688 255.69955L360.20312 255.69955L360.20312 254.9183L363.15625 251.63705Q363.8125 250.88705 364.0625 250.43393Q364.3125 249.96518 364.3125 249.46518Q364.3125 248.7933 363.90625 248.37143Q363.51562 247.93393 362.82812 247.93393Q362.03125 247.93393 361.57812 248.40268Q361.125 248.8558 361.125 249.68393L360.04688 249.68393Q360.04688 248.49643 360.79688 247.77768Q361.5625 247.0433 362.82812 247.0433Q364.03125 247.0433 364.71875 247.6683Q365.40625 248.2933 365.40625 249.34018Q365.40625 250.59018 363.79688 252.34018L361.51562 254.80893L365.79688 254.80893L365.79688 255.69955Z" fill-rule="nonzero"/><path stroke="#38761d" stroke-width="3.0" stroke-linejoin="round" stroke-linecap="round" d="M498.79688 239.51218L493.20312 239.51218L493.20312 238.73093L496.15625 235.44968Q496.8125 234.69968 497.0625 234.24655Q497.3125 233.7778 497.3125 233.2778Q497.3125 232.60593 496.90625 232.18405Q496.51562 231.74655 495.82812 231.74655Q495.03125 231.74655 494.57812 232.2153Q494.125 232.66843 494.125 233.49655L493.04688 233.49655Q493.04688 232.30905 493.79688 231.5903Q494.5625 230.85593 495.82812 230.85593Q497.03125 230.85593 497.71875 231.48093Q498.40625 232.10593 498.40625 233.1528Q498.40625 234.4028 496.79688 236.1528L494.51562 238.62155L498.79688 238.62155L498.79688 239.51218ZM500.34375 238.94968Q500.34375 238.66843 500.5 238.48093Q500.67188 238.29343 501.0 238.29343Q501.34375 238.29343 501.51562 238.48093Q501.6875 238.66843 501.6875 238.94968Q501.6875 239.2153 501.51562 239.4028Q501.34375 239.57468 501.0 239.57468Q500.67188 239.57468 500.5 239.4028Q500.34375 239.2153 500.34375 238.94968ZM508.79688 239.51218L503.20312 239.51218L503.20312 238.73093L506.15625 235.44968Q506.8125 234.69968 507.0625 234.24655Q507.3125 233.7778 507.3125 233.2778Q507.3125 232.60593 506.90625 232.18405Q506.51562 231.74655 505.82812 231.74655Q505.03125 231.74655 504.57812 232.2153Q504.125 232.66843 504.125 233.49655L503.04688 233.49655Q503.04688 232.30905 503.79688 231.5903Q504.5625 230.85593 505.82812 230.85593Q507.03125 230.85593 507.71875 231.48093Q508.40625 232.10593 508.40625 233.1528Q508.40625 234.4028 506.79688 236.1528L504.51562 238.62155L508.79688 238.62155L508.79688 239.51218ZM510.70312 235.23093L511.14062 230.98093L515.5156 230.98093L515.5156 231.98093L512.0625 231.98093L511.79688 234.30905Q512.4375 233.93405 513.2344 233.93405Q514.3906 233.93405 515.0781 234.7153Q515.7656 235.48093 515.7656 236.79343Q515.7656 238.10593 515.0469 238.87155Q514.34375 239.63718 513.0625 239.63718Q511.9375 239.63718 511.21875 239.01218Q510.5 238.37155 510.40625 237.26218L511.42188 237.26218Q511.53125 237.99655 511.95312 238.37155Q512.375 238.74655 513.0625 238.74655Q513.8125 238.74655 514.25 238.23093Q514.6875 237.7153 514.6875 236.80905Q514.6875 235.94968 514.21875 235.43405Q513.75 234.91843 512.96875 234.91843Q512.2656 234.91843 511.85938 235.2153L511.57812 235.44968L510.70312 235.23093Z" fill-rule="nonzero"/><path fill="#ffffff" d="M498.79688 239.51218L493.20312 239.51218L493.20312 238.73093L496.15625 235.44968Q496.8125 234.69968 497.0625 234.24655Q497.3125 233.7778 497.3125 233.2778Q497.3125 232.60593 496.90625 232.18405Q496.51562 231.74655 495.82812 231.74655Q495.03125 231.74655 494.57812 232.2153Q494.125 232.66843 494.125 233.49655L493.04688 233.49655Q493.04688 232.30905 493.79688 231.5903Q494.5625 230.85593 495.82812 230.85593Q497.03125 230.85593 497.71875 231.48093Q498.40625 232.10593 498.40625 233.1528Q498.40625 234.4028 496.79688 236.1528L494.51562 238.62155L498.79688 238.62155L498.79688 239.51218ZM500.34375 238.94968Q500.34375 238.66843 500.5 238.48093Q500.67188 238.29343 501.0 238.29343Q501.34375 238.29343 501.51562 238.48093Q501.6875 238.66843 501.6875 238.94968Q501.6875 239.2153 501.51562 239.4028Q501.34375 239.57468 501.0 239.57468Q500.67188 239.57468 500.5 239.4028Q500.34375 239.2153 500.34375 238.94968ZM508.79688 239.51218L503.20312 239.51218L503.20312 238.73093L506.15625 235.44968Q506.8125 234.69968 507.0625 234.24655Q507.3125 233.7778 507.3125 233.2778Q507.3125 232.60593 506.90625 232.18405Q506.51562 231.74655 505.82812 231.74655Q505.03125 231.74655 504.57812 232.2153Q504.125 232.66843 504.125 233.49655L503.04688 233.49655Q503.04688 232.30905 503.79688 231.5903Q504.5625 230.85593 505.82812 230.85593Q507.03125 230.85593 507.71875 231.48093Q508.40625 232.10593 508.40625 233.1528Q508.40625 234.4028 506.79688 236.1528L504.51562 238.62155L508.79688 238.62155L508.79688 239.51218ZM510.70312 235.23093L511.14062 230.98093L515.5156 230.98093L515.5156 231.98093L512.0625 231.98093L511.79688 234.30905Q512.4375 233.93405 513.2344 233.93405Q514.3906 233.93405 515.0781 234.7153Q515.7656 235.48093 515.7656 236.79343Q515.7656 238.10593 515.0469 238.87155Q514.34375 239.63718 513.0625 239.63718Q511.9375 239.63718 511.21875 239.01218Q510.5 238.37155 510.40625 237.26218L511.42188 237.26218Q511.53125 237.99655 511.95312 238.37155Q512.375 238.74655 513.0625 238.74655Q513.8125 238.74655 514.25 238.23093Q514.6875 237.7153 514.6875 236.80905Q514.6875 235.94968 514.21875 235.43405Q513.75 234.91843 512.96875 234.91843Q512.2656 234.91843 511.85938 235.2153L511.57812 235.44968L510.70312 235.23093Z" fill-rule="nonzero"/><path fill="#000000" d="M26.175013 261.91354L25.175013 261.91354L25.159388 258.28854L28.346888 258.28854Q29.018763 259.11667 29.362513 260.0073Q29.690638 260.89792 29.690638 261.83542Q29.690638 263.10104 29.159388 264.14792Q28.612513 265.17917 27.596888 265.71042Q26.565638 266.22604 25.300013 266.22604Q24.034388 266.22604 22.956263 265.71042Q21.862513 265.17917 21.346888 264.1948Q20.815638 263.21042 20.815638 261.92917Q20.815638 260.99167 21.112513 260.24167Q21.409388 259.49167 21.956263 259.0698Q22.487513 258.6323 23.362513 258.41354L23.643763 259.42917Q22.987513 259.6323 22.612513 259.92917Q22.237513 260.21042 22.018763 260.74167Q21.784388 261.27292 21.784388 261.91354Q21.784388 262.6948 22.018763 263.27292Q22.253138 263.83542 22.643763 264.1948Q23.034388 264.53854 23.503138 264.72604Q24.300013 265.05417 25.221888 265.05417Q26.378138 265.05417 27.159388 264.66354Q27.925013 264.2573 28.300013 263.5073Q28.675013 262.7573 28.675013 261.89792Q28.675013 261.16354 28.393763 260.46042Q28.096888 259.7573 27.784388 259.39792L26.175013 259.39792L26.175013 261.91354ZM29.550013 257.10104L20.956263 257.10104L20.956263 256.03854L29.550013 256.03854L29.550013 257.10104ZM26.440638 254.46042Q24.706263 254.46042 23.878138 253.5073Q23.190638 252.71042 23.190638 251.55417Q23.190638 250.27292 24.034388 249.46042Q24.862513 248.6323 26.346888 248.6323Q27.550013 248.6323 28.237513 248.99167Q28.925013 249.35104 29.315638 250.05417Q29.690638 250.74167 29.690638 251.55417Q29.690638 252.85104 28.862513 253.66354Q28.018763 254.46042 26.440638 254.46042ZM26.440638 253.3823Q27.628138 253.3823 28.221888 252.86667Q28.815638 252.33542 28.815638 251.55417Q28.815638 250.7573 28.221888 250.24167Q27.628138 249.72604 26.409388 249.72604Q25.253138 249.72604 24.659388 250.2573Q24.065638 250.77292 24.065638 251.55417Q24.065638 252.33542 24.659388 252.86667Q25.237513 253.3823 26.440638 253.3823ZM29.550013 246.10104L29.550013 247.08542L20.956263 247.08542L20.956263 246.02292L24.018763 246.02292Q23.190638 245.35104 23.190638 244.3198Q23.190638 243.74167 23.425013 243.24167Q23.643763 242.72604 24.065638 242.39792Q24.487513 242.05417 25.081263 241.86667Q25.675013 241.67917 26.346888 241.67917Q27.940638 241.67917 28.815638 242.47604Q29.690638 243.27292 29.690638 244.36667Q29.690638 245.47604 28.768763 246.10104L29.550013 246.10104ZM26.393763 246.11667Q27.503138 246.11667 28.003138 245.80417Q28.815638 245.30417 28.815638 244.46042Q28.815638 243.77292 28.221888 243.27292Q27.628138 242.7573 26.425013 242.7573Q25.206263 242.7573 24.628138 243.24167Q24.050013 243.72604 24.050013 244.41354Q24.050013 245.10104 24.659388 245.61667Q25.253138 246.11667 26.393763 246.11667ZM28.784388 236.0073Q29.284388 236.60104 29.487513 237.14792Q29.690638 237.67917 29.690638 238.30417Q29.690638 239.33542 29.190638 239.8823Q28.690638 240.42917 27.909388 240.42917Q27.456263 240.42917 27.081263 240.22604Q26.690638 240.02292 26.471888 239.67917Q26.237513 239.33542 26.128138 238.91354Q26.034388 238.61667 25.956263 237.97604Q25.815638 236.71042 25.596888 236.10104Q25.378138 236.10104 25.331263 236.10104Q24.675013 236.10104 24.409388 236.39792Q24.065638 236.80417 24.065638 237.60104Q24.065638 238.33542 24.331263 238.6948Q24.581263 239.05417 25.237513 239.22604L25.096888 240.2573Q24.440638 240.11667 24.034388 239.78854Q23.628138 239.46042 23.409388 238.85104Q23.190638 238.24167 23.190638 237.4448Q23.190638 236.64792 23.378138 236.14792Q23.565638 235.64792 23.846888 235.41354Q24.128138 235.17917 24.565638 235.08542Q24.831263 235.03854 25.534388 235.03854L26.940638 235.03854Q28.409388 235.03854 28.800013 234.97604Q29.190638 234.89792 29.550013 234.6948L29.550013 235.80417Q29.221888 235.96042 28.784388 236.0073ZM26.425013 236.10104Q26.659388 236.67917 26.831263 237.8198Q26.925013 238.47604 27.050013 238.74167Q27.159388 239.0073 27.378138 239.16354Q27.596888 239.30417 27.878138 239.30417Q28.300013 239.30417 28.581263 238.99167Q28.862513 238.66354 28.862513 238.05417Q28.862513 237.4448 28.596888 236.97604Q28.331263 236.49167 27.862513 236.27292Q27.503138 236.10104 26.815638 236.10104L26.425013 236.10104ZM29.550013 233.10104L20.956263 233.10104L20.956263 232.03854L29.550013 232.03854L29.550013 233.10104ZM29.550013 226.99167L20.956263 226.99167L20.956263 223.7573Q20.956263 222.77292 21.221888 222.17917Q21.487513 221.58542 22.034388 221.2573Q22.565638 220.91354 23.159388 220.91354Q23.706263 220.91354 24.190638 221.21042Q24.675013 221.5073 24.971888 222.11667Q25.206263 221.33542 25.768763 220.92917Q26.315638 220.5073 27.065638 220.5073Q27.659388 220.5073 28.190638 220.7573Q28.706263 221.0073 28.987513 221.3823Q29.268763 221.7573 29.409388 222.33542Q29.550013 222.89792 29.550013 223.71042L29.550013 226.99167ZM24.565638 225.85104L24.565638 223.99167Q24.565638 223.24167 24.471888 222.91354Q24.346888 222.47604 24.050013 222.2573Q23.737513 222.03854 23.284388 222.03854Q22.862513 222.03854 22.534388 222.24167Q22.206263 222.4448 22.096888 222.83542Q21.971888 223.21042 21.971888 224.1323L21.971888 225.85104L24.565638 225.85104ZM28.534388 225.85104L28.534388 223.71042Q28.534388 223.16354 28.487513 222.9448Q28.425013 222.53854 28.268763 222.28854Q28.096888 222.02292 27.784388 221.85104Q27.471888 221.67917 27.065638 221.67917Q26.581263 221.67917 26.221888 221.92917Q25.862513 222.16354 25.721888 222.60104Q25.581263 223.03854 25.581263 223.86667L25.581263 225.85104L28.534388 225.85104ZM28.784388 215.0073Q29.284388 215.60104 29.487513 216.14792Q29.690638 216.67917 29.690638 217.30417Q29.690638 218.33542 29.190638 218.8823Q28.690638 219.42917 27.909388 219.42917Q27.456263 219.42917 27.081263 219.22604Q26.690638 219.02292 26.471888 218.67917Q26.237513 218.33542 26.128138 217.91354Q26.034388 217.61667 25.956263 216.97604Q25.815638 215.71042 25.596888 215.10104Q25.378138 215.10104 25.331263 215.10104Q24.675013 215.10104 24.409388 215.39792Q24.065638 215.80417 24.065638 216.60104Q24.065638 217.33542 24.331263 217.6948Q24.581263 218.05417 25.237513 218.22604L25.096888 219.2573Q24.440638 219.11667 24.034388 218.78854Q23.628138 218.46042 23.409388 217.85104Q23.190638 217.24167 23.190638 216.4448Q23.190638 215.64792 23.378138 215.14792Q23.565638 214.64792 23.846888 214.41354Q24.128138 214.17917 24.565638 214.08542Q24.831263 214.03854 25.534388 214.03854L26.940638 214.03854Q28.409388 214.03854 28.800013 213.97604Q29.190638 213.89792 29.550013 213.6948L29.550013 214.80417Q29.221888 214.96042 28.784388 215.0073ZM26.425013 215.10104Q26.659388 215.67917 26.831263 216.8198Q26.925013 217.47604 27.050013 217.74167Q27.159388 218.0073 27.378138 218.16354Q27.596888 218.30417 27.878138 218.30417Q28.300013 218.30417 28.581263 217.99167Q28.862513 217.66354 28.862513 217.05417Q28.862513 216.4448 28.596888 215.97604Q28.331263 215.49167 27.862513 215.27292Q27.503138 215.10104 26.815638 215.10104L26.425013 215.10104ZM28.612513 209.77292L29.534388 209.61667Q29.628138 210.0698 29.628138 210.41354Q29.628138 210.99167 29.456263 211.30417Q29.268763 211.61667 28.971888 211.7573Q28.675013 211.8823 27.721888 211.8823L24.143763 211.8823L24.143763 212.64792L23.331263 212.64792L23.331263 211.8823L21.784388 211.8823L21.159388 210.83542L23.331263 210.83542L23.331263 209.77292L24.143763 209.77292L24.143763 210.83542L27.784388 210.83542Q28.237513 210.83542 28.362513 210.78854Q28.487513 210.72604 28.565638 210.60104Q28.643763 210.47604 28.643763 210.24167Q28.643763 210.05417 28.612513 209.77292ZM27.268763 205.0073L27.409388 203.97604Q28.471888 204.14792 29.081263 204.85104Q29.690638 205.55417 29.690638 206.5698Q29.690638 207.85104 28.862513 208.6323Q28.018763 209.39792 26.456263 209.39792Q25.456263 209.39792 24.706263 209.0698Q23.940638 208.72604 23.565638 208.05417Q23.190638 207.36667 23.190638 206.55417Q23.190638 205.55417 23.706263 204.91354Q24.206263 204.2573 25.159388 204.0698L25.315638 205.10104Q24.690638 205.24167 24.378138 205.61667Q24.050013 205.99167 24.050013 206.52292Q24.050013 207.3198 24.628138 207.8198Q25.190638 208.3198 26.425013 208.3198Q27.690638 208.3198 28.253138 207.83542Q28.815638 207.35104 28.815638 206.58542Q28.815638 205.96042 28.440638 205.55417Q28.065638 205.1323 27.268763 205.0073ZM29.550013 203.0698L20.956263 203.0698L20.956263 202.02292L24.034388 202.02292Q23.190638 201.28854 23.190638 200.16354Q23.190638 199.46042 23.471888 198.96042Q23.737513 198.4448 24.221888 198.22604Q24.690638 198.0073 25.612513 198.0073L29.550013 198.0073L29.550013 199.05417L25.612513 199.05417Q24.815638 199.05417 24.456263 199.39792Q24.096888 199.74167 24.096888 200.36667Q24.096888 200.83542 24.346888 201.2573Q24.581263 201.66354 25.003138 201.85104Q25.409388 202.02292 26.143763 202.02292L29.550013 202.02292L29.550013 203.0698ZM29.690638 193.86667L20.815638 191.3823L20.815638 190.53854L29.690638 193.02292L29.690638 193.86667ZM26.784388 187.3198L26.690638 186.2573Q27.346888 186.17917 27.753138 185.89792Q28.159388 185.61667 28.425013 185.03854Q28.675013 184.4448 28.675013 183.71042Q28.675013 183.0698 28.487513 182.5698Q28.284388 182.0698 27.956263 181.83542Q27.612513 181.58542 27.221888 181.58542Q26.815638 181.58542 26.518763 181.8198Q26.206263 182.05417 26.003138 182.58542Q25.862513 182.9448 25.581263 184.1323Q25.300013 185.30417 25.050013 185.77292Q24.721888 186.39792 24.253138 186.6948Q23.768763 186.99167 23.175013 186.99167Q22.534388 186.99167 21.971888 186.6323Q21.393763 186.2573 21.112513 185.55417Q20.815638 184.83542 20.815638 183.97604Q20.815638 183.02292 21.128138 182.28854Q21.425013 181.55417 22.034388 181.16354Q22.628138 180.77292 23.378138 180.74167L23.456263 181.83542Q22.643763 181.92917 22.237513 182.4448Q21.815638 182.9448 21.815638 183.92917Q21.815638 184.96042 22.190638 185.42917Q22.565638 185.89792 23.096888 185.89792Q23.565638 185.89792 23.862513 185.5698Q24.159388 185.24167 24.471888 183.86667Q24.784388 182.47604 25.018763 181.96042Q25.378138 181.21042 25.909388 180.85104Q26.425013 180.49167 27.128138 180.49167Q27.815638 180.49167 28.425013 180.8823Q29.018763 181.27292 29.362513 182.0073Q29.690638 182.74167 29.690638 183.66354Q29.690638 184.83542 29.362513 185.6323Q29.018763 186.41354 28.331263 186.86667Q27.643763 187.30417 26.784388 187.3198ZM27.550013 174.8198L27.675013 173.72604Q28.628138 173.97604 29.159388 174.67917Q29.690638 175.3823 29.690638 176.46042Q29.690638 177.8198 28.846888 178.6323Q28.003138 179.42917 26.487513 179.42917Q24.925013 179.42917 24.065638 178.61667Q23.190638 177.80417 23.190638 176.52292Q23.190638 175.27292 24.034388 174.49167Q24.878138 173.6948 26.425013 173.6948Q26.518763 173.6948 26.706263 173.6948L26.706263 178.33542Q27.737513 178.27292 28.284388 177.7573Q28.815638 177.24167 28.815638 176.46042Q28.815638 175.8823 28.518763 175.47604Q28.206263 175.05417 27.550013 174.8198ZM25.846888 178.27292L25.846888 174.80417Q25.050013 174.86667 24.659388 175.1948Q24.050013 175.71042 24.050013 176.5073Q24.050013 177.24167 24.534388 177.74167Q25.018763 178.22604 25.846888 178.27292ZM27.268763 168.0073L27.409388 166.97604Q28.471888 167.14792 29.081263 167.85104Q29.690638 168.55417 29.690638 169.5698Q29.690638 170.85104 28.862513 171.6323Q28.018763 172.39792 26.456263 172.39792Q25.456263 172.39792 24.706263 172.0698Q23.940638 171.72604 23.565638 171.05417Q23.190638 170.36667 23.190638 169.55417Q23.190638 168.55417 23.706263 167.91354Q24.206263 167.2573 25.159388 167.0698L25.315638 168.10104Q24.690638 168.24167 24.378138 168.61667Q24.050013 168.99167 24.050013 169.52292Q24.050013 170.3198 24.628138 170.8198Q25.190638 171.3198 26.425013 171.3198Q27.690638 171.3198 28.253138 170.83542Q28.815638 170.35104 28.815638 169.58542Q28.815638 168.96042 28.440638 168.55417Q28.065638 168.1323 27.268763 168.0073Z" fill-rule="nonzero"/><path fill="#000000" d="M65.05 332.21564Q65.05 330.6844 65.3625 329.7625Q65.675 328.825 66.28438 328.325Q66.90938 327.825 67.84688 327.825Q68.53438 327.825 69.05 328.10626Q69.58125 328.3875 69.925 328.91876Q70.26875 329.4344 70.45625 330.1844Q70.64375 330.9344 70.64375 332.21564Q70.64375 333.73126 70.33125 334.65314Q70.03438 335.575 69.40938 336.09064Q68.8 336.59064 67.84688 336.59064Q66.6125 336.59064 65.89375 335.7Q65.05 334.6375 65.05 332.21564ZM66.12813 332.21564Q66.12813 334.325 66.62813 335.02814Q67.12813 335.73126 67.84688 335.73126Q68.58125 335.73126 69.06563 335.02814Q69.56563 334.325 69.56563 332.21564Q69.56563 330.09064 69.06563 329.40314Q68.58125 328.7 67.83125 328.7Q67.1125 328.7 66.675 329.3094Q66.12813 330.09064 66.12813 332.21564Z" fill-rule="nonzero"/><path fill="#000000" d="M69.01875 287.61667L67.97188 287.61667L67.97188 280.89792Q67.58125 281.2573 66.95625 281.6323Q66.34688 281.99167 65.8625 282.16354L65.8625 281.14792Q66.7375 280.72604 67.39375 280.14792Q68.06563 279.55417 68.34688 278.99167L69.01875 278.99167L69.01875 287.61667Z" fill-rule="nonzero"/><path fill="#000000" d="M70.59688 237.76772L70.59688 238.78334L64.90938 238.78334Q64.90938 238.40834 65.03438 238.04897Q65.25313 237.47084 65.72188 236.90834Q66.20625 236.34584 67.1125 235.61147Q68.51875 234.45522 69.00313 233.78334Q69.50313 233.11147 69.50313 232.51772Q69.50313 231.89272 69.05 231.47084Q68.59688 231.03334 67.87813 231.03334Q67.1125 231.03334 66.65938 231.48647Q66.20625 231.93959 66.19063 232.75209L65.1125 232.64272Q65.22188 231.42397 65.94063 230.79897Q66.675 230.15834 67.90938 230.15834Q69.14375 230.15834 69.8625 230.84584Q70.58125 231.53334 70.58125 232.54897Q70.58125 233.06459 70.3625 233.56459Q70.15938 234.04897 69.65938 234.61147Q69.175 235.15834 68.05 236.11147Q67.09688 236.90834 66.81563 237.20522Q66.55 237.48647 66.37813 237.76772L70.59688 237.76772Z" fill-rule="nonzero"/><path fill="#000000" d="M65.05 187.68437L66.1125 187.54375Q66.28438 188.43437 66.72188 188.84062Q67.15938 189.23125 67.78438 189.23125Q68.53438 189.23125 69.05 188.71562Q69.56563 188.2 69.56563 187.43437Q69.56563 186.71562 69.08125 186.24687Q68.6125 185.7625 67.87813 185.7625Q67.58125 185.7625 67.12813 185.8875L67.25313 184.95Q67.3625 184.96562 67.425 184.96562Q68.09688 184.96562 68.62813 184.62187Q69.175 184.2625 69.175 183.52812Q69.175 182.95 68.78438 182.575Q68.39375 182.18437 67.76875 182.18437Q67.15938 182.18437 66.7375 182.575Q66.33125 182.96562 66.22188 183.73125L65.15938 183.54375Q65.34688 182.49687 66.03438 181.91875Q66.72188 181.325 67.7375 181.325Q68.44063 181.325 69.03438 181.6375Q69.62813 181.93437 69.94063 182.45Q70.25313 182.96562 70.25313 183.55937Q70.25313 184.10625 69.95625 184.575Q69.65938 185.02812 69.08125 185.29375Q69.83125 185.46562 70.25313 186.02812Q70.675 186.575 70.675 187.41875Q70.675 188.54375 69.84688 189.325Q69.03438 190.10625 67.78438 190.10625Q66.65938 190.10625 65.90938 189.43437Q65.15938 188.74687 65.05 187.68437Z" fill-rule="nonzero"/><path fill="#000000" d="M68.425 141.11667L68.425 139.05417L64.70625 139.05417L64.70625 138.08542L68.62813 132.52292L69.4875 132.52292L69.4875 138.08542L70.64375 138.08542L70.64375 139.05417L69.4875 139.05417L69.4875 141.11667L68.425 141.11667ZM68.425 138.08542L68.425 134.22604L65.7375 138.08542L68.425 138.08542Z" fill-rule="nonzero"/><path fill="#000000" d="M65.05 90.03333L66.15938 89.93958Q66.28438 90.75208 66.72188 91.15833Q67.175 91.56458 67.81563 91.56458Q68.56563 91.56458 69.09688 90.98646Q69.62813 90.40833 69.62813 89.47083Q69.62813 88.56458 69.1125 88.04896Q68.6125 87.51771 67.78438 87.51771Q67.28438 87.51771 66.8625 87.75208Q66.45625 87.98646 66.22188 88.34583L65.2375 88.22083L66.06563 83.81458L70.34688 83.81458L70.34688 84.81458L66.90938 84.81458L66.45625 87.12708Q67.22188 86.58021 68.06563 86.58021Q69.19063 86.58021 69.95625 87.36146Q70.7375 88.14271 70.7375 89.37708Q70.7375 90.53333 70.06563 91.39271Q69.2375 92.42396 67.81563 92.42396Q66.64375 92.42396 65.89375 91.76771Q65.15938 91.11146 65.05 90.03333Z" fill-rule="nonzero"/><path fill="#000000" d="M158.64459 346.4344L159.76959 346.73126Q159.41022 348.1219 158.48834 348.85626Q157.56647 349.59064 156.22272 349.59064Q154.83209 349.59064 153.95709 349.02814Q153.08209 348.46564 152.62897 347.40314Q152.17584 346.325 152.17584 345.09064Q152.17584 343.7469 152.69147 342.7469Q153.20709 341.7469 154.14459 341.23126Q155.09772 340.71564 156.23834 340.71564Q157.51959 340.71564 158.39459 341.3719Q159.28522 342.02814 159.62897 343.21564L158.50397 343.48126Q158.20709 342.54376 157.62897 342.1219Q157.06647 341.6844 156.20709 341.6844Q155.22272 341.6844 154.55084 342.16876Q153.89459 342.6375 153.61334 343.4344Q153.34772 344.23126 153.34772 345.09064Q153.34772 346.1844 153.66022 346.9969Q153.98834 347.8094 154.66022 348.21564Q155.33209 348.6219 156.12897 348.6219Q157.08209 348.6219 157.73834 348.075Q158.41022 347.52814 158.64459 346.4344ZM161.45709 349.45L161.45709 340.85626L162.59772 340.85626L162.59772 348.4344L166.83209 348.4344L166.83209 349.45L161.45709 349.45ZM168.70709 349.45L168.70709 340.85626L169.83209 340.85626L169.83209 349.45L168.70709 349.45ZM171.50397 349.45L171.50397 340.85626L174.75397 340.85626Q175.59772 340.85626 176.05084 340.9344Q176.69147 341.04376 177.11334 341.34064Q177.55084 341.6375 177.80084 342.16876Q178.06647 342.7 178.06647 343.34064Q178.06647 344.4344 177.36334 345.2Q176.67584 345.95 174.84772 345.95L172.64459 345.95L172.64459 349.45L171.50397 349.45ZM172.64459 344.95L174.86334 344.95Q175.97272 344.95 176.42584 344.54376Q176.89459 344.1219 176.89459 343.3719Q176.89459 342.84064 176.61334 342.46564Q176.34772 342.075 175.91022 341.95Q175.61334 341.8719 174.84772 341.8719L172.64459 341.8719L172.64459 344.95ZM182.45709 349.45L182.45709 340.85626L185.69147 340.85626Q186.67584 340.85626 187.26959 341.1219Q187.86334 341.3875 188.19147 341.9344Q188.53522 342.46564 188.53522 343.0594Q188.53522 343.60626 188.23834 344.09064Q187.94147 344.575 187.33209 344.8719Q188.11334 345.10626 188.51959 345.66876Q188.94147 346.21564 188.94147 346.96564Q188.94147 347.5594 188.69147 348.09064Q188.44147 348.60626 188.06647 348.8875Q187.69147 349.16876 187.11334 349.3094Q186.55084 349.45 185.73834 349.45L182.45709 349.45ZM183.59772 344.46564L185.45709 344.46564Q186.20709 344.46564 186.53522 344.3719Q186.97272 344.2469 187.19147 343.95Q187.41022 343.6375 187.41022 343.1844Q187.41022 342.7625 187.20709 342.4344Q187.00397 342.10626 186.61334 341.9969Q186.23834 341.8719 185.31647 341.8719L183.59772 341.8719L183.59772 344.46564ZM183.59772 348.4344L185.73834 348.4344Q186.28522 348.4344 186.50397 348.3875Q186.91022 348.325 187.16022 348.16876Q187.42584 347.9969 187.59772 347.6844Q187.76959 347.3719 187.76959 346.96564Q187.76959 346.48126 187.51959 346.1219Q187.28522 345.7625 186.84772 345.6219Q186.41022 345.48126 185.58209 345.48126L183.59772 345.48126L183.59772 348.4344ZM189.58209 349.59064L192.06647 340.71564L192.91022 340.71564L190.42584 349.59064L189.58209 349.59064ZM193.08209 347.1844L194.14459 347.04376Q194.31647 347.9344 194.75397 348.34064Q195.19147 348.73126 195.81647 348.73126Q196.56647 348.73126 197.08209 348.21564Q197.59772 347.7 197.59772 346.9344Q197.59772 346.21564 197.11334 345.7469Q196.64459 345.2625 195.91022 345.2625Q195.61334 345.2625 195.16022 345.3875L195.28522 344.45Q195.39459 344.46564 195.45709 344.46564Q196.12897 344.46564 196.66022 344.1219Q197.20709 343.7625 197.20709 343.02814Q197.20709 342.45 196.81647 342.075Q196.42584 341.6844 195.80084 341.6844Q195.19147 341.6844 194.76959 342.075Q194.36334 342.46564 194.25397 343.23126L193.19147 343.04376Q193.37897 341.9969 194.06647 341.41876Q194.75397 340.825 195.76959 340.825Q196.47272 340.825 197.06647 341.1375Q197.66022 341.4344 197.97272 341.95Q198.28522 342.46564 198.28522 343.0594Q198.28522 343.60626 197.98834 344.075Q197.69147 344.52814 197.11334 344.79376Q197.86334 344.96564 198.28522 345.52814Q198.70709 346.075 198.70709 346.91876Q198.70709 348.04376 197.87897 348.825Q197.06647 349.60626 195.81647 349.60626Q194.69147 349.60626 193.94147 348.9344Q193.19147 348.2469 193.08209 347.1844ZM205.62897 348.4344L205.62897 349.45L199.94147 349.45Q199.94147 349.075 200.06647 348.71564Q200.28522 348.1375 200.75397 347.575Q201.23834 347.0125 202.14459 346.27814Q203.55084 345.1219 204.03522 344.45Q204.53522 343.77814 204.53522 343.1844Q204.53522 342.5594 204.08209 342.1375Q203.62897 341.7 202.91022 341.7Q202.14459 341.7 201.69147 342.15314Q201.23834 342.60626 201.22272 343.41876L200.14459 343.3094Q200.25397 342.09064 200.97272 341.46564Q201.70709 340.825 202.94147 340.825Q204.17584 340.825 204.89459 341.5125Q205.61334 342.2 205.61334 343.21564Q205.61334 343.73126 205.39459 344.23126Q205.19147 344.71564 204.69147 345.27814Q204.20709 345.825 203.08209 346.77814Q202.12897 347.575 201.84772 347.8719Q201.58209 348.15314 201.41022 348.4344L205.62897 348.4344Z" fill-rule="nonzero"/><path fill="#000000" d="M308.5625 346.4344L309.6875 346.73126Q309.32812 348.1219 308.40625 348.85626Q307.48438 349.59064 306.14062 349.59064Q304.75 349.59064 303.875 349.02814Q303.0 348.46564 302.54688 347.40314Q302.09375 346.325 302.09375 345.09064Q302.09375 343.7469 302.60938 342.7469Q303.125 341.7469 304.0625 341.23126Q305.01562 340.71564 306.15625 340.71564Q307.4375 340.71564 308.3125 341.3719Q309.20312 342.02814 309.54688 343.21564L308.42188 343.48126Q308.125 342.54376 307.54688 342.1219Q306.98438 341.6844 306.125 341.6844Q305.14062 341.6844 304.46875 342.16876Q303.8125 342.6375 303.53125 343.4344Q303.26562 344.23126 303.26562 345.09064Q303.26562 346.1844 303.57812 346.9969Q303.90625 347.8094 304.57812 348.21564Q305.25 348.6219 306.04688 348.6219Q307.0 348.6219 307.65625 348.075Q308.32812 347.52814 308.5625 346.4344ZM311.375 349.45L311.375 340.85626L312.51562 340.85626L312.51562 348.4344L316.75 348.4344L316.75 349.45L311.375 349.45ZM318.625 349.45L318.625 340.85626L319.75 340.85626L319.75 349.45L318.625 349.45ZM321.42188 349.45L321.42188 340.85626L324.67188 340.85626Q325.51562 340.85626 325.96875 340.9344Q326.60938 341.04376 327.03125 341.34064Q327.46875 341.6375 327.71875 342.16876Q327.98438 342.7 327.98438 343.34064Q327.98438 344.4344 327.28125 345.2Q326.59375 345.95 324.76562 345.95L322.5625 345.95L322.5625 349.45L321.42188 349.45ZM322.5625 344.95L324.78125 344.95Q325.89062 344.95 326.34375 344.54376Q326.8125 344.1219 326.8125 343.3719Q326.8125 342.84064 326.53125 342.46564Q326.26562 342.075 325.82812 341.95Q325.53125 341.8719 324.76562 341.8719L322.5625 341.8719L322.5625 344.95ZM332.46875 349.45L332.46875 340.85626L333.59375 340.85626L333.59375 344.3875L338.0625 344.3875L338.0625 340.85626L339.20312 340.85626L339.20312 349.45L338.0625 349.45L338.0625 345.40314L333.59375 345.40314L333.59375 349.45L332.46875 349.45ZM340.5 349.59064L342.98438 340.71564L343.82812 340.71564L341.34375 349.59064L340.5 349.59064ZM347.96875 349.45L346.92188 349.45L346.92188 342.73126Q346.53125 343.09064 345.90625 343.46564Q345.29688 343.825 344.8125 343.9969L344.8125 342.98126Q345.6875 342.5594 346.34375 341.98126Q347.01562 341.3875 347.29688 340.825L347.96875 340.825L347.96875 349.45ZM354.375 349.45L354.375 347.3875L350.65625 347.3875L350.65625 346.41876L354.57812 340.85626L355.4375 340.85626L355.4375 346.41876L356.59375 346.41876L356.59375 347.3875L355.4375 347.3875L355.4375 349.45L354.375 349.45ZM354.375 346.41876L354.375 342.5594L351.6875 346.41876L354.375 346.41876Z" fill-rule="nonzero"/><path fill="#000000" d="M459.9804 346.4344L461.1054 346.73126Q460.74603 348.1219 459.82416 348.85626Q458.90228 349.59064 457.55853 349.59064Q456.1679 349.59064 455.2929 349.02814Q454.4179 348.46564 453.96478 347.40314Q453.51166 346.325 453.51166 345.09064Q453.51166 343.7469 454.02728 342.7469Q454.5429 341.7469 455.4804 341.23126Q456.43353 340.71564 457.57416 340.71564Q458.8554 340.71564 459.7304 341.3719Q460.62103 342.02814 460.96478 343.21564L459.83978 343.48126Q459.5429 342.54376 458.96478 342.1219Q458.40228 341.6844 457.5429 341.6844Q456.55853 341.6844 455.88666 342.16876Q455.2304 342.6375 454.94916 343.4344Q454.68353 344.23126 454.68353 345.09064Q454.68353 346.1844 454.99603 346.9969Q455.32416 347.8094 455.99603 348.21564Q456.6679 348.6219 457.46478 348.6219Q458.4179 348.6219 459.07416 348.075Q459.74603 347.52814 459.9804 346.4344ZM462.7929 349.45L462.7929 340.85626L463.93353 340.85626L463.93353 348.4344L468.1679 348.4344L468.1679 349.45L462.7929 349.45ZM470.0429 349.45L470.0429 340.85626L471.1679 340.85626L471.1679 349.45L470.0429 349.45ZM472.83978 349.45L472.83978 340.85626L476.08978 340.85626Q476.93353 340.85626 477.38666 340.9344Q478.02728 341.04376 478.44916 341.34064Q478.88666 341.6375 479.13666 342.16876Q479.40228 342.7 479.40228 343.34064Q479.40228 344.4344 478.69916 345.2Q478.01166 345.95 476.18353 345.95L473.9804 345.95L473.9804 349.45L472.83978 349.45ZM473.9804 344.95L476.19916 344.95Q477.30853 344.95 477.76166 344.54376Q478.2304 344.1219 478.2304 343.3719Q478.2304 342.84064 477.94916 342.46564Q477.68353 342.075 477.24603 341.95Q476.94916 341.8719 476.18353 341.8719L473.9804 341.8719L473.9804 344.95ZM483.51166 349.96564L484.5429 350.1219Q484.6054 350.59064 484.90228 350.8094Q485.2929 351.10626 485.96478 351.10626Q486.69916 351.10626 487.08978 350.8094Q487.49603 350.5125 487.63666 349.9969Q487.7304 349.66876 487.71478 348.6375Q487.02728 349.45 485.99603 349.45Q484.71478 349.45 484.01166 348.52814Q483.30853 347.59064 483.30853 346.3094Q483.30853 345.41876 483.62103 344.66876Q483.94916 343.90314 484.55853 343.4969Q485.1679 343.09064 485.99603 343.09064Q487.1054 343.09064 487.82416 343.98126L487.82416 343.23126L488.7929 343.23126L488.7929 348.60626Q488.7929 350.0594 488.49603 350.66876Q488.19916 351.27814 487.55853 351.6219Q486.9179 351.98126 485.9804 351.98126Q484.87103 351.98126 484.18353 351.48126Q483.49603 350.98126 483.51166 349.96564ZM484.38666 346.23126Q484.38666 347.45 484.87103 348.0125Q485.3554 348.575 486.08978 348.575Q486.82416 348.575 487.30853 348.0125Q487.80853 347.45 487.80853 346.2625Q487.80853 345.1219 487.2929 344.54376Q486.7929 343.96564 486.07416 343.96564Q485.37103 343.96564 484.87103 344.54376Q484.38666 345.10626 484.38666 346.23126ZM489.9179 349.59064L492.40228 340.71564L493.24603 340.71564L490.76166 349.59064L489.9179 349.59064ZM497.38666 349.45L496.33978 349.45L496.33978 342.73126Q495.94916 343.09064 495.32416 343.46564Q494.71478 343.825 494.2304 343.9969L494.2304 342.98126Q495.1054 342.5594 495.76166 341.98126Q496.43353 341.3875 496.71478 340.825L497.38666 340.825L497.38666 349.45ZM503.7929 349.45L503.7929 347.3875L500.07416 347.3875L500.07416 346.41876L503.99603 340.85626L504.8554 340.85626L504.8554 346.41876L506.01166 346.41876L506.01166 347.3875L504.8554 347.3875L504.8554 349.45L503.7929 349.45ZM503.7929 346.41876L503.7929 342.5594L501.1054 346.41876L503.7929 346.41876Z" fill-rule="nonzero"/><path fill="#b6d7a8" d="M216.0 56.916668C216.0 56.364384 216.44771 55.916668 217.0 55.916668L227.0 55.916668C227.55229 55.916668 228.0 56.364384 228.0 56.916668L228.0 66.916664C228.0 67.46895 227.55229 67.916664 227.0 67.916664L217.0 67.916664C216.44771 67.916664 216.0 67.46895 216.0 66.916664Z" fill-rule="nonzero"/><path fill="#1a1a1a" d="M236.875 57.322914L240.03125 57.322914Q241.10938 57.322914 241.67188 57.49479Q242.42188 57.71354 242.95312 58.291664Q243.5 58.854164 243.78125 59.68229Q244.0625 60.49479 244.0625 61.697914Q244.0625 62.760414 243.8125 63.52604Q243.48438 64.46354 242.89062 65.041664Q242.4375 65.49479 241.67188 65.729164Q241.09375 65.916664 240.125 65.916664L236.875 65.916664L236.875 57.322914ZM238.60938 58.77604L238.60938 64.46354L239.89062 64.46354Q240.625 64.46354 240.95312 64.385414Q241.375 64.27604 241.64062 64.02604Q241.92188 63.77604 242.09375 63.197914Q242.28125 62.61979 242.28125 61.61979Q242.28125 60.635414 242.09375 60.104164Q241.92188 59.55729 241.60938 59.260414Q241.29688 58.96354 240.8125 58.854164Q240.4375 58.77604 239.375 58.77604L238.60938 58.77604ZM248.875 62.760414L248.875 61.30729L252.60938 61.30729L252.60938 64.729164Q252.0625 65.260414 251.03125 65.666664Q250.0 66.05729 248.9375 66.05729Q247.59375 66.05729 246.57812 65.49479Q245.57812 64.93229 245.07812 63.885414Q244.57812 62.822914 244.57812 61.58854Q244.57812 60.24479 245.14062 59.21354Q245.70312 58.166664 246.78125 57.604164Q247.60938 57.18229 248.84375 57.18229Q250.4375 57.18229 251.32812 57.854164Q252.23438 58.52604 252.5 59.697914L250.78125 60.02604Q250.59375 59.40104 250.09375 59.041664Q249.59375 58.666664 248.84375 58.666664Q247.70312 58.666664 247.03125 59.385414Q246.35938 60.104164 246.35938 61.52604Q246.35938 63.05729 247.03125 63.822914Q247.71875 64.572914 248.82812 64.572914Q249.375 64.572914 249.92188 64.36979Q250.46875 64.15104 250.85938 63.854164L250.85938 62.760414L248.875 62.760414ZM252.0 65.916664L254.9375 61.43229L252.28125 57.322914L254.29688 57.322914L256.03125 60.08854L257.71875 57.322914L259.71875 57.322914L257.04688 61.49479L259.98438 65.916664L257.89062 65.916664L255.98438 62.947914L254.07812 65.916664L252.0 65.916664ZM271.625 65.916664L269.73438 65.916664L268.98438 63.96354L265.54688 63.96354L264.84375 65.916664L263.0 65.916664L266.34375 57.322914L268.1875 57.322914L271.625 65.916664ZM268.42188 62.510414L267.25 59.322914L266.07812 62.510414L268.42188 62.510414ZM275.71875 65.916664L274.07812 65.916664L274.07812 59.71354Q273.17188 60.55729 271.95312 60.96354L271.95312 59.46354Q272.59375 59.260414 273.34375 58.666664Q274.10938 58.072914 274.39062 57.291664L275.71875 57.291664L275.71875 65.916664ZM281.29688 57.291664Q282.54688 57.291664 283.25 58.18229Q284.07812 59.229164 284.07812 61.68229Q284.07812 64.11979 283.23438 65.18229Q282.54688 66.05729 281.29688 66.05729Q280.04688 66.05729 279.26562 65.104164Q278.5 64.135414 278.5 61.666664Q278.5 59.229164 279.34375 58.166664Q280.04688 57.291664 281.29688 57.291664ZM281.29688 58.65104Q281.0 58.65104 280.76562 58.854164Q280.53125 59.041664 280.39062 59.52604Q280.23438 60.166664 280.23438 61.68229Q280.23438 63.197914 280.375 63.760414Q280.53125 64.322914 280.76562 64.510414Q281.0 64.697914 281.29688 64.697914Q281.59375 64.697914 281.82812 64.510414Q282.0625 64.322914 282.1875 63.822914Q282.35938 63.197914 282.35938 61.68229Q282.35938 60.166664 282.20312 59.604164Q282.0625 59.041664 281.82812 58.854164Q281.59375 58.65104 281.29688 58.65104ZM288.29688 57.291664Q289.54688 57.291664 290.25 58.18229Q291.07812 59.229164 291.07812 61.68229Q291.07812 64.11979 290.23438 65.18229Q289.54688 66.05729 288.29688 66.05729Q287.04688 66.05729 286.26562 65.104164Q285.5 64.135414 285.5 61.666664Q285.5 59.229164 286.34375 58.166664Q287.04688 57.291664 288.29688 57.291664ZM288.29688 58.65104Q288.0 58.65104 287.76562 58.854164Q287.53125 59.041664 287.39062 59.52604Q287.23438 60.166664 287.23438 61.68229Q287.23438 63.197914 287.375 63.760414Q287.53125 64.322914 287.76562 64.510414Q288.0 64.697914 288.29688 64.697914Q288.59375 64.697914 288.82812 64.510414Q289.0625 64.322914 289.1875 63.822914Q289.35938 63.197914 289.35938 61.68229Q289.35938 60.166664 289.20312 59.604164Q289.0625 59.041664 288.82812 58.854164Q288.59375 58.65104 288.29688 58.65104Z" fill-rule="nonzero"/><path fill="#38761d" d="M308.0 56.916668C308.0 56.364384 308.44772 55.916668 309.0 55.916668L319.0 55.916668C319.55228 55.916668 320.0 56.364384 320.0 56.916668L320.0 66.916664C320.0 67.46895 319.55228 67.916664 319.0 67.916664L309.0 67.916664C308.44772 67.916664 308.0 67.46895 308.0 66.916664Z" fill-rule="nonzero"/><path fill="#1a1a1a" d="M328.875 57.322914L332.03125 57.322914Q333.10938 57.322914 333.67188 57.49479Q334.42188 57.71354 334.95312 58.291664Q335.5 58.854164 335.78125 59.68229Q336.0625 60.49479 336.0625 61.697914Q336.0625 62.760414 335.8125 63.52604Q335.48438 64.46354 334.89062 65.041664Q334.4375 65.49479 333.67188 65.729164Q333.09375 65.916664 332.125 65.916664L328.875 65.916664L328.875 57.322914ZM330.60938 58.77604L330.60938 64.46354L331.89062 64.46354Q332.625 64.46354 332.95312 64.385414Q333.375 64.27604 333.64062 64.02604Q333.92188 63.77604 334.09375 63.197914Q334.28125 62.61979 334.28125 61.61979Q334.28125 60.635414 334.09375 60.104164Q333.92188 59.55729 333.60938 59.260414Q333.29688 58.96354 332.8125 58.854164Q332.4375 58.77604 331.375 58.77604L330.60938 58.77604ZM340.875 62.760414L340.875 61.30729L344.60938 61.30729L344.60938 64.729164Q344.0625 65.260414 343.03125 65.666664Q342.0 66.05729 340.9375 66.05729Q339.59375 66.05729 338.57812 65.49479Q337.57812 64.93229 337.07812 63.885414Q336.57812 62.822914 336.57812 61.58854Q336.57812 60.24479 337.14062 59.21354Q337.70312 58.166664 338.78125 57.604164Q339.60938 57.18229 340.84375 57.18229Q342.4375 57.18229 343.32812 57.854164Q344.23438 58.52604 344.5 59.697914L342.78125 60.02604Q342.59375 59.40104 342.09375 59.041664Q341.59375 58.666664 340.84375 58.666664Q339.70312 58.666664 339.03125 59.385414Q338.35938 60.104164 338.35938 61.52604Q338.35938 63.05729 339.03125 63.822914Q339.71875 64.572914 340.82812 64.572914Q341.375 64.572914 341.92188 64.36979Q342.46875 64.15104 342.85938 63.854164L342.85938 62.760414L340.875 62.760414ZM344.0 65.916664L346.9375 61.43229L344.28125 57.322914L346.29688 57.322914L348.03125 60.08854L349.71875 57.322914L351.71875 57.322914L349.04688 61.49479L351.98438 65.916664L349.89062 65.916664L347.98438 62.947914L346.07812 65.916664L344.0 65.916664ZM355.875 65.916664L355.875 57.322914L357.60938 57.322914L357.60938 60.71354L361.01562 60.71354L361.01562 57.322914L362.75 57.322914L362.75 65.916664L361.01562 65.916664L361.01562 62.166664L357.60938 62.166664L357.60938 65.916664L355.875 65.916664ZM367.71875 65.916664L366.07812 65.916664L366.07812 59.71354Q365.17188 60.55729 363.95312 60.96354L363.95312 59.46354Q364.59375 59.260414 365.34375 58.666664Q366.10938 58.072914 366.39062 57.291664L367.71875 57.291664L367.71875 65.916664ZM373.29688 57.291664Q374.54688 57.291664 375.25 58.18229Q376.07812 59.229164 376.07812 61.68229Q376.07812 64.11979 375.23438 65.18229Q374.54688 66.05729 373.29688 66.05729Q372.04688 66.05729 371.26562 65.104164Q370.5 64.135414 370.5 61.666664Q370.5 59.229164 371.34375 58.166664Q372.04688 57.291664 373.29688 57.291664ZM373.29688 58.65104Q373.0 58.65104 372.76562 58.854164Q372.53125 59.041664 372.39062 59.52604Q372.23438 60.166664 372.23438 61.68229Q372.23438 63.197914 372.375 63.760414Q372.53125 64.322914 372.76562 64.510414Q373.0 64.697914 373.29688 64.697914Q373.59375 64.697914 373.82812 64.510414Q374.0625 64.322914 374.1875 63.822914Q374.35938 63.197914 374.35938 61.68229Q374.35938 60.166664 374.20312 59.604164Q374.0625 59.041664 373.82812 58.854164Q373.59375 58.65104 373.29688 58.65104ZM380.29688 57.291664Q381.54688 57.291664 382.25 58.18229Q383.07812 59.229164 383.07812 61.68229Q383.07812 64.11979 382.23438 65.18229Q381.54688 66.05729 380.29688 66.05729Q379.04688 66.05729 378.26562 65.104164Q377.5 64.135414 377.5 61.666664Q377.5 59.229164 378.34375 58.166664Q379.04688 57.291664 380.29688 57.291664ZM380.29688 58.65104Q380.0 58.65104 379.76562 58.854164Q379.53125 59.041664 379.39062 59.52604Q379.23438 60.166664 379.23438 61.68229Q379.23438 63.197914 379.375 63.760414Q379.53125 64.322914 379.76562 64.510414Q380.0 64.697914 380.29688 64.697914Q380.59375 64.697914 380.82812 64.510414Q381.0625 64.322914 381.1875 63.822914Q381.35938 63.197914 381.35938 61.68229Q381.35938 60.166664 381.20312 59.604164Q381.0625 59.041664 380.82812 58.854164Q380.59375 58.65104 380.29688 58.65104Z" fill-rule="nonzero"/><path fill="#757575" d="M144.76562 32.534374L146.65625 33.003124Q146.0625 35.346874 144.51562 36.58125Q142.96875 37.8 140.71875 37.8Q138.40625 37.8 136.95312 36.8625Q135.51562 35.909374 134.75 34.128124Q134.0 32.33125 134.0 30.284374Q134.0 28.05 134.84375 26.39375Q135.70312 24.721874 137.28125 23.8625Q138.85938 22.9875 140.75 22.9875Q142.90625 22.9875 144.35938 24.08125Q145.82812 25.175 146.40625 27.159374L144.54688 27.596874Q144.04688 26.034374 143.09375 25.33125Q142.15625 24.6125 140.71875 24.6125Q139.0625 24.6125 137.95312 25.409374Q136.84375 26.190624 136.39062 27.534374Q135.95312 28.8625 135.95312 30.26875Q135.95312 32.096874 136.48438 33.471874Q137.01562 34.83125 138.14062 35.503124Q139.26562 36.175 140.5625 36.175Q142.15625 36.175 143.26562 35.253124Q144.375 34.33125 144.76562 32.534374ZM148.46875 37.55L148.46875 23.2375L150.35938 23.2375L150.35938 35.8625L157.40625 35.8625L157.40625 37.55L148.46875 37.55ZM159.85938 37.55L159.85938 23.2375L161.76562 23.2375L161.76562 37.55L159.85938 37.55ZM165.54688 37.55L165.54688 23.2375L170.9375 23.2375Q172.375 23.2375 173.125 23.3625Q174.17188 23.55 174.89062 24.05Q175.60938 24.534374 176.03125 25.425Q176.46875 26.315624 176.46875 27.378124Q176.46875 29.20625 175.29688 30.471874Q174.14062 31.721874 171.10938 31.721874L167.4375 31.721874L167.4375 37.55L165.54688 37.55ZM167.4375 30.034374L171.14062 30.034374Q172.96875 30.034374 173.73438 29.3625Q174.51562 28.675 174.51562 27.425Q174.51562 26.534374 174.0625 25.89375Q173.60938 25.253124 172.875 25.05Q172.39062 24.925 171.09375 24.925L167.4375 24.925L167.4375 30.034374ZM188.1875 37.55L188.1875 24.925L183.46875 24.925L183.46875 23.2375L194.8125 23.2375L194.8125 24.925L190.07812 24.925L190.07812 37.55L188.1875 37.55ZM196.29688 37.55L196.29688 27.175L197.875 27.175L197.875 28.753124Q198.48438 27.64375 199.0 27.3Q199.51562 26.940624 200.125 26.940624Q201.01562 26.940624 201.9375 27.503124L201.32812 29.14375Q200.6875 28.753124 200.04688 28.753124Q199.46875 28.753124 199.0 29.1125Q198.54688 29.45625 198.34375 30.065624Q198.0625 31.003124 198.0625 32.1125L198.0625 37.55L196.29688 37.55ZM210.09375 36.26875Q209.10938 37.096874 208.20312 37.440624Q207.29688 37.784374 206.26562 37.784374Q204.5625 37.784374 203.64062 36.95625Q202.71875 36.1125 202.71875 34.815624Q202.71875 34.05 203.0625 33.425Q203.42188 32.8 203.98438 32.425Q204.54688 32.034374 205.25 31.83125Q205.76562 31.70625 206.8125 31.565624Q208.9375 31.315624 209.9375 30.971874Q209.95312 30.6125 209.95312 30.503124Q209.95312 29.440624 209.45312 28.9875Q208.78125 28.39375 207.45312 28.39375Q206.20312 28.39375 205.60938 28.83125Q205.03125 29.26875 204.75 30.378124L203.03125 30.14375Q203.26562 29.034374 203.79688 28.3625Q204.32812 27.675 205.34375 27.315624Q206.35938 26.940624 207.70312 26.940624Q209.03125 26.940624 209.85938 27.253124Q210.6875 27.565624 211.07812 28.05Q211.46875 28.51875 211.625 29.2375Q211.71875 29.690624 211.71875 30.8625L211.71875 33.20625Q211.71875 35.659374 211.82812 36.315624Q211.9375 36.95625 212.28125 37.55L210.4375 37.55Q210.17188 37.003124 210.09375 36.26875ZM209.9375 32.346874Q208.98438 32.7375 207.0625 33.003124Q205.98438 33.159374 205.53125 33.3625Q205.09375 33.55 204.84375 33.925Q204.59375 34.3 204.59375 34.76875Q204.59375 35.471874 205.125 35.940624Q205.65625 36.409374 206.6875 36.409374Q207.70312 36.409374 208.48438 35.971874Q209.28125 35.51875 209.65625 34.753124Q209.9375 34.14375 209.9375 32.9875L209.9375 32.346874ZM214.32812 25.253124L214.32812 23.2375L216.09375 23.2375L216.09375 25.253124L214.32812 25.253124ZM214.32812 37.55L214.32812 27.175L216.09375 27.175L216.09375 37.55L214.32812 37.55ZM218.3125 37.55L218.3125 27.175L219.90625 27.175L219.90625 28.659374Q221.04688 26.940624 223.20312 26.940624Q224.14062 26.940624 224.92188 27.284374Q225.71875 27.6125 226.10938 28.159374Q226.5 28.70625 226.65625 29.45625Q226.75 29.95625 226.75 31.175L226.75 37.55L224.98438 37.55L224.98438 31.2375Q224.98438 30.159374 224.78125 29.628124Q224.57812 29.096874 224.04688 28.784374Q223.53125 28.471874 222.82812 28.471874Q221.70312 28.471874 220.89062 29.190624Q220.07812 29.89375 220.07812 31.878124L220.07812 37.55L218.3125 37.55ZM228.32812 25.253124L228.32812 23.2375L230.09375 23.2375L230.09375 25.253124L228.32812 25.253124ZM228.32812 37.55L228.32812 27.175L230.09375 27.175L230.09375 37.55L228.32812 37.55ZM232.3125 37.55L232.3125 27.175L233.90625 27.175L233.90625 28.659374Q235.04688 26.940624 237.20312 26.940624Q238.14062 26.940624 238.92188 27.284374Q239.71875 27.6125 240.10938 28.159374Q240.5 28.70625 240.65625 29.45625Q240.75 29.95625 240.75 31.175L240.75 37.55L238.98438 37.55L238.98438 31.2375Q238.98438 30.159374 238.78125 29.628124Q238.57812 29.096874 238.04688 28.784374Q237.53125 28.471874 236.82812 28.471874Q235.70312 28.471874 234.89062 29.190624Q234.07812 29.89375 234.07812 31.878124L234.07812 37.55L232.3125 37.55ZM242.0 38.409374L243.70312 38.659374Q243.8125 39.45625 244.29688 39.815624Q244.95312 40.3 246.09375 40.3Q247.3125 40.3 247.96875 39.815624Q248.64062 39.33125 248.875 38.45625Q249.01562 37.909374 249.0 36.190624Q247.84375 37.55 246.125 37.55Q243.98438 37.55 242.8125 36.003124Q241.64062 34.45625 241.64062 32.3Q241.64062 30.815624 242.17188 29.565624Q242.71875 28.315624 243.73438 27.628124Q244.76562 26.940624 246.14062 26.940624Q247.96875 26.940624 249.17188 28.425L249.17188 27.175L250.78125 27.175L250.78125 36.14375Q250.78125 38.565624 250.28125 39.565624Q249.79688 40.58125 248.71875 41.159374Q247.65625 41.753124 246.09375 41.753124Q244.25 41.753124 243.09375 40.925Q241.95312 40.096874 242.0 38.409374ZM243.45312 32.175Q243.45312 34.221874 244.26562 35.159374Q245.07812 36.096874 246.29688 36.096874Q247.5 36.096874 248.3125 35.159374Q249.14062 34.221874 249.14062 32.2375Q249.14062 30.33125 248.29688 29.3625Q247.45312 28.39375 246.26562 28.39375Q245.09375 28.39375 244.26562 29.346874Q243.45312 30.3 243.45312 32.175ZM263.1875 37.55L263.1875 24.925L258.46875 24.925L258.46875 23.2375L269.8125 23.2375L269.8125 24.925L265.07812 24.925L265.07812 37.55L263.1875 37.55ZM271.3125 37.55L271.3125 23.2375L273.07812 23.2375L273.07812 28.3625Q274.3125 26.940624 276.1875 26.940624Q277.32812 26.940624 278.17188 27.39375Q279.03125 27.846874 279.39062 28.659374Q279.76562 29.45625 279.76562 30.971874L279.76562 37.55L278.01562 37.55L278.01562 30.971874Q278.01562 29.659374 277.4375 29.065624Q276.85938 28.45625 275.82812 28.45625Q275.04688 28.45625 274.34375 28.8625Q273.65625 29.26875 273.35938 29.971874Q273.07812 30.659374 273.07812 31.878124L273.07812 37.55L271.3125 37.55ZM281.29688 37.55L281.29688 27.175L282.875 27.175L282.875 28.753124Q283.48438 27.64375 284.0 27.3Q284.51562 26.940624 285.125 26.940624Q286.01562 26.940624 286.9375 27.503124L286.32812 29.14375Q285.6875 28.753124 285.04688 28.753124Q284.46875 28.753124 284.0 29.1125Q283.54688 29.45625 283.34375 30.065624Q283.0625 31.003124 283.0625 32.1125L283.0625 37.55L281.29688 37.55ZM287.67188 32.3625Q287.67188 29.4875 289.26562 28.096874Q290.60938 26.940624 292.53125 26.940624Q294.67188 26.940624 296.01562 28.346874Q297.375 29.753124 297.375 32.221874Q297.375 34.221874 296.78125 35.378124Q296.1875 36.51875 295.03125 37.159374Q293.89062 37.784374 292.53125 37.784374Q290.34375 37.784374 289.0 36.39375Q287.67188 34.9875 287.67188 32.3625ZM289.46875 32.3625Q289.46875 34.3625 290.32812 35.346874Q291.20312 36.33125 292.53125 36.33125Q293.84375 36.33125 294.70312 35.346874Q295.57812 34.346874 295.57812 32.3Q295.57812 30.378124 294.70312 29.39375Q293.82812 28.39375 292.53125 28.39375Q291.20312 28.39375 290.32812 29.39375Q289.46875 30.378124 289.46875 32.3625ZM306.10938 37.55L306.10938 36.01875Q304.90625 37.784374 302.82812 37.784374Q301.90625 37.784374 301.10938 37.440624Q300.3125 37.08125 299.92188 36.55Q299.54688 36.01875 299.39062 35.2375Q299.28125 34.721874 299.28125 33.596874L299.28125 27.175L301.03125 27.175L301.03125 32.925Q301.03125 34.3 301.14062 34.784374Q301.3125 35.471874 301.84375 35.878124Q302.39062 36.26875 303.17188 36.26875Q303.96875 36.26875 304.65625 35.8625Q305.35938 35.45625 305.64062 34.76875Q305.9375 34.065624 305.9375 32.7375L305.9375 27.175L307.6875 27.175L307.6875 37.55L306.10938 37.55ZM309.0 38.409374L310.70312 38.659374Q310.8125 39.45625 311.29688 39.815624Q311.95312 40.3 313.09375 40.3Q314.3125 40.3 314.96875 39.815624Q315.64062 39.33125 315.875 38.45625Q316.01562 37.909374 316.0 36.190624Q314.84375 37.55 313.125 37.55Q310.98438 37.55 309.8125 36.003124Q308.64062 34.45625 308.64062 32.3Q308.64062 30.815624 309.17188 29.565624Q309.71875 28.315624 310.73438 27.628124Q311.76562 26.940624 313.14062 26.940624Q314.96875 26.940624 316.17188 28.425L316.17188 27.175L317.78125 27.175L317.78125 36.14375Q317.78125 38.565624 317.28125 39.565624Q316.79688 40.58125 315.71875 41.159374Q314.65625 41.753124 313.09375 41.753124Q311.25 41.753124 310.09375 40.925Q308.95312 40.096874 309.0 38.409374ZM310.45312 32.175Q310.45312 34.221874 311.26562 35.159374Q312.07812 36.096874 313.29688 36.096874Q314.5 36.096874 315.3125 35.159374Q316.14062 34.221874 316.14062 32.2375Q316.14062 30.33125 315.29688 29.3625Q314.45312 28.39375 313.26562 28.39375Q312.09375 28.39375 311.26562 29.346874Q310.45312 30.3 310.45312 32.175ZM320.3125 37.55L320.3125 23.2375L322.07812 23.2375L322.07812 28.3625Q323.3125 26.940624 325.1875 26.940624Q326.32812 26.940624 327.17188 27.39375Q328.03125 27.846874 328.39062 28.659374Q328.76562 29.45625 328.76562 30.971874L328.76562 37.55L327.01562 37.55L327.01562 30.971874Q327.01562 29.659374 326.4375 29.065624Q325.85938 28.45625 324.82812 28.45625Q324.04688 28.45625 323.34375 28.8625Q322.65625 29.26875 322.35938 29.971874Q322.07812 30.659374 322.07812 31.878124L322.07812 37.55L320.3125 37.55ZM330.3125 41.51875L330.3125 27.175L331.92188 27.175L331.92188 28.51875Q332.48438 27.7375 333.1875 27.346874Q333.90625 26.940624 334.92188 26.940624Q336.25 26.940624 337.26562 27.628124Q338.28125 28.315624 338.79688 29.565624Q339.32812 30.8 339.32812 32.284374Q339.32812 33.878124 338.75 35.159374Q338.1875 36.425 337.09375 37.1125Q336.0 37.784374 334.79688 37.784374Q333.92188 37.784374 333.21875 37.409374Q332.53125 37.034374 332.07812 36.471874L332.07812 41.51875L330.3125 41.51875ZM331.90625 32.425Q331.90625 34.425 332.71875 35.378124Q333.53125 36.33125 334.6875 36.33125Q335.85938 36.33125 336.6875 35.346874Q337.53125 34.3625 337.53125 32.26875Q337.53125 30.3 336.70312 29.315624Q335.89062 28.315624 334.76562 28.315624Q333.64062 28.315624 332.76562 29.378124Q331.90625 30.425 331.90625 32.425ZM348.10938 37.55L348.10938 36.01875Q346.90625 37.784374 344.82812 37.784374Q343.90625 37.784374 343.10938 37.440624Q342.3125 37.08125 341.92188 36.55Q341.54688 36.01875 341.39062 35.2375Q341.28125 34.721874 341.28125 33.596874L341.28125 27.175L343.03125 27.175L343.03125 32.925Q343.03125 34.3 343.14062 34.784374Q343.3125 35.471874 343.84375 35.878124Q344.39062 36.26875 345.17188 36.26875Q345.96875 36.26875 346.65625 35.8625Q347.35938 35.45625 347.64062 34.76875Q347.9375 34.065624 347.9375 32.7375L347.9375 27.175L349.6875 27.175L349.6875 37.55L348.10938 37.55ZM355.15625 35.971874L355.40625 37.534374Q354.67188 37.690624 354.07812 37.690624Q353.125 37.690624 352.59375 37.39375Q352.07812 37.08125 351.85938 36.596874Q351.64062 36.096874 351.64062 34.51875L351.64062 28.55L350.35938 28.55L350.35938 27.175L351.64062 27.175L351.64062 24.6125L353.39062 23.55L353.39062 27.175L355.15625 27.175L355.15625 28.55L353.39062 28.55L353.39062 34.6125Q353.39062 35.3625 353.48438 35.58125Q353.57812 35.784374 353.78125 35.925Q354.0 36.05 354.39062 36.05Q354.67188 36.05 355.15625 35.971874ZM373.76562 32.534374L375.65625 33.003124Q375.0625 35.346874 373.51562 36.58125Q371.96875 37.8 369.71875 37.8Q367.40625 37.8 365.95312 36.8625Q364.51562 35.909374 363.75 34.128124Q363.0 32.33125 363.0 30.284374Q363.0 28.05 363.84375 26.39375Q364.70312 24.721874 366.28125 23.8625Q367.85938 22.9875 369.75 22.9875Q371.90625 22.9875 373.35938 24.08125Q374.82812 25.175 375.40625 27.159374L373.54688 27.596874Q373.04688 26.034374 372.09375 25.33125Q371.15625 24.6125 369.71875 24.6125Q368.0625 24.6125 366.95312 25.409374Q365.84375 26.190624 365.39062 27.534374Q364.95312 28.8625 364.95312 30.26875Q364.95312 32.096874 365.48438 33.471874Q366.01562 34.83125 367.14062 35.503124Q368.26562 36.175 369.5625 36.175Q371.15625 36.175 372.26562 35.253124Q373.375 34.33125 373.76562 32.534374ZM376.67188 32.3625Q376.67188 29.4875 378.26562 28.096874Q379.60938 26.940624 381.53125 26.940624Q383.67188 26.940624 385.01562 28.346874Q386.375 29.753124 386.375 32.221874Q386.375 34.221874 385.78125 35.378124Q385.1875 36.51875 384.03125 37.159374Q382.89062 37.784374 381.53125 37.784374Q379.34375 37.784374 378.0 36.39375Q376.67188 34.9875 376.67188 32.3625ZM378.46875 32.3625Q378.46875 34.3625 379.32812 35.346874Q380.20312 36.33125 381.53125 36.33125Q382.84375 36.33125 383.70312 35.346874Q384.57812 34.346874 384.57812 32.3Q384.57812 30.378124 383.70312 29.39375Q382.82812 28.39375 381.53125 28.39375Q380.20312 28.39375 379.32812 29.39375Q378.46875 30.378124 378.46875 32.3625ZM388.3125 37.55L388.3125 27.175L389.89062 27.175L389.89062 28.628124Q390.375 27.878124 391.1875 27.409374Q392.0 26.940624 393.03125 26.940624Q394.1875 26.940624 394.92188 27.425Q395.65625 27.89375 395.96875 28.753124Q397.20312 26.940624 399.17188 26.940624Q400.71875 26.940624 401.54688 27.8Q402.375 28.659374 402.375 30.425L402.375 37.55L400.625 37.55L400.625 31.01875Q400.625 29.95625 400.45312 29.503124Q400.28125 29.034374 399.82812 28.753124Q399.39062 28.471874 398.78125 28.471874Q397.6875 28.471874 396.95312 29.20625Q396.23438 29.925 396.23438 31.51875L396.23438 37.55L394.48438 37.55L394.48438 30.815624Q394.48438 29.64375 394.04688 29.065624Q393.625 28.471874 392.64062 28.471874Q391.90625 28.471874 391.26562 28.8625Q390.64062 29.253124 390.35938 30.003124Q390.07812 30.753124 390.07812 32.175L390.07812 37.55L388.3125 37.55ZM404.3125 41.51875L404.3125 27.175L405.92188 27.175L405.92188 28.51875Q406.48438 27.7375 407.1875 27.346874Q407.90625 26.940624 408.92188 26.940624Q410.25 26.940624 411.26562 27.628124Q412.28125 28.315624 412.79688 29.565624Q413.32812 30.8 413.32812 32.284374Q413.32812 33.878124 412.75 35.159374Q412.1875 36.425 411.09375 37.1125Q410.0 37.784374 408.79688 37.784374Q407.92188 37.784374 407.21875 37.409374Q406.53125 37.034374 406.07812 36.471874L406.07812 41.51875L404.3125 41.51875ZM405.90625 32.425Q405.90625 34.425 406.71875 35.378124Q407.53125 36.33125 408.6875 36.33125Q409.85938 36.33125 410.6875 35.346874Q411.53125 34.3625 411.53125 32.26875Q411.53125 30.3 410.70312 29.315624Q409.89062 28.315624 408.76562 28.315624Q407.64062 28.315624 406.76562 29.378124Q405.90625 30.425 405.90625 32.425ZM422.09375 36.26875Q421.10938 37.096874 420.20312 37.440624Q419.29688 37.784374 418.26562 37.784374Q416.5625 37.784374 415.64062 36.95625Q414.71875 36.1125 414.71875 34.815624Q414.71875 34.05 415.0625 33.425Q415.42188 32.8 415.98438 32.425Q416.54688 32.034374 417.25 31.83125Q417.76562 31.70625 418.8125 31.565624Q420.9375 31.315624 421.9375 30.971874Q421.95312 30.6125 421.95312 30.503124Q421.95312 29.440624 421.45312 28.9875Q420.78125 28.39375 419.45312 28.39375Q418.20312 28.39375 417.60938 28.83125Q417.03125 29.26875 416.75 30.378124L415.03125 30.14375Q415.26562 29.034374 415.79688 28.3625Q416.32812 27.675 417.34375 27.315624Q418.35938 26.940624 419.70312 26.940624Q421.03125 26.940624 421.85938 27.253124Q422.6875 27.565624 423.07812 28.05Q423.46875 28.51875 423.625 29.2375Q423.71875 29.690624 423.71875 30.8625L423.71875 33.20625Q423.71875 35.659374 423.82812 36.315624Q423.9375 36.95625 424.28125 37.55L422.4375 37.55Q422.17188 37.003124 422.09375 36.26875ZM421.9375 32.346874Q420.98438 32.7375 419.0625 33.003124Q417.98438 33.159374 417.53125 33.3625Q417.09375 33.55 416.84375 33.925Q416.59375 34.3 416.59375 34.76875Q416.59375 35.471874 417.125 35.940624Q417.65625 36.409374 418.6875 36.409374Q419.70312 36.409374 420.48438 35.971874Q421.28125 35.51875 421.65625 34.753124Q421.9375 34.14375 421.9375 32.9875L421.9375 32.346874ZM426.29688 37.55L426.29688 27.175L427.875 27.175L427.875 28.753124Q428.48438 27.64375 429.0 27.3Q429.51562 26.940624 430.125 26.940624Q431.01562 26.940624 431.9375 27.503124L431.32812 29.14375Q430.6875 28.753124 430.04688 28.753124Q429.46875 28.753124 429.0 29.1125Q428.54688 29.45625 428.34375 30.065624Q428.0625 31.003124 428.0625 32.1125L428.0625 37.55L426.29688 37.55ZM433.32812 25.253124L433.32812 23.2375L435.09375 23.2375L435.09375 25.253124L433.32812 25.253124ZM433.32812 37.55L433.32812 27.175L435.09375 27.175L435.09375 37.55L433.32812 37.55ZM436.60938 34.45625L438.35938 34.175Q438.5 35.221874 439.17188 35.784374Q439.84375 36.33125 441.04688 36.33125Q442.25 36.33125 442.82812 35.846874Q443.42188 35.346874 443.42188 34.690624Q443.42188 34.096874 442.90625 33.753124Q442.54688 33.51875 441.10938 33.159374Q439.17188 32.659374 438.42188 32.315624Q437.6875 31.95625 437.29688 31.33125Q436.90625 30.690624 436.90625 29.925Q436.90625 29.2375 437.21875 28.64375Q437.54688 28.05 438.09375 27.659374Q438.5 27.3625 439.20312 27.159374Q439.92188 26.940624 440.73438 26.940624Q441.95312 26.940624 442.875 27.3Q443.79688 27.64375 444.23438 28.253124Q444.67188 28.846874 444.84375 29.846874L443.125 30.08125Q443.0 29.284374 442.4375 28.846874Q441.875 28.39375 440.85938 28.39375Q439.64062 28.39375 439.125 28.8Q438.60938 29.190624 438.60938 29.721874Q438.60938 30.065624 438.82812 30.346874Q439.03125 30.628124 439.5 30.815624Q439.76562 30.909374 441.04688 31.253124Q442.92188 31.753124 443.65625 32.08125Q444.39062 32.39375 444.8125 33.003124Q445.23438 33.596874 445.23438 34.503124Q445.23438 35.378124 444.71875 36.159374Q444.20312 36.940624 443.23438 37.3625Q442.26562 37.784374 441.04688 37.784374Q439.03125 37.784374 437.96875 36.940624Q436.90625 36.096874 436.60938 34.45625ZM446.67188 32.3625Q446.67188 29.4875 448.26562 28.096874Q449.60938 26.940624 451.53125 26.940624Q453.67188 26.940624 455.01562 28.346874Q456.375 29.753124 456.375 32.221874Q456.375 34.221874 455.78125 35.378124Q455.1875 36.51875 454.03125 37.159374Q452.89062 37.784374 451.53125 37.784374Q449.34375 37.784374 448.0 36.39375Q446.67188 34.9875 446.67188 32.3625ZM448.46875 32.3625Q448.46875 34.3625 449.32812 35.346874Q450.20312 36.33125 451.53125 36.33125Q452.84375 36.33125 453.70312 35.346874Q454.57812 34.346874 454.57812 32.3Q454.57812 30.378124 453.70312 29.39375Q452.82812 28.39375 451.53125 28.39375Q450.20312 28.39375 449.32812 29.39375Q448.46875 30.378124 448.46875 32.3625ZM458.3125 37.55L458.3125 27.175L459.90625 27.175L459.90625 28.659374Q461.04688 26.940624 463.20312 26.940624Q464.14062 26.940624 464.92188 27.284374Q465.71875 27.6125 466.10938 28.159374Q466.5 28.70625 466.65625 29.45625Q466.75 29.95625 466.75 31.175L466.75 37.55L464.98438 37.55L464.98438 31.2375Q464.98438 30.159374 464.78125 29.628124Q464.57812 29.096874 464.04688 28.784374Q463.53125 28.471874 462.82812 28.471874Q461.70312 28.471874 460.89062 29.190624Q460.07812 29.89375 460.07812 31.878124L460.07812 37.55L458.3125 37.55Z" fill-rule="nonzero"/></svg>