<svg version="1.1" viewBox="0.0 0.0 600.0 371.0" fill="none" stroke="none" stroke-linecap="square" stroke-miterlimit="10" width="600" height="371" xmlns:xlink="http://www.w3.org/1999/xlink" xmlns="http://www.w3.org/2000/svg"><path fill="#ffffff" d="M0 0L600.0 0L600.0 371.0L0 371.0L0 0Z" fill-rule="nonzero"/><path stroke="#333333" stroke-width="1.0" stroke-linecap="butt" d="M77.5 332.5L581.5 332.5" fill-rule="nonzero"/><path stroke="#cccccc" stroke-width="1.0" stroke-linecap="butt" d="M77.5 271.5L581.5 271.5" fill-rule="nonzero"/><path stroke="#cccccc" stroke-width="1.0" stroke-linecap="butt" d="M77.5 210.5L581.5 210.5" fill-rule="nonzero"/><path stroke="#cccccc" stroke-width="1.0" stroke-linecap="butt" d="M77.5 149.5L581.5 149.5" fill-rule="nonzero"/><path stroke="#cccccc" stroke-width="1.0" stroke-linecap="butt" d="M77.5 88.5L581.5 88.5" fill-rule="nonzero"/><path stroke="#000000" stroke-width="1.0" stroke-linecap="butt" d="M77.5 332.5L77.5 88.5" fill-rule="nonzero"/><clipPath id="id_0"><path d="M77.55 88.28333L581.45 88.28333L581.45 332.45L77.55 332.45L77.55 88.28333Z" clip-rule="nonzero"/></clipPath><path stroke="#000000" stroke-width="2.0" stroke-linecap="butt" stroke-opacity="0.0" clip-path="url(#id_0)" d="M178.0 332.0L131.0 332.0L131.0 243.0C131.0 241.89543 131.89543 241.0 133.0 241.0L176.0 241.0C177.10457 241.0 178.0 241.89543 178.0 243.0Z" fill-rule="nonzero"/><path fill="#b6d7a8" clip-path="url(#id_0)" d="M178.0 332.0L131.0 332.0L131.0 243.0C131.0 241.89543 131.89543 241.0 133.0 241.0L176.0 241.0C177.10457 241.0 178.0 241.89543 178.0 243.0Z" fill-rule="nonzero"/><path stroke="#000000" stroke-width="2.0" stroke-linecap="butt" stroke-opacity="0.0" clip-path="url(#id_0)" d="M329.0 332.0L282.0 332.0L282.0 307.0C282.0 305.89542 282.89542 305.0 284.0 305.0L327.0 305.0C328.10458 305.0 329.0 305.89542 329.0 307.0Z" fill-rule="nonzero"/><path fill="#b6d7a8" clip-path="url(#id_0)" d="M329.0 332.0L282.0 332.0L282.0 307.0C282.0 305.89542 282.89542 305.0 284.0 305.0L327.0 305.0C328.10458 305.0 329.0 305.89542 329.0 307.0Z" fill-rule="nonzero"/><path stroke="#000000" stroke-width="2.0" stroke-linecap="butt" stroke-opacity="0.0" clip-path="url(#id_0)" d="M479.0 332.0L432.0 332.0L432.0 307.0C432.0 305.89542 432.89542 305.0 434.0 305.0L477.0 305.0C478.10458 305.0 479.0 305.89542 479.0 307.0Z" fill-rule="nonzero"/><path fill="#b6d7a8" clip-path="url(#id_0)" d="M479.0 332.0L432.0 332.0L432.0 307.0C432.0 305.89542 432.89542 305.0 434.0 305.0L477.0 305.0C478.10458 305.0 479.0 305.89542 479.0 307.0Z" fill-rule="nonzero"/><path stroke="#000000" stroke-width="2.0" stroke-linecap="butt" stroke-opacity="0.0" clip-path="url(#id_0)" d="M227.0 332.0L180.0 332.0L180.0 130.0C180.0 128.89543 180.89543 128.0 182.0 128.0L225.0 128.0C226.10457 128.0 227.0 128.89543 227.0 130.0Z" fill-rule="nonzero"/><path fill="#38761d" clip-path="url(#id_0)" d="M227.0 332.0L180.0 332.0L180.0 130.0C180.0 128.89543 180.89543 128.0 182.0 128.0L225.0 128.0C226.10457 128.0 227.0 128.89543 227.0 130.0Z" fill-rule="nonzero"/><path stroke="#000000" stroke-width="2.0" stroke-linecap="butt" stroke-opacity="0.0" clip-path="url(#id_0)" d="M378.0 332.0L331.0 332.0L331.0 276.0C331.0 274.89542 331.89542 274.0 333.0 274.0L376.0 274.0C377.10458 274.0 378.0 274.89542 378.0 276.0Z" fill-rule="nonzero"/><path fill="#38761d" clip-path="url(#id_0)" d="M378.0 332.0L331.0 332.0L331.0 276.0C331.0 274.89542 331.89542 274.0 333.0 274.0L376.0 274.0C377.10458 274.0 378.0 274.89542 378.0 276.0Z" fill-rule="nonzero"/><path stroke="#000000" stroke-width="2.0" stroke-linecap="butt" stroke-opacity="0.0" clip-path="url(#id_0)" d="M528.0 332.0L481.0 332.0L481.0 266.0C481.0 264.89542 481.89542 264.0 483.0 264.0L526.0 264.0C527.10455 264.0 528.0 264.89542 528.0 266.0Z" fill-rule="nonzero"/><path fill="#38761d" clip-path="url(#id_0)" d="M528.0 332.0L481.0 332.0L481.0 266.0C481.0 264.89542 481.89542 264.0 483.0 264.0L526.0 264.0C527.10455 264.0 528.0 264.89542 528.0 266.0Z" fill-rule="nonzero"/><path stroke="#b6d7a8" stroke-width="3.0" stroke-linejoin="round" stroke-linecap="round" d="M144.78125 252.5229L145.59375 252.5229Q146.375 252.50728 146.8125 252.11665Q147.25 251.72603 147.25 251.05415Q147.25 249.55415 145.75 249.55415Q145.04688 249.55415 144.625 249.9604Q144.21875 250.36665 144.21875 251.0229L143.125 251.0229Q143.125 250.00728 143.85938 249.3354Q144.60938 248.66353 145.75 248.66353Q146.95312 248.66353 147.64062 249.30415Q148.32812 249.94478 148.32812 251.0854Q148.32812 251.6479 147.96875 252.16353Q147.60938 252.67915 146.98438 252.94478Q147.6875 253.16353 148.0625 253.67915Q148.45312 254.19478 148.45312 254.94478Q148.45312 256.08542 147.70312 256.77292Q146.95312 257.4448 145.75 257.4448Q144.5625 257.4448 143.79688 256.78854Q143.04688 256.1323 143.04688 255.06978L144.14062 255.06978Q144.14062 255.74165 144.57812 256.14792Q145.01562 256.55417 145.76562 256.55417Q146.54688 256.55417 146.95312 256.14792Q147.375 255.72603 147.375 254.9604Q147.375 254.22603 146.92188 253.8354Q146.46875 253.42915 145.59375 253.41353L144.78125 253.41353L144.78125 252.5229ZM150.34375 256.7573Q150.34375 256.47604 150.5 256.28854Q150.67188 256.10104 151.0 256.10104Q151.34375 256.10104 151.51562 256.28854Q151.6875 256.47604 151.6875 256.7573Q151.6875 257.02292 151.51562 257.21042Q151.34375 257.3823 151.0 257.3823Q150.67188 257.3823 150.5 257.21042Q150.34375 257.02292 150.34375 256.7573ZM158.5625 253.67915Q158.5625 255.5854 157.90625 256.52292Q157.26562 257.4448 155.875 257.4448Q154.51562 257.4448 153.85938 256.53854Q153.20312 255.63228 153.17188 253.81978L153.17188 252.38228Q153.17188 250.49165 153.8125 249.5854Q154.46875 248.66353 155.85938 248.66353Q157.23438 248.66353 157.89062 249.55415Q158.54688 250.42915 158.5625 252.2729L158.5625 253.67915ZM157.46875 252.19478Q157.46875 250.81978 157.07812 250.19478Q156.70312 249.55415 155.85938 249.55415Q155.03125 249.55415 154.64062 250.19478Q154.26562 250.81978 154.26562 252.11665L154.26562 253.85103Q154.26562 255.22603 154.65625 255.8979Q155.0625 256.55417 155.875 256.55417Q156.67188 256.55417 157.0625 255.92915Q157.45312 255.30415 157.46875 253.97603L157.46875 252.19478ZM163.76562 257.3198L162.6875 257.3198L162.6875 250.10103L160.5 250.8979L160.5 249.91353L163.60938 248.74165L163.76562 248.74165L163.76562 257.3198Z" fill-rule="nonzero"/><path fill="#000000" d="M144.78125 252.52292L145.59375 252.52292Q146.375 252.5073 146.8125 252.11667Q147.25 251.72604 147.25 251.05417Q147.25 249.55417 145.75 249.55417Q145.04688 249.55417 144.625 249.96042Q144.21875 250.36667 144.21875 251.02292L143.125 251.02292Q143.125 250.0073 143.85938 249.33542Q144.60938 248.66354 145.75 248.66354Q146.95312 248.66354 147.64062 249.30417Q148.32812 249.9448 148.32812 251.08542Q148.32812 251.64792 147.96875 252.16354Q147.60938 252.67917 146.98438 252.9448Q147.6875 253.16354 148.0625 253.67917Q148.45312 254.1948 148.45312 254.9448Q148.45312 256.08542 147.70312 256.77292Q146.95312 257.4448 145.75 257.4448Q144.5625 257.4448 143.79688 256.78854Q143.04688 256.1323 143.04688 255.0698L144.14062 255.0698Q144.14062 255.74167 144.57812 256.14792Q145.01562 256.55417 145.76562 256.55417Q146.54688 256.55417 146.95312 256.14792Q147.375 255.72604 147.375 254.96042Q147.375 254.22604 146.92188 253.83542Q146.46875 253.42917 145.59375 253.41354L144.78125 253.41354L144.78125 252.52292ZM150.34375 256.7573Q150.34375 256.47604 150.5 256.28854Q150.67188 256.10104 151.0 256.10104Q151.34375 256.10104 151.51562 256.28854Q151.6875 256.47604 151.6875 256.7573Q151.6875 257.02292 151.51562 257.21042Q151.34375 257.3823 151.0 257.3823Q150.67188 257.3823 150.5 257.21042Q150.34375 257.02292 150.34375 256.7573ZM158.5625 253.67917Q158.5625 255.58542 157.90625 256.52292Q157.26562 257.4448 155.875 257.4448Q154.51562 257.4448 153.85938 256.53854Q153.20312 255.6323 153.17188 253.8198L153.17188 252.3823Q153.17188 250.49167 153.8125 249.58542Q154.46875 248.66354 155.85938 248.66354Q157.23438 248.66354 157.89062 249.55417Q158.54688 250.42917 158.5625 252.27292L158.5625 253.67917ZM157.46875 252.1948Q157.46875 250.8198 157.07812 250.1948Q156.70312 249.55417 155.85938 249.55417Q155.03125 249.55417 154.64062 250.1948Q154.26562 250.8198 154.26562 252.11667L154.26562 253.85104Q154.26562 255.22604 154.65625 255.89792Q155.0625 256.55417 155.875 256.55417Q156.67188 256.55417 157.0625 255.92917Q157.45312 255.30417 157.46875 253.97604L157.46875 252.1948ZM163.76562 257.3198L162.6875 257.3198L162.6875 250.10104L160.5 250.89792L160.5 249.91354L163.60938 248.74167L163.76562 248.74167L163.76562 257.3198Z" fill-rule="nonzero"/><path stroke="#b6d7a8" stroke-width="3.0" stroke-linejoin="round" stroke-linecap="round" d="M299.5625 318.0809Q299.5625 319.98715 298.90625 320.92465Q298.26562 321.84653 296.875 321.84653Q295.51562 321.84653 294.85938 320.94028Q294.20312 320.03403 294.17188 318.22153L294.17188 316.78403Q294.17188 314.8934 294.8125 313.98715Q295.46875 313.06528 296.85938 313.06528Q298.23438 313.06528 298.89062 313.9559Q299.54688 314.8309 299.5625 316.67465L299.5625 318.0809ZM298.46875 316.59653Q298.46875 315.22153 298.07812 314.59653Q297.70312 313.9559 296.85938 313.9559Q296.03125 313.9559 295.64062 314.59653Q295.26562 315.22153 295.26562 316.5184L295.26562 318.25278Q295.26562 319.62778 295.65625 320.29965Q296.0625 320.9559 296.875 320.9559Q297.67188 320.9559 298.0625 320.3309Q298.45312 319.7059 298.46875 318.37778L298.46875 316.59653ZM301.34375 321.15903Q301.34375 320.87778 301.5 320.69028Q301.67188 320.50278 302.0 320.50278Q302.34375 320.50278 302.51562 320.69028Q302.6875 320.87778 302.6875 321.15903Q302.6875 321.42465 302.51562 321.61215Q302.34375 321.78403 302.0 321.78403Q301.67188 321.78403 301.5 321.61215Q301.34375 321.42465 301.34375 321.15903ZM308.35938 317.97153Q308.03125 318.37778 307.54688 318.62778Q307.07812 318.86215 306.51562 318.86215Q305.78125 318.86215 305.23438 318.50278Q304.6875 318.1434 304.39062 317.48715Q304.09375 316.81528 304.09375 316.0184Q304.09375 315.17465 304.40625 314.48715Q304.73438 313.79965 305.32812 313.44028Q305.9375 313.06528 306.73438 313.06528Q308.0 313.06528 308.71875 314.0184Q309.45312 314.97153 309.45312 316.59653L309.45312 316.90903Q309.45312 319.40903 308.46875 320.54965Q307.48438 321.69028 305.5 321.72153L305.28125 321.72153L305.28125 320.81528L305.51562 320.81528Q306.85938 320.78403 307.57812 320.11215Q308.29688 319.44028 308.35938 317.97153ZM306.6875 317.97153Q307.23438 317.97153 307.6875 317.6434Q308.15625 317.29965 308.375 316.81528L308.375 316.37778Q308.375 315.31528 307.90625 314.6434Q307.4375 313.97153 306.73438 313.97153Q306.01562 313.97153 305.57812 314.5184Q305.15625 315.06528 305.15625 315.97153Q305.15625 316.84653 305.5625 317.40903Q305.98438 317.97153 306.6875 317.97153ZM316.5625 318.0809Q316.5625 319.98715 315.90625 320.92465Q315.26562 321.84653 313.875 321.84653Q312.51562 321.84653 311.85938 320.94028Q311.20312 320.03403 311.17188 318.22153L311.17188 316.78403Q311.17188 314.8934 311.8125 313.98715Q312.46875 313.06528 313.85938 313.06528Q315.23438 313.06528 315.89062 313.9559Q316.54688 314.8309 316.5625 316.67465L316.5625 318.0809ZM315.46875 316.59653Q315.46875 315.22153 315.07812 314.59653Q314.70312 313.9559 313.85938 313.9559Q313.03125 313.9559 312.64062 314.59653Q312.26562 315.22153 312.26562 316.5184L312.26562 318.25278Q312.26562 319.62778 312.65625 320.29965Q313.0625 320.9559 313.875 320.9559Q314.67188 320.9559 315.0625 320.3309Q315.45312 319.7059 315.46875 318.37778L315.46875 316.59653Z" fill-rule="nonzero"/><path fill="#000000" d="M299.5625 318.0809Q299.5625 319.98715 298.90625 320.92465Q298.26562 321.84653 296.875 321.84653Q295.51562 321.84653 294.85938 320.94028Q294.20312 320.03403 294.17188 318.22153L294.17188 316.78403Q294.17188 314.8934 294.8125 313.98715Q295.46875 313.06528 296.85938 313.06528Q298.23438 313.06528 298.89062 313.9559Q299.54688 314.8309 299.5625 316.67465L299.5625 318.0809ZM298.46875 316.59653Q298.46875 315.22153 298.07812 314.59653Q297.70312 313.9559 296.85938 313.9559Q296.03125 313.9559 295.64062 314.59653Q295.26562 315.22153 295.26562 316.5184L295.26562 318.25278Q295.26562 319.62778 295.65625 320.29965Q296.0625 320.9559 296.875 320.9559Q297.67188 320.9559 298.0625 320.3309Q298.45312 319.7059 298.46875 318.37778L298.46875 316.59653ZM301.34375 321.15903Q301.34375 320.87778 301.5 320.69028Q301.67188 320.50278 302.0 320.50278Q302.34375 320.50278 302.51562 320.69028Q302.6875 320.87778 302.6875 321.15903Q302.6875 321.42465 302.51562 321.61215Q302.34375 321.78403 302.0 321.78403Q301.67188 321.78403 301.5 321.61215Q301.34375 321.42465 301.34375 321.15903ZM308.35938 317.97153Q308.03125 318.37778 307.54688 318.62778Q307.07812 318.86215 306.51562 318.86215Q305.78125 318.86215 305.23438 318.50278Q304.6875 318.1434 304.39062 317.48715Q304.09375 316.81528 304.09375 316.0184Q304.09375 315.17465 304.40625 314.48715Q304.73438 313.79965 305.32812 313.44028Q305.9375 313.06528 306.73438 313.06528Q308.0 313.06528 308.71875 314.0184Q309.45312 314.97153 309.45312 316.59653L309.45312 316.90903Q309.45312 319.40903 308.46875 320.54965Q307.48438 321.69028 305.5 321.72153L305.28125 321.72153L305.28125 320.81528L305.51562 320.81528Q306.85938 320.78403 307.57812 320.11215Q308.29688 319.44028 308.35938 317.97153ZM306.6875 317.97153Q307.23438 317.97153 307.6875 317.6434Q308.15625 317.29965 308.375 316.81528L308.375 316.37778Q308.375 315.31528 307.90625 314.6434Q307.4375 313.97153 306.73438 313.97153Q306.01562 313.97153 305.57812 314.5184Q305.15625 315.06528 305.15625 315.97153Q305.15625 316.84653 305.5625 317.40903Q305.98438 317.97153 306.6875 317.97153ZM316.5625 318.0809Q316.5625 319.98715 315.90625 320.92465Q315.26562 321.84653 313.875 321.84653Q312.51562 321.84653 311.85938 320.94028Q311.20312 320.03403 311.17188 318.22153L311.17188 316.78403Q311.17188 314.8934 311.8125 313.98715Q312.46875 313.06528 313.85938 313.06528Q315.23438 313.06528 315.89062 313.9559Q316.54688 314.8309 316.5625 316.67465L316.5625 318.0809ZM315.46875 316.59653Q315.46875 315.22153 315.07812 314.59653Q314.70312 313.9559 313.85938 313.9559Q313.03125 313.9559 312.64062 314.59653Q312.26562 315.22153 312.26562 316.5184L312.26562 318.25278Q312.26562 319.62778 312.65625 320.29965Q313.0625 320.9559 313.875 320.9559Q314.67188 320.9559 315.0625 320.3309Q315.45312 319.7059 315.46875 318.37778L315.46875 316.59653Z" fill-rule="nonzero"/><path stroke="#b6d7a8" stroke-width="3.0" stroke-linejoin="round" stroke-linecap="round" d="M449.5625 318.49902Q449.5625 320.40527 448.90625 321.34277Q448.26562 322.26465 446.875 322.26465Q445.51562 322.26465 444.85938 321.3584Q444.20312 320.45215 444.17188 318.63965L444.17188 317.20215Q444.17188 315.31152 444.8125 314.40527Q445.46875 313.4834 446.85938 313.4834Q448.23438 313.4834 448.89062 314.37402Q449.54688 315.24902 449.5625 317.09277L449.5625 318.49902ZM448.46875 317.01465Q448.46875 315.63965 448.07812 315.01465Q447.70312 314.37402 446.85938 314.37402Q446.03125 314.37402 445.64062 315.01465Q445.26562 315.63965 445.26562 316.93652L445.26562 318.6709Q445.26562 320.0459 445.65625 320.71777Q446.0625 321.37402 446.875 321.37402Q447.67188 321.37402 448.0625 320.74902Q448.45312 320.12402 448.46875 318.7959L448.46875 317.01465ZM451.34375 321.57715Q451.34375 321.2959 451.5 321.1084Q451.67188 320.9209 452.0 320.9209Q452.34375 320.9209 452.51562 321.1084Q452.6875 321.2959 452.6875 321.57715Q452.6875 321.84277 452.51562 322.03027Q452.34375 322.20215 452.0 322.20215Q451.67188 322.20215 451.5 322.03027Q451.34375 321.84277 451.34375 321.57715ZM459.39062 315.82715Q459.39062 316.46777 459.04688 316.96777Q458.70312 317.46777 458.14062 317.74902Q458.79688 318.03027 459.1875 318.59277Q459.57812 319.13965 459.57812 319.84277Q459.57812 320.93652 458.82812 321.6084Q458.09375 322.26465 456.875 322.26465Q455.64062 322.26465 454.89062 321.6084Q454.15625 320.93652 454.15625 319.84277Q454.15625 319.13965 454.53125 318.59277Q454.90625 318.03027 455.57812 317.74902Q455.01562 317.46777 454.6875 316.96777Q454.35938 316.46777 454.35938 315.82715Q454.35938 314.74902 455.04688 314.12402Q455.73438 313.4834 456.875 313.4834Q458.0 313.4834 458.6875 314.12402Q459.39062 314.74902 459.39062 315.82715ZM458.5 319.81152Q458.5 319.09277 458.04688 318.65527Q457.59375 318.20215 456.85938 318.20215Q456.125 318.20215 455.67188 318.65527Q455.23438 319.09277 455.23438 319.82715Q455.23438 320.5459 455.67188 320.96777Q456.10938 321.37402 456.875 321.37402Q457.625 321.37402 458.0625 320.95215Q458.5 320.53027 458.5 319.81152ZM456.875 314.37402Q456.23438 314.37402 455.82812 314.78027Q455.4375 315.1709 455.4375 315.8584Q455.4375 316.49902 455.82812 316.90527Q456.21875 317.31152 456.85938 317.31152Q457.51562 317.31152 457.90625 316.90527Q458.29688 316.49902 458.29688 315.8584Q458.29688 315.20215 457.89062 314.7959Q457.48438 314.37402 456.875 314.37402ZM465.35938 318.38965Q465.03125 318.7959 464.54688 319.0459Q464.07812 319.28027 463.51562 319.28027Q462.78125 319.28027 462.23438 318.9209Q461.6875 318.56152 461.39062 317.90527Q461.09375 317.2334 461.09375 316.43652Q461.09375 315.59277 461.40625 314.90527Q461.73438 314.21777 462.32812 313.8584Q462.9375 313.4834 463.73438 313.4834Q465.0 313.4834 465.71875 314.43652Q466.45312 315.38965 466.45312 317.01465L466.45312 317.32715Q466.45312 319.82715 465.46875 320.96777Q464.48438 322.1084 462.5 322.13965L462.28125 322.13965L462.28125 321.2334L462.51562 321.2334Q463.85938 321.20215 464.57812 320.53027Q465.29688 319.8584 465.35938 318.38965ZM463.6875 318.38965Q464.23438 318.38965 464.6875 318.06152Q465.15625 317.71777 465.375 317.2334L465.375 316.7959Q465.375 315.7334 464.90625 315.06152Q464.4375 314.38965 463.73438 314.38965Q463.01562 314.38965 462.57812 314.93652Q462.15625 315.4834 462.15625 316.38965Q462.15625 317.26465 462.5625 317.82715Q462.98438 318.38965 463.6875 318.38965Z" fill-rule="nonzero"/><path fill="#000000" d="M449.5625 318.49902Q449.5625 320.40527 448.90625 321.34277Q448.26562 322.26465 446.875 322.26465Q445.51562 322.26465 444.85938 321.3584Q444.20312 320.45215 444.17188 318.63965L444.17188 317.20215Q444.17188 315.31152 444.8125 314.40527Q445.46875 313.4834 446.85938 313.4834Q448.23438 313.4834 448.89062 314.37402Q449.54688 315.24902 449.5625 317.09277L449.5625 318.49902ZM448.46875 317.01465Q448.46875 315.63965 448.07812 315.01465Q447.70312 314.37402 446.85938 314.37402Q446.03125 314.37402 445.64062 315.01465Q445.26562 315.63965 445.26562 316.93652L445.26562 318.6709Q445.26562 320.0459 445.65625 320.71777Q446.0625 321.37402 446.875 321.37402Q447.67188 321.37402 448.0625 320.74902Q448.45312 320.12402 448.46875 318.7959L448.46875 317.01465ZM451.34375 321.57715Q451.34375 321.2959 451.5 321.1084Q451.67188 320.9209 452.0 320.9209Q452.34375 320.9209 452.51562 321.1084Q452.6875 321.2959 452.6875 321.57715Q452.6875 321.84277 452.51562 322.03027Q452.34375 322.20215 452.0 322.20215Q451.67188 322.20215 451.5 322.03027Q451.34375 321.84277 451.34375 321.57715ZM459.39062 315.82715Q459.39062 316.46777 459.04688 316.96777Q458.70312 317.46777 458.14062 317.74902Q458.79688 318.03027 459.1875 318.59277Q459.57812 319.13965 459.57812 319.84277Q459.57812 320.93652 458.82812 321.6084Q458.09375 322.26465 456.875 322.26465Q455.64062 322.26465 454.89062 321.6084Q454.15625 320.93652 454.15625 319.84277Q454.15625 319.13965 454.53125 318.59277Q454.90625 318.03027 455.57812 317.74902Q455.01562 317.46777 454.6875 316.96777Q454.35938 316.46777 454.35938 315.82715Q454.35938 314.74902 455.04688 314.12402Q455.73438 313.4834 456.875 313.4834Q458.0 313.4834 458.6875 314.12402Q459.39062 314.74902 459.39062 315.82715ZM458.5 319.81152Q458.5 319.09277 458.04688 318.65527Q457.59375 318.20215 456.85938 318.20215Q456.125 318.20215 455.67188 318.65527Q455.23438 319.09277 455.23438 319.82715Q455.23438 320.5459 455.67188 320.96777Q456.10938 321.37402 456.875 321.37402Q457.625 321.37402 458.0625 320.95215Q458.5 320.53027 458.5 319.81152ZM456.875 314.37402Q456.23438 314.37402 455.82812 314.78027Q455.4375 315.1709 455.4375 315.8584Q455.4375 316.49902 455.82812 316.90527Q456.21875 317.31152 456.85938 317.31152Q457.51562 317.31152 457.90625 316.90527Q458.29688 316.49902 458.29688 315.8584Q458.29688 315.20215 457.89062 314.7959Q457.48438 314.37402 456.875 314.37402ZM465.35938 318.38965Q465.03125 318.7959 464.54688 319.0459Q464.07812 319.28027 463.51562 319.28027Q462.78125 319.28027 462.23438 318.9209Q461.6875 318.56152 461.39062 317.90527Q461.09375 317.2334 461.09375 316.43652Q461.09375 315.59277 461.40625 314.90527Q461.73438 314.21777 462.32812 313.8584Q462.9375 313.4834 463.73438 313.4834Q465.0 313.4834 465.71875 314.43652Q466.45312 315.38965 466.45312 317.01465L466.45312 317.32715Q466.45312 319.82715 465.46875 320.96777Q464.48438 322.1084 462.5 322.13965L462.28125 322.13965L462.28125 321.2334L462.51562 321.2334Q463.85938 321.20215 464.57812 320.53027Q465.29688 319.8584 465.35938 318.38965ZM463.6875 318.38965Q464.23438 318.38965 464.6875 318.06152Q465.15625 317.71777 465.375 317.2334L465.375 316.7959Q465.375 315.7334 464.90625 315.06152Q464.4375 314.38965 463.73438 314.38965Q463.01562 314.38965 462.57812 314.93652Q462.15625 315.4834 462.15625 316.38965Q462.15625 317.26465 462.5625 317.82715Q462.98438 318.38965 463.6875 318.38965Z" fill-rule="nonzero"/><path stroke="#38761d" stroke-width="3.0" stroke-linejoin="round" stroke-linecap="round" d="M196.46875 136.70248L196.46875 137.60873L196.26562 137.60873Q195.0 137.63998 194.25 138.37436Q193.5 139.09311 193.375 140.40561Q194.0625 139.63998 195.21875 139.63998Q196.32812 139.63998 197.0 140.42123Q197.67188 141.20248 197.67188 142.45248Q197.67188 143.76498 196.95312 144.56186Q196.23438 145.35873 195.01562 145.35873Q193.79688 145.35873 193.03125 144.42123Q192.28125 143.46811 192.28125 141.98373L192.28125 141.57748Q192.28125 139.21811 193.28125 137.96811Q194.28125 136.71811 196.26562 136.70248L196.46875 136.70248ZM195.04688 140.54623Q194.48438 140.54623 194.01562 140.87436Q193.54688 141.20248 193.35938 141.71811L193.35938 142.10873Q193.35938 143.17123 193.82812 143.81186Q194.3125 144.45248 195.01562 144.45248Q195.75 144.45248 196.17188 143.92123Q196.59375 143.37436 196.59375 142.49936Q196.59375 141.62436 196.17188 141.09311Q195.75 140.54623 195.04688 140.54623ZM199.34375 144.67123Q199.34375 144.38998 199.5 144.20248Q199.67188 144.01498 200.0 144.01498Q200.34375 144.01498 200.51562 144.20248Q200.6875 144.38998 200.6875 144.67123Q200.6875 144.93686 200.51562 145.12436Q200.34375 145.29623 200.0 145.29623Q199.67188 145.29623 199.5 145.12436Q199.34375 144.93686 199.34375 144.67123ZM206.46875 136.70248L206.46875 137.60873L206.26562 137.60873Q205.0 137.63998 204.25 138.37436Q203.5 139.09311 203.375 140.40561Q204.0625 139.63998 205.21875 139.63998Q206.32812 139.63998 207.0 140.42123Q207.67188 141.20248 207.67188 142.45248Q207.67188 143.76498 206.95312 144.56186Q206.23438 145.35873 205.01562 145.35873Q203.79688 145.35873 203.03125 144.42123Q202.28125 143.46811 202.28125 141.98373L202.28125 141.57748Q202.28125 139.21811 203.28125 137.96811Q204.28125 136.71811 206.26562 136.70248L206.46875 136.70248ZM205.04688 140.54623Q204.48438 140.54623 204.01562 140.87436Q203.54688 141.20248 203.35938 141.71811L203.35938 142.10873Q203.35938 143.17123 203.82812 143.81186Q204.3125 144.45248 205.01562 144.45248Q205.75 144.45248 206.17188 143.92123Q206.59375 143.37436 206.59375 142.49936Q206.59375 141.62436 206.17188 141.09311Q205.75 140.54623 205.04688 140.54623ZM214.39062 138.92123Q214.39062 139.56186 214.04688 140.06186Q213.70312 140.56186 213.14062 140.84311Q213.79688 141.12436 214.1875 141.68686Q214.57812 142.23373 214.57812 142.93686Q214.57812 144.03061 213.82812 144.70248Q213.09375 145.35873 211.875 145.35873Q210.64062 145.35873 209.89062 144.70248Q209.15625 144.03061 209.15625 142.93686Q209.15625 142.23373 209.53125 141.68686Q209.90625 141.12436 210.57812 140.84311Q210.01562 140.56186 209.6875 140.06186Q209.35938 139.56186 209.35938 138.92123Q209.35938 137.84311 210.04688 137.21811Q210.73438 136.57748 211.875 136.57748Q213.0 136.57748 213.6875 137.21811Q214.39062 137.84311 214.39062 138.92123ZM213.5 142.90561Q213.5 142.18686 213.04688 141.74936Q212.59375 141.29623 211.85938 141.29623Q211.125 141.29623 210.67188 141.74936Q210.23438 142.18686 210.23438 142.92123Q210.23438 143.63998 210.67188 144.06186Q211.10938 144.46811 211.875 144.46811Q212.625 144.46811 213.0625 144.04623Q213.5 143.62436 213.5 142.90561ZM211.875 137.46811Q211.23438 137.46811 210.82812 137.87436Q210.4375 138.26498 210.4375 138.95248Q210.4375 139.59311 210.82812 139.99936Q211.21875 140.40561 211.85938 140.40561Q212.51562 140.40561 212.90625 139.99936Q213.29688 139.59311 213.29688 138.95248Q213.29688 138.29623 212.89062 137.88998Q212.48438 137.46811 211.875 137.46811Z" fill-rule="nonzero"/><path fill="#ffffff" d="M196.46875 136.70248L196.46875 137.60873L196.26562 137.60873Q195.0 137.63998 194.25 138.37436Q193.5 139.09311 193.375 140.40561Q194.0625 139.63998 195.21875 139.63998Q196.32812 139.63998 197.0 140.42123Q197.67188 141.20248 197.67188 142.45248Q197.67188 143.76498 196.95312 144.56186Q196.23438 145.35873 195.01562 145.35873Q193.79688 145.35873 193.03125 144.42123Q192.28125 143.46811 192.28125 141.98373L192.28125 141.57748Q192.28125 139.21811 193.28125 137.96811Q194.28125 136.71811 196.26562 136.70248L196.46875 136.70248ZM195.04688 140.54623Q194.48438 140.54623 194.01562 140.87436Q193.54688 141.20248 193.35938 141.71811L193.35938 142.10873Q193.35938 143.17123 193.82812 143.81186Q194.3125 144.45248 195.01562 144.45248Q195.75 144.45248 196.17188 143.92123Q196.59375 143.37436 196.59375 142.49936Q196.59375 141.62436 196.17188 141.09311Q195.75 140.54623 195.04688 140.54623ZM199.34375 144.67123Q199.34375 144.38998 199.5 144.20248Q199.67188 144.01498 200.0 144.01498Q200.34375 144.01498 200.51562 144.20248Q200.6875 144.38998 200.6875 144.67123Q200.6875 144.93686 200.51562 145.12436Q200.34375 145.29623 200.0 145.29623Q199.67188 145.29623 199.5 145.12436Q199.34375 144.93686 199.34375 144.67123ZM206.46875 136.70248L206.46875 137.60873L206.26562 137.60873Q205.0 137.63998 204.25 138.37436Q203.5 139.09311 203.375 140.40561Q204.0625 139.63998 205.21875 139.63998Q206.32812 139.63998 207.0 140.42123Q207.67188 141.20248 207.67188 142.45248Q207.67188 143.76498 206.95312 144.56186Q206.23438 145.35873 205.01562 145.35873Q203.79688 145.35873 203.03125 144.42123Q202.28125 143.46811 202.28125 141.98373L202.28125 141.57748Q202.28125 139.21811 203.28125 137.96811Q204.28125 136.71811 206.26562 136.70248L206.46875 136.70248ZM205.04688 140.54623Q204.48438 140.54623 204.01562 140.87436Q203.54688 141.20248 203.35938 141.71811L203.35938 142.10873Q203.35938 143.17123 203.82812 143.81186Q204.3125 144.45248 205.01562 144.45248Q205.75 144.45248 206.17188 143.92123Q206.59375 143.37436 206.59375 142.49936Q206.59375 141.62436 206.17188 141.09311Q205.75 140.54623 205.04688 140.54623ZM214.39062 138.92123Q214.39062 139.56186 214.04688 140.06186Q213.70312 140.56186 213.14062 140.84311Q213.79688 141.12436 214.1875 141.68686Q214.57812 142.23373 214.57812 142.93686Q214.57812 144.03061 213.82812 144.70248Q213.09375 145.35873 211.875 145.35873Q210.64062 145.35873 209.89062 144.70248Q209.15625 144.03061 209.15625 142.93686Q209.15625 142.23373 209.53125 141.68686Q209.90625 141.12436 210.57812 140.84311Q210.01562 140.56186 209.6875 140.06186Q209.35938 139.56186 209.35938 138.92123Q209.35938 137.84311 210.04688 137.21811Q210.73438 136.57748 211.875 136.57748Q213.0 136.57748 213.6875 137.21811Q214.39062 137.84311 214.39062 138.92123ZM213.5 142.90561Q213.5 142.18686 213.04688 141.74936Q212.59375 141.29623 211.85938 141.29623Q211.125 141.29623 210.67188 141.74936Q210.23438 142.18686 210.23438 142.92123Q210.23438 143.63998 210.67188 144.06186Q211.10938 144.46811 211.875 144.46811Q212.625 144.46811 213.0625 144.04623Q213.5 143.62436 213.5 142.90561ZM211.875 137.46811Q211.23438 137.46811 210.82812 137.87436Q210.4375 138.26498 210.4375 138.95248Q210.4375 139.59311 210.82812 139.99936Q211.21875 140.40561 211.85938 140.40561Q212.51562 140.40561 212.90625 139.99936Q213.29688 139.59311 213.29688 138.95248Q213.29688 138.29623 212.89062 137.88998Q212.48438 137.46811 211.875 137.46811Z" fill-rule="nonzero"/><path stroke="#38761d" stroke-width="3.0" stroke-linejoin="round" stroke-linecap="round" d="M346.76562 290.78098L345.6875 290.78098L345.6875 283.56223L343.5 284.3591L343.5 283.37473L346.60938 282.20285L346.76562 282.20285L346.76562 290.78098ZM350.34375 290.21848Q350.34375 289.93723 350.5 289.74973Q350.67188 289.56223 351.0 289.56223Q351.34375 289.56223 351.51562 289.74973Q351.6875 289.93723 351.6875 290.21848Q351.6875 290.4841 351.51562 290.6716Q351.34375 290.84348 351.0 290.84348Q350.67188 290.84348 350.5 290.6716Q350.34375 290.4841 350.34375 290.21848ZM357.35938 287.03098Q357.03125 287.43723 356.54688 287.68723Q356.07812 287.9216 355.51562 287.9216Q354.78125 287.9216 354.23438 287.56223Q353.6875 287.20285 353.39062 286.5466Q353.09375 285.87473 353.09375 285.07785Q353.09375 284.2341 353.40625 283.5466Q353.73438 282.8591 354.32812 282.49973Q354.9375 282.12473 355.73438 282.12473Q357.0 282.12473 357.71875 283.07785Q358.45312 284.03098 358.45312 285.65598L358.45312 285.96848Q358.45312 288.46848 357.46875 289.6091Q356.48438 290.74973 354.5 290.78098L354.28125 290.78098L354.28125 289.87473L354.51562 289.87473Q355.85938 289.84348 356.57812 289.1716Q357.29688 288.49973 357.35938 287.03098ZM355.6875 287.03098Q356.23438 287.03098 356.6875 286.70285Q357.15625 286.3591 357.375 285.87473L357.375 285.43723Q357.375 284.37473 356.90625 283.70285Q356.4375 283.03098 355.73438 283.03098Q355.01562 283.03098 354.57812 283.57785Q354.15625 284.12473 354.15625 285.03098Q354.15625 285.90598 354.5625 286.46848Q354.98438 287.03098 355.6875 287.03098ZM365.79688 290.78098L360.20312 290.78098L360.20312 289.99973L363.15625 286.71848Q363.8125 285.96848 364.0625 285.51535Q364.3125 285.0466 364.3125 284.5466Q364.3125 283.87473 363.90625 283.45285Q363.51562 283.01535 362.82812 283.01535Q362.03125 283.01535 361.57812 283.4841Q361.125 283.93723 361.125 284.76535L360.04688 284.76535Q360.04688 283.57785 360.79688 282.8591Q361.5625 282.12473 362.82812 282.12473Q364.03125 282.12473 364.71875 282.74973Q365.40625 283.37473 365.40625 284.4216Q365.40625 285.6716 363.79688 287.4216L361.51562 289.89035L365.79688 289.89035L365.79688 290.78098Z" fill-rule="nonzero"/><path fill="#ffffff" d="M346.76562 290.78098L345.6875 290.78098L345.6875 283.56223L343.5 284.3591L343.5 283.37473L346.60938 282.20285L346.76562 282.20285L346.76562 290.78098ZM350.34375 290.21848Q350.34375 289.93723 350.5 289.74973Q350.67188 289.56223 351.0 289.56223Q351.34375 289.56223 351.51562 289.74973Q351.6875 289.93723 351.6875 290.21848Q351.6875 290.4841 351.51562 290.6716Q351.34375 290.84348 351.0 290.84348Q350.67188 290.84348 350.5 290.6716Q350.34375 290.4841 350.34375 290.21848ZM357.35938 287.03098Q357.03125 287.43723 356.54688 287.68723Q356.07812 287.9216 355.51562 287.9216Q354.78125 287.9216 354.23438 287.56223Q353.6875 287.20285 353.39062 286.5466Q353.09375 285.87473 353.09375 285.07785Q353.09375 284.2341 353.40625 283.5466Q353.73438 282.8591 354.32812 282.49973Q354.9375 282.12473 355.73438 282.12473Q357.0 282.12473 357.71875 283.07785Q358.45312 284.03098 358.45312 285.65598L358.45312 285.96848Q358.45312 288.46848 357.46875 289.6091Q356.48438 290.74973 354.5 290.78098L354.28125 290.78098L354.28125 289.87473L354.51562 289.87473Q355.85938 289.84348 356.57812 289.1716Q357.29688 288.49973 357.35938 287.03098ZM355.6875 287.03098Q356.23438 287.03098 356.6875 286.70285Q357.15625 286.3591 357.375 285.87473L357.375 285.43723Q357.375 284.37473 356.90625 283.70285Q356.4375 283.03098 355.73438 283.03098Q355.01562 283.03098 354.57812 283.57785Q354.15625 284.12473 354.15625 285.03098Q354.15625 285.90598 354.5625 286.46848Q354.98438 287.03098 355.6875 287.03098ZM365.79688 290.78098L360.20312 290.78098L360.20312 289.99973L363.15625 286.71848Q363.8125 285.96848 364.0625 285.51535Q364.3125 285.0466 364.3125 284.5466Q364.3125 283.87473 363.90625 283.45285Q363.51562 283.01535 362.82812 283.01535Q362.03125 283.01535 361.57812 283.4841Q361.125 283.93723 361.125 284.76535L360.04688 284.76535Q360.04688 283.57785 360.79688 282.8591Q361.5625 282.12473 362.82812 282.12473Q364.03125 282.12473 364.71875 282.74973Q365.40625 283.37473 365.40625 284.4216Q365.40625 285.6716 363.79688 287.4216L361.51562 289.89035L365.79688 289.89035L365.79688 290.78098Z" fill-rule="nonzero"/><path stroke="#38761d" stroke-width="3.0" stroke-linejoin="round" stroke-linecap="round" d="M498.79688 280.66385L493.20312 280.66385L493.20312 279.8826L496.15625 276.60135Q496.8125 275.85135 497.0625 275.39822Q497.3125 274.92947 497.3125 274.42947Q497.3125 273.7576 496.90625 273.33572Q496.51562 272.89822 495.82812 272.89822Q495.03125 272.89822 494.57812 273.36697Q494.125 273.8201 494.125 274.64822L493.04688 274.64822Q493.04688 273.46072 493.79688 272.74197Q494.5625 272.0076 495.82812 272.0076Q497.03125 272.0076 497.71875 272.6326Q498.40625 273.2576 498.40625 274.30447Q498.40625 275.55447 496.79688 277.30447L494.51562 279.77322L498.79688 279.77322L498.79688 280.66385ZM500.34375 280.10135Q500.34375 279.8201 500.5 279.6326Q500.67188 279.4451 501.0 279.4451Q501.34375 279.4451 501.51562 279.6326Q501.6875 279.8201 501.6875 280.10135Q501.6875 280.36697 501.51562 280.55447Q501.34375 280.72635 501.0 280.72635Q500.67188 280.72635 500.5 280.55447Q500.34375 280.36697 500.34375 280.10135ZM508.79688 280.66385L503.20312 280.66385L503.20312 279.8826L506.15625 276.60135Q506.8125 275.85135 507.0625 275.39822Q507.3125 274.92947 507.3125 274.42947Q507.3125 273.7576 506.90625 273.33572Q506.51562 272.89822 505.82812 272.89822Q505.03125 272.89822 504.57812 273.36697Q504.125 273.8201 504.125 274.64822L503.04688 274.64822Q503.04688 273.46072 503.79688 272.74197Q504.5625 272.0076 505.82812 272.0076Q507.03125 272.0076 507.71875 272.6326Q508.40625 273.2576 508.40625 274.30447Q508.40625 275.55447 506.79688 277.30447L504.51562 279.77322L508.79688 279.77322L508.79688 280.66385ZM510.70312 276.3826L511.14062 272.1326L515.5156 272.1326L515.5156 273.1326L512.0625 273.1326L511.79688 275.46072Q512.4375 275.08572 513.2344 275.08572Q514.3906 275.08572 515.0781 275.86697Q515.7656 276.6326 515.7656 277.9451Q515.7656 279.2576 515.0469 280.02322Q514.34375 280.78885 513.0625 280.78885Q511.9375 280.78885 511.21875 280.16385Q510.5 279.52322 510.40625 278.41385L511.42188 278.41385Q511.53125 279.14822 511.95312 279.52322Q512.375 279.89822 513.0625 279.89822Q513.8125 279.89822 514.25 279.3826Q514.6875 278.86697 514.6875 277.96072Q514.6875 277.10135 514.21875 276.58572Q513.75 276.0701 512.96875 276.0701Q512.2656 276.0701 511.85938 276.36697L511.57812 276.60135L510.70312 276.3826Z" fill-rule="nonzero"/><path fill="#ffffff" d="M498.79688 280.66385L493.20312 280.66385L493.20312 279.8826L496.15625 276.60135Q496.8125 275.85135 497.0625 275.39822Q497.3125 274.92947 497.3125 274.42947Q497.3125 273.7576 496.90625 273.33572Q496.51562 272.89822 495.82812 272.89822Q495.03125 272.89822 494.57812 273.36697Q494.125 273.8201 494.125 274.64822L493.04688 274.64822Q493.04688 273.46072 493.79688 272.74197Q494.5625 272.0076 495.82812 272.0076Q497.03125 272.0076 497.71875 272.6326Q498.40625 273.2576 498.40625 274.30447Q498.40625 275.55447 496.79688 277.30447L494.51562 279.77322L498.79688 279.77322L498.79688 280.66385ZM500.34375 280.10135Q500.34375 279.8201 500.5 279.6326Q500.67188 279.4451 501.0 279.4451Q501.34375 279.4451 501.51562 279.6326Q501.6875 279.8201 501.6875 280.10135Q501.6875 280.36697 501.51562 280.55447Q501.34375 280.72635 501.0 280.72635Q500.67188 280.72635 500.5 280.55447Q500.34375 280.36697 500.34375 280.10135ZM508.79688 280.66385L503.20312 280.66385L503.20312 279.8826L506.15625 276.60135Q506.8125 275.85135 507.0625 275.39822Q507.3125 274.92947 507.3125 274.42947Q507.3125 273.7576 506.90625 273.33572Q506.51562 272.89822 505.82812 272.89822Q505.03125 272.89822 504.57812 273.36697Q504.125 273.8201 504.125 274.64822L503.04688 274.64822Q503.04688 273.46072 503.79688 272.74197Q504.5625 272.0076 505.82812 272.0076Q507.03125 272.0076 507.71875 272.6326Q508.40625 273.2576 508.40625 274.30447Q508.40625 275.55447 506.79688 277.30447L504.51562 279.77322L508.79688 279.77322L508.79688 280.66385ZM510.70312 276.3826L511.14062 272.1326L515.5156 272.1326L515.5156 273.1326L512.0625 273.1326L511.79688 275.46072Q512.4375 275.08572 513.2344 275.08572Q514.3906 275.08572 515.0781 275.86697Q515.7656 276.6326 515.7656 277.9451Q515.7656 279.2576 515.0469 280.02322Q514.34375 280.78885 513.0625 280.78885Q511.9375 280.78885 511.21875 280.16385Q510.5 279.52322 510.40625 278.41385L511.42188 278.41385Q511.53125 279.14822 511.95312 279.52322Q512.375 279.89822 513.0625 279.89822Q513.8125 279.89822 514.25 279.3826Q514.6875 278.86697 514.6875 277.96072Q514.6875 277.10135 514.21875 276.58572Q513.75 276.0701 512.96875 276.0701Q512.2656 276.0701 511.85938 276.36697L511.57812 276.60135L510.70312 276.3826Z" fill-rule="nonzero"/><path fill="#000000" d="M26.175013 261.91354L25.175013 261.91354L25.159388 258.28854L28.346888 258.28854Q29.018763 259.11667 29.362513 260.0073Q29.690638 260.89792 29.690638 261.83542Q29.690638 263.10104 29.159388 264.14792Q28.612513 265.17917 27.596888 265.71042Q26.565638 266.22604 25.300013 266.22604Q24.034388 266.22604 22.956263 265.71042Q21.862513 265.17917 21.346888 264.1948Q20.815638 263.21042 20.815638 261.92917Q20.815638 260.99167 21.112513 260.24167Q21.409388 259.49167 21.956263 259.0698Q22.487513 258.6323 23.362513 258.41354L23.643763 259.42917Q22.987513 259.6323 22.612513 259.92917Q22.237513 260.21042 22.018763 260.74167Q21.784388 261.27292 21.784388 261.91354Q21.784388 262.6948 22.018763 263.27292Q22.253138 263.83542 22.643763 264.1948Q23.034388 264.53854 23.503138 264.72604Q24.300013 265.05417 25.221888 265.05417Q26.378138 265.05417 27.159388 264.66354Q27.925013 264.2573 28.300013 263.5073Q28.675013 262.7573 28.675013 261.89792Q28.675013 261.16354 28.393763 260.46042Q28.096888 259.7573 27.784388 259.39792L26.175013 259.39792L26.175013 261.91354ZM29.550013 257.10104L20.956263 257.10104L20.956263 256.03854L29.550013 256.03854L29.550013 257.10104ZM26.440638 254.46042Q24.706263 254.46042 23.878138 253.5073Q23.190638 252.71042 23.190638 251.55417Q23.190638 250.27292 24.034388 249.46042Q24.862513 248.6323 26.346888 248.6323Q27.550013 248.6323 28.237513 248.99167Q28.925013 249.35104 29.315638 250.05417Q29.690638 250.74167 29.690638 251.55417Q29.690638 252.85104 28.862513 253.66354Q28.018763 254.46042 26.440638 254.46042ZM26.440638 253.3823Q27.628138 253.3823 28.221888 252.86667Q28.815638 252.33542 28.815638 251.55417Q28.815638 250.7573 28.221888 250.24167Q27.628138 249.72604 26.409388 249.72604Q25.253138 249.72604 24.659388 250.2573Q24.065638 250.77292 24.065638 251.55417Q24.065638 252.33542 24.659388 252.86667Q25.237513 253.3823 26.440638 253.3823ZM29.550013 246.10104L29.550013 247.08542L20.956263 247.08542L20.956263 246.02292L24.018763 246.02292Q23.190638 245.35104 23.190638 244.3198Q23.190638 243.74167 23.425013 243.24167Q23.643763 242.72604 24.065638 242.39792Q24.487513 242.05417 25.081263 241.86667Q25.675013 241.67917 26.346888 241.67917Q27.940638 241.67917 28.815638 242.47604Q29.690638 243.27292 29.690638 244.36667Q29.690638 245.47604 28.768763 246.10104L29.550013 246.10104ZM26.393763 246.11667Q27.503138 246.11667 28.003138 245.80417Q28.815638 245.30417 28.815638 244.46042Q28.815638 243.77292 28.221888 243.27292Q27.628138 242.7573 26.425013 242.7573Q25.206263 242.7573 24.628138 243.24167Q24.050013 243.72604 24.050013 244.41354Q24.050013 245.10104 24.659388 245.61667Q25.253138 246.11667 26.393763 246.11667ZM28.784388 236.0073Q29.284388 236.60104 29.487513 237.14792Q29.690638 237.67917 29.690638 238.30417Q29.690638 239.33542 29.190638 239.8823Q28.690638 240.42917 27.909388 240.42917Q27.456263 240.42917 27.081263 240.22604Q26.690638 240.02292 26.471888 239.67917Q26.237513 239.33542 26.128138 238.91354Q26.034388 238.61667 25.956263 237.97604Q25.815638 236.71042 25.596888 236.10104Q25.378138 236.10104 25.331263 236.10104Q24.675013 236.10104 24.409388 236.39792Q24.065638 236.80417 24.065638 237.60104Q24.065638 238.33542 24.331263 238.6948Q24.581263 239.05417 25.237513 239.22604L25.096888 240.2573Q24.440638 240.11667 24.034388 239.78854Q23.628138 239.46042 23.409388 238.85104Q23.190638 238.24167 23.190638 237.4448Q23.190638 236.64792 23.378138 236.14792Q23.565638 235.64792 23.846888 235.41354Q24.128138 235.17917 24.565638 235.08542Q24.831263 235.03854 25.534388 235.03854L26.940638 235.03854Q28.409388 235.03854 28.800013 234.97604Q29.190638 234.89792 29.550013 234.6948L29.550013 235.80417Q29.221888 235.96042 28.784388 236.0073ZM26.425013 236.10104Q26.659388 236.67917 26.831263 237.8198Q26.925013 238.47604 27.050013 238.74167Q27.159388 239.0073 27.378138 239.16354Q27.596888 239.30417 27.878138 239.30417Q28.300013 239.30417 28.581263 238.99167Q28.862513 238.66354 28.862513 238.05417Q28.862513 237.4448 28.596888 236.97604Q28.331263 236.49167 27.862513 236.27292Q27.503138 236.10104 26.815638 236.10104L26.425013 236.10104ZM29.550013 233.10104L20.956263 233.10104L20.956263 232.03854L29.550013 232.03854L29.550013 233.10104ZM29.550013 226.99167L20.956263 226.99167L20.956263 223.7573Q20.956263 222.77292 21.221888 222.17917Q21.487513 221.58542 22.034388 221.2573Q22.565638 220.91354 23.159388 220.91354Q23.706263 220.91354 24.190638 221.21042Q24.675013 221.5073 24.971888 222.11667Q25.206263 221.33542 25.768763 220.92917Q26.315638 220.5073 27.065638 220.5073Q27.659388 220.5073 28.190638 220.7573Q28.706263 221.0073 28.987513 221.3823Q29.268763 221.7573 29.409388 222.33542Q29.550013 222.89792 29.550013 223.71042L29.550013 226.99167ZM24.565638 225.85104L24.565638 223.99167Q24.565638 223.24167 24.471888 222.91354Q24.346888 222.47604 24.050013 222.2573Q23.737513 222.03854 23.284388 222.03854Q22.862513 222.03854 22.534388 222.24167Q22.206263 222.4448 22.096888 222.83542Q21.971888 223.21042 21.971888 224.1323L21.971888 225.85104L24.565638 225.85104ZM28.534388 225.85104L28.534388 223.71042Q28.534388 223.16354 28.487513 222.9448Q28.425013 222.53854 28.268763 222.28854Q28.096888 222.02292 27.784388 221.85104Q27.471888 221.67917 27.065638 221.67917Q26.581263 221.67917 26.221888 221.92917Q25.862513 222.16354 25.721888 222.60104Q25.581263 223.03854 25.581263 223.86667L25.581263 225.85104L28.534388 225.85104ZM28.784388 215.0073Q29.284388 215.60104 29.487513 216.14792Q29.690638 216.67917 29.690638 217.30417Q29.690638 218.33542 29.190638 218.8823Q28.690638 219.42917 27.909388 219.42917Q27.456263 219.42917 27.081263 219.22604Q26.690638 219.02292 26.471888 218.67917Q26.237513 218.33542 26.128138 217.91354Q26.034388 217.61667 25.956263 216.97604Q25.815638 215.71042 25.596888 215.10104Q25.378138 215.10104 25.331263 215.10104Q24.675013 215.10104 24.409388 215.39792Q24.065638 215.80417 24.065638 216.60104Q24.065638 217.33542 24.331263 217.6948Q24.581263 218.05417 25.237513 218.22604L25.096888 219.2573Q24.440638 219.11667 24.034388 218.78854Q23.628138 218.46042 23.409388 217.85104Q23.190638 217.24167 23.190638 216.4448Q23.190638 215.64792 23.378138 215.14792Q23.565638 214.64792 23.846888 214.41354Q24.128138 214.17917 24.565638 214.08542Q24.831263 214.03854 25.534388 214.03854L26.940638 214.03854Q28.409388 214.03854 28.800013 213.97604Q29.190638 213.89792 29.550013 213.6948L29.550013 214.80417Q29.221888 214.96042 28.784388 215.0073ZM26.425013 215.10104Q26.659388 215.67917 26.831263 216.8198Q26.925013 217.47604 27.050013 217.74167Q27.159388 218.0073 27.378138 218.16354Q27.596888 218.30417 27.878138 218.30417Q28.300013 218.30417 28.581263 217.99167Q28.862513 217.66354 28.862513 217.05417Q28.862513 216.4448 28.596888 215.97604Q28.331263 215.49167 27.862513 215.27292Q27.503138 215.10104 26.815638 215.10104L26.425013 215.10104ZM28.612513 209.77292L29.534388 209.61667Q29.628138 210.0698 29.628138 210.41354Q29.628138 210.99167 29.456263 211.30417Q29.268763 211.61667 28.971888 211.7573Q28.675013 211.8823 27.721888 211.8823L24.143763 211.8823L24.143763 212.64792L23.331263 212.64792L23.331263 211.8823L21.784388 211.8823L21.159388 210.83542L23.331263 210.83542L23.331263 209.77292L24.143763 209.77292L24.143763 210.83542L27.784388 210.83542Q28.237513 210.83542 28.362513 210.78854Q28.487513 210.72604 28.565638 210.60104Q28.643763 210.47604 28.643763 210.24167Q28.643763 210.05417 28.612513 209.77292ZM27.268763 205.0073L27.409388 203.97604Q28.471888 204.14792 29.081263 204.85104Q29.690638 205.55417 29.690638 206.5698Q29.690638 207.85104 28.862513 208.6323Q28.018763 209.39792 26.456263 209.39792Q25.456263 209.39792 24.706263 209.0698Q23.940638 208.72604 23.565638 208.05417Q23.190638 207.36667 23.190638 206.55417Q23.190638 205.55417 23.706263 204.91354Q24.206263 204.2573 25.159388 204.0698L25.315638 205.10104Q24.690638 205.24167 24.378138 205.61667Q24.050013 205.99167 24.050013 206.52292Q24.050013 207.3198 24.628138 207.8198Q25.190638 208.3198 26.425013 208.3198Q27.690638 208.3198 28.253138 207.83542Q28.815638 207.35104 28.815638 206.58542Q28.815638 205.96042 28.440638 205.55417Q28.065638 205.1323 27.268763 205.0073ZM29.550013 203.0698L20.956263 203.0698L20.956263 202.02292L24.034388 202.02292Q23.190638 201.28854 23.190638 200.16354Q23.190638 199.46042 23.471888 198.96042Q23.737513 198.4448 24.221888 198.22604Q24.690638 198.0073 25.612513 198.0073L29.550013 198.0073L29.550013 199.05417L25.612513 199.05417Q24.815638 199.05417 24.456263 199.39792Q24.096888 199.74167 24.096888 200.36667Q24.096888 200.83542 24.346888 201.2573Q24.581263 201.66354 25.003138 201.85104Q25.409388 202.02292 26.143763 202.02292L29.550013 202.02292L29.550013 203.0698ZM29.690638 193.86667L20.815638 191.3823L20.815638 190.53854L29.690638 193.02292L29.690638 193.86667ZM26.784388 187.3198L26.690638 186.2573Q27.346888 186.17917 27.753138 185.89792Q28.159388 185.61667 28.425013 185.03854Q28.675013 184.4448 28.675013 183.71042Q28.675013 183.0698 28.487513 182.5698Q28.284388 182.0698 27.956263 181.83542Q27.612513 181.58542 27.221888 181.58542Q26.815638 181.58542 26.518763 181.8198Q26.206263 182.05417 26.003138 182.58542Q25.862513 182.9448 25.581263 184.1323Q25.300013 185.30417 25.050013 185.77292Q24.721888 186.39792 24.253138 186.6948Q23.768763 186.99167 23.175013 186.99167Q22.534388 186.99167 21.971888 186.6323Q21.393763 186.2573 21.112513 185.55417Q20.815638 184.83542 20.815638 183.97604Q20.815638 183.02292 21.128138 182.28854Q21.425013 181.55417 22.034388 181.16354Q22.628138 180.77292 23.378138 180.74167L23.456263 181.83542Q22.643763 181.92917 22.237513 182.4448Q21.815638 182.9448 21.815638 183.92917Q21.815638 184.96042 22.190638 185.42917Q22.565638 185.89792 23.096888 185.89792Q23.565638 185.89792 23.862513 185.5698Q24.159388 185.24167 24.471888 183.86667Q24.784388 182.47604 25.018763 181.96042Q25.378138 181.21042 25.909388 180.85104Q26.425013 180.49167 27.128138 180.49167Q27.815638 180.49167 28.425013 180.8823Q29.018763 181.27292 29.362513 182.0073Q29.690638 182.74167 29.690638 183.66354Q29.690638 184.83542 29.362513 185.6323Q29.018763 186.41354 28.331263 186.86667Q27.643763 187.30417 26.784388 187.3198ZM27.550013 174.8198L27.675013 173.72604Q28.628138 173.97604 29.159388 174.67917Q29.690638 175.3823 29.690638 176.46042Q29.690638 177.8198 28.846888 178.6323Q28.003138 179.42917 26.487513 179.42917Q24.925013 179.42917 24.065638 178.61667Q23.190638 177.80417 23.190638 176.52292Q23.190638 175.27292 24.034388 174.49167Q24.878138 173.6948 26.425013 173.6948Q26.518763 173.6948 26.706263 173.6948L26.706263 178.33542Q27.737513 178.27292 28.284388 177.7573Q28.815638 177.24167 28.815638 176.46042Q28.815638 175.8823 28.518763 175.47604Q28.206263 175.05417 27.550013 174.8198ZM25.846888 178.27292L25.846888 174.80417Q25.050013 174.86667 24.659388 175.1948Q24.050013 175.71042 24.050013 176.5073Q24.050013 177.24167 24.534388 177.74167Q25.018763 178.22604 25.846888 178.27292ZM27.268763 168.0073L27.409388 166.97604Q28.471888 167.14792 29.081263 167.85104Q29.690638 168.55417 29.690638 169.5698Q29.690638 170.85104 28.862513 171.6323Q28.018763 172.39792 26.456263 172.39792Q25.456263 172.39792 24.706263 172.0698Q23.940638 171.72604 23.565638 171.05417Q23.190638 170.36667 23.190638 169.55417Q23.190638 168.55417 23.706263 167.91354Q24.206263 167.2573 25.159388 167.0698L25.315638 168.10104Q24.690638 168.24167 24.378138 168.61667Q24.050013 168.99167 24.050013 169.52292Q24.050013 170.3198 24.628138 170.8198Q25.190638 171.3198 26.425013 171.3198Q27.690638 171.3198 28.253138 170.83542Q28.815638 170.35104 28.815638 169.58542Q28.815638 168.96042 28.440638 168.55417Q28.065638 168.1323 27.268763 168.0073Z" fill-rule="nonzero"/><path fill="#000000" d="M65.05 332.21564Q65.05 330.6844 65.3625 329.7625Q65.675 328.825 66.28438 328.325Q66.90938 327.825 67.84688 327.825Q68.53438 327.825 69.05 328.10626Q69.58125 328.3875 69.925 328.91876Q70.26875 329.4344 70.45625 330.1844Q70.64375 330.9344 70.64375 332.21564Q70.64375 333.73126 70.33125 334.65314Q70.03438 335.575 69.40938 336.09064Q68.8 336.59064 67.84688 336.59064Q66.6125 336.59064 65.89375 335.7Q65.05 334.6375 65.05 332.21564ZM66.12813 332.21564Q66.12813 334.325 66.62813 335.02814Q67.12813 335.73126 67.84688 335.73126Q68.58125 335.73126 69.06563 335.02814Q69.56563 334.325 69.56563 332.21564Q69.56563 330.09064 69.06563 329.40314Q68.58125 328.7 67.83125 328.7Q67.1125 328.7 66.675 329.3094Q66.12813 330.09064 66.12813 332.21564Z" fill-rule="nonzero"/><path fill="#000000" d="M70.59688 274.3927L70.59688 275.40833L64.90938 275.40833Q64.90938 275.03333 65.03438 274.67395Q65.25313 274.09583 65.72188 273.53333Q66.20625 272.97083 67.1125 272.23645Q68.51875 271.0802 69.00313 270.40833Q69.50313 269.73645 69.50313 269.1427Q69.50313 268.5177 69.05 268.09583Q68.59688 267.65833 67.87813 267.65833Q67.1125 267.65833 66.65938 268.11145Q66.20625 268.56458 66.19063 269.37708L65.1125 269.2677Q65.22188 268.04895 65.94063 267.42395Q66.675 266.78333 67.90938 266.78333Q69.14375 266.78333 69.8625 267.47083Q70.58125 268.15833 70.58125 269.17395Q70.58125 269.68958 70.3625 270.18958Q70.15938 270.67395 69.65938 271.23645Q69.175 271.78333 68.05 272.73645Q67.09688 273.53333 66.81563 273.8302Q66.55 274.11145 66.37813 274.3927L70.59688 274.3927Z" fill-rule="nonzero"/><path fill="#000000" d="M68.425 214.36667L68.425 212.30417L64.70625 212.30417L64.70625 211.33542L68.62813 205.77292L69.4875 205.77292L69.4875 211.33542L70.64375 211.33542L70.64375 212.30417L69.4875 212.30417L69.4875 214.36667L68.425 214.36667ZM68.425 211.33542L68.425 207.47604L65.7375 211.33542L68.425 211.33542Z" fill-rule="nonzero"/><path fill="#000000" d="M70.51875 146.84062L69.47188 146.91875Q69.33125 146.29375 69.08125 146.0125Q68.64375 145.55937 68.01875 145.55937Q67.51875 145.55937 67.12813 145.84062Q66.64375 146.21562 66.34688 146.91875Q66.06563 147.60625 66.05 148.8875Q66.425 148.30937 66.97188 148.02812Q67.53438 147.74687 68.14375 147.74687Q69.19063 147.74687 69.925 148.52812Q70.675 149.30937 70.675 150.52812Q70.675 151.34062 70.31563 152.04375Q69.97188 152.73125 69.3625 153.10625Q68.75313 153.46562 67.9875 153.46562Q66.65938 153.46562 65.83125 152.49687Q65.00313 151.52812 65.00313 149.30937Q65.00313 146.80937 65.925 145.68437Q66.72188 144.7 68.08125 144.7Q69.09688 144.7 69.7375 145.27812Q70.39375 145.84062 70.51875 146.84062ZM66.22188 150.54375Q66.22188 151.09062 66.44063 151.59062Q66.675 152.075 67.08125 152.34062Q67.50313 152.60625 67.97188 152.60625Q68.62813 152.60625 69.1125 152.075Q69.59688 151.52812 69.59688 150.60625Q69.59688 149.71562 69.1125 149.2Q68.64375 148.68437 67.925 148.68437Q67.20625 148.68437 66.70625 149.2Q66.22188 149.71562 66.22188 150.54375Z" fill-rule="nonzero"/><path fill="#000000" d="M66.675 87.62708Q66.01875 87.37708 65.69063 86.93958Q65.37813 86.48646 65.37813 85.87708Q65.37813 84.93958 66.05 84.29896Q66.7375 83.65833 67.84688 83.65833Q68.97188 83.65833 69.65938 84.31458Q70.34688 84.97083 70.34688 85.90833Q70.34688 86.50208 70.03438 86.93958Q69.72188 87.37708 69.08125 87.62708Q69.87813 87.87708 70.28438 88.45521Q70.69063 89.03333 70.69063 89.83021Q70.69063 90.92396 69.90938 91.67396Q69.14375 92.42396 67.8625 92.42396Q66.59688 92.42396 65.81563 91.67396Q65.03438 90.92396 65.03438 89.79896Q65.03438 88.95521 65.45625 88.39271Q65.89375 87.83021 66.675 87.62708ZM66.45625 85.83021Q66.45625 86.43958 66.84688 86.83021Q67.25313 87.22083 67.87813 87.22083Q68.4875 87.22083 68.87813 86.84583Q69.26875 86.45521 69.26875 85.89271Q69.26875 85.31458 68.8625 84.92396Q68.45625 84.51771 67.8625 84.51771Q67.25313 84.51771 66.84688 84.90833Q66.45625 85.29896 66.45625 85.83021ZM66.12813 89.79896Q66.12813 90.25208 66.33125 90.67396Q66.55 91.09583 66.97188 91.33021Q67.39375 91.56458 67.87813 91.56458Q68.62813 91.56458 69.1125 91.08021Q69.6125 90.59583 69.6125 89.84583Q69.6125 89.08021 69.1125 88.58021Q68.6125 88.08021 67.84688 88.08021Q67.09688 88.08021 66.6125 88.58021Q66.12813 89.06458 66.12813 89.79896Z" fill-rule="nonzero"/><path fill="#000000" d="M158.64459 346.4344L159.76959 346.73126Q159.41022 348.1219 158.48834 348.85626Q157.56647 349.59064 156.22272 349.59064Q154.83209 349.59064 153.95709 349.02814Q153.08209 348.46564 152.62897 347.40314Q152.17584 346.325 152.17584 345.09064Q152.17584 343.7469 152.69147 342.7469Q153.20709 341.7469 154.14459 341.23126Q155.09772 340.71564 156.23834 340.71564Q157.51959 340.71564 158.39459 341.3719Q159.28522 342.02814 159.62897 343.21564L158.50397 343.48126Q158.20709 342.54376 157.62897 342.1219Q157.06647 341.6844 156.20709 341.6844Q155.22272 341.6844 154.55084 342.16876Q153.89459 342.6375 153.61334 343.4344Q153.34772 344.23126 153.34772 345.09064Q153.34772 346.1844 153.66022 346.9969Q153.98834 347.8094 154.66022 348.21564Q155.33209 348.6219 156.12897 348.6219Q157.08209 348.6219 157.73834 348.075Q158.41022 347.52814 158.64459 346.4344ZM161.45709 349.45L161.45709 340.85626L162.59772 340.85626L162.59772 348.4344L166.83209 348.4344L166.83209 349.45L161.45709 349.45ZM168.70709 349.45L168.70709 340.85626L169.83209 340.85626L169.83209 349.45L168.70709 349.45ZM171.50397 349.45L171.50397 340.85626L174.75397 340.85626Q175.59772 340.85626 176.05084 340.9344Q176.69147 341.04376 177.11334 341.34064Q177.55084 341.6375 177.80084 342.16876Q178.06647 342.7 178.06647 343.34064Q178.06647 344.4344 177.36334 345.2Q176.67584 345.95 174.84772 345.95L172.64459 345.95L172.64459 349.45L171.50397 349.45ZM172.64459 344.95L174.86334 344.95Q175.97272 344.95 176.42584 344.54376Q176.89459 344.1219 176.89459 343.3719Q176.89459 342.84064 176.61334 342.46564Q176.34772 342.075 175.91022 341.95Q175.61334 341.8719 174.84772 341.8719L172.64459 341.8719L172.64459 344.95ZM182.45709 349.45L182.45709 340.85626L185.69147 340.85626Q186.67584 340.85626 187.26959 341.1219Q187.86334 341.3875 188.19147 341.9344Q188.53522 342.46564 188.53522 343.0594Q188.53522 343.60626 188.23834 344.09064Q187.94147 344.575 187.33209 344.8719Q188.11334 345.10626 188.51959 345.66876Q188.94147 346.21564 188.94147 346.96564Q188.94147 347.5594 188.69147 348.09064Q188.44147 348.60626 188.06647 348.8875Q187.69147 349.16876 187.11334 349.3094Q186.55084 349.45 185.73834 349.45L182.45709 349.45ZM183.59772 344.46564L185.45709 344.46564Q186.20709 344.46564 186.53522 344.3719Q186.97272 344.2469 187.19147 343.95Q187.41022 343.6375 187.41022 343.1844Q187.41022 342.7625 187.20709 342.4344Q187.00397 342.10626 186.61334 341.9969Q186.23834 341.8719 185.31647 341.8719L183.59772 341.8719L183.59772 344.46564ZM183.59772 348.4344L185.73834 348.4344Q186.28522 348.4344 186.50397 348.3875Q186.91022 348.325 187.16022 348.16876Q187.42584 347.9969 187.59772 347.6844Q187.76959 347.3719 187.76959 346.96564Q187.76959 346.48126 187.51959 346.1219Q187.28522 345.7625 186.84772 345.6219Q186.41022 345.48126 185.58209 345.48126L183.59772 345.48126L183.59772 348.4344ZM189.58209 349.59064L192.06647 340.71564L192.91022 340.71564L190.42584 349.59064L189.58209 349.59064ZM193.08209 347.1844L194.14459 347.04376Q194.31647 347.9344 194.75397 348.34064Q195.19147 348.73126 195.81647 348.73126Q196.56647 348.73126 197.08209 348.21564Q197.59772 347.7 197.59772 346.9344Q197.59772 346.21564 197.11334 345.7469Q196.64459 345.2625 195.91022 345.2625Q195.61334 345.2625 195.16022 345.3875L195.28522 344.45Q195.39459 344.46564 195.45709 344.46564Q196.12897 344.46564 196.66022 344.1219Q197.20709 343.7625 197.20709 343.02814Q197.20709 342.45 196.81647 342.075Q196.42584 341.6844 195.80084 341.6844Q195.19147 341.6844 194.76959 342.075Q194.36334 342.46564 194.25397 343.23126L193.19147 343.04376Q193.37897 341.9969 194.06647 341.41876Q194.75397 340.825 195.76959 340.825Q196.47272 340.825 197.06647 341.1375Q197.66022 341.4344 197.97272 341.95Q198.28522 342.46564 198.28522 343.0594Q198.28522 343.60626 197.98834 344.075Q197.69147 344.52814 197.11334 344.79376Q197.86334 344.96564 198.28522 345.52814Q198.70709 346.075 198.70709 346.91876Q198.70709 348.04376 197.87897 348.825Q197.06647 349.60626 195.81647 349.60626Q194.69147 349.60626 193.94147 348.9344Q193.19147 348.2469 193.08209 347.1844ZM205.62897 348.4344L205.62897 349.45L199.94147 349.45Q199.94147 349.075 200.06647 348.71564Q200.28522 348.1375 200.75397 347.575Q201.23834 347.0125 202.14459 346.27814Q203.55084 345.1219 204.03522 344.45Q204.53522 343.77814 204.53522 343.1844Q204.53522 342.5594 204.08209 342.1375Q203.62897 341.7 202.91022 341.7Q202.14459 341.7 201.69147 342.15314Q201.23834 342.60626 201.22272 343.41876L200.14459 343.3094Q200.25397 342.09064 200.97272 341.46564Q201.70709 340.825 202.94147 340.825Q204.17584 340.825 204.89459 341.5125Q205.61334 342.2 205.61334 343.21564Q205.61334 343.73126 205.39459 344.23126Q205.19147 344.71564 204.69147 345.27814Q204.20709 345.825 203.08209 346.77814Q202.12897 347.575 201.84772 347.8719Q201.58209 348.15314 201.41022 348.4344L205.62897 348.4344Z" fill-rule="nonzero"/><path fill="#000000" d="M308.5625 346.4344L309.6875 346.73126Q309.32812 348.1219 308.40625 348.85626Q307.48438 349.59064 306.14062 349.59064Q304.75 349.59064 303.875 349.02814Q303.0 348.46564 302.54688 347.40314Q302.09375 346.325 302.09375 345.09064Q302.09375 343.7469 302.60938 342.7469Q303.125 341.7469 304.0625 341.23126Q305.01562 340.71564 306.15625 340.71564Q307.4375 340.71564 308.3125 341.3719Q309.20312 342.02814 309.54688 343.21564L308.42188 343.48126Q308.125 342.54376 307.54688 342.1219Q306.98438 341.6844 306.125 341.6844Q305.14062 341.6844 304.46875 342.16876Q303.8125 342.6375 303.53125 343.4344Q303.26562 344.23126 303.26562 345.09064Q303.26562 346.1844 303.57812 346.9969Q303.90625 347.8094 304.57812 348.21564Q305.25 348.6219 306.04688 348.6219Q307.0 348.6219 307.65625 348.075Q308.32812 347.52814 308.5625 346.4344ZM311.375 349.45L311.375 340.85626L312.51562 340.85626L312.51562 348.4344L316.75 348.4344L316.75 349.45L311.375 349.45ZM318.625 349.45L318.625 340.85626L319.75 340.85626L319.75 349.45L318.625 349.45ZM321.42188 349.45L321.42188 340.85626L324.67188 340.85626Q325.51562 340.85626 325.96875 340.9344Q326.60938 341.04376 327.03125 341.34064Q327.46875 341.6375 327.71875 342.16876Q327.98438 342.7 327.98438 343.34064Q327.98438 344.4344 327.28125 345.2Q326.59375 345.95 324.76562 345.95L322.5625 345.95L322.5625 349.45L321.42188 349.45ZM322.5625 344.95L324.78125 344.95Q325.89062 344.95 326.34375 344.54376Q326.8125 344.1219 326.8125 343.3719Q326.8125 342.84064 326.53125 342.46564Q326.26562 342.075 325.82812 341.95Q325.53125 341.8719 324.76562 341.8719L322.5625 341.8719L322.5625 344.95ZM332.46875 349.45L332.46875 340.85626L333.59375 340.85626L333.59375 344.3875L338.0625 344.3875L338.0625 340.85626L339.20312 340.85626L339.20312 349.45L338.0625 349.45L338.0625 345.40314L333.59375 345.40314L333.59375 349.45L332.46875 349.45ZM340.5 349.59064L342.98438 340.71564L343.82812 340.71564L341.34375 349.59064L340.5 349.59064ZM347.96875 349.45L346.92188 349.45L346.92188 342.73126Q346.53125 343.09064 345.90625 343.46564Q345.29688 343.825 344.8125 343.9969L344.8125 342.98126Q345.6875 342.5594 346.34375 341.98126Q347.01562 341.3875 347.29688 340.825L347.96875 340.825L347.96875 349.45ZM354.375 349.45L354.375 347.3875L350.65625 347.3875L350.65625 346.41876L354.57812 340.85626L355.4375 340.85626L355.4375 346.41876L356.59375 346.41876L356.59375 347.3875L355.4375 347.3875L355.4375 349.45L354.375 349.45ZM354.375 346.41876L354.375 342.5594L351.6875 346.41876L354.375 346.41876Z" fill-rule="nonzero"/><path fill="#000000" d="M459.9804 346.4344L461.1054 346.73126Q460.74603 348.1219 459.82416 348.85626Q458.90228 349.59064 457.55853 349.59064Q456.1679 349.59064 455.2929 349.02814Q454.4179 348.46564 453.96478 347.40314Q453.51166 346.325 453.51166 345.09064Q453.51166 343.7469 454.02728 342.7469Q454.5429 341.7469 455.4804 341.23126Q456.43353 340.71564 457.57416 340.71564Q458.8554 340.71564 459.7304 341.3719Q460.62103 342.02814 460.96478 343.21564L459.83978 343.48126Q459.5429 342.54376 458.96478 342.1219Q458.40228 341.6844 457.5429 341.6844Q456.55853 341.6844 455.88666 342.16876Q455.2304 342.6375 454.94916 343.4344Q454.68353 344.23126 454.68353 345.09064Q454.68353 346.1844 454.99603 346.9969Q455.32416 347.8094 455.99603 348.21564Q456.6679 348.6219 457.46478 348.6219Q458.4179 348.6219 459.07416 348.075Q459.74603 347.52814 459.9804 346.4344ZM462.7929 349.45L462.7929 340.85626L463.93353 340.85626L463.93353 348.4344L468.1679 348.4344L468.1679 349.45L462.7929 349.45ZM470.0429 349.45L470.0429 340.85626L471.1679 340.85626L471.1679 349.45L470.0429 349.45ZM472.83978 349.45L472.83978 340.85626L476.08978 340.85626Q476.93353 340.85626 477.38666 340.9344Q478.02728 341.04376 478.44916 341.34064Q478.88666 341.6375 479.13666 342.16876Q479.40228 342.7 479.40228 343.34064Q479.40228 344.4344 478.69916 345.2Q478.01166 345.95 476.18353 345.95L473.9804 345.95L473.9804 349.45L472.83978 349.45ZM473.9804 344.95L476.19916 344.95Q477.30853 344.95 477.76166 344.54376Q478.2304 344.1219 478.2304 343.3719Q478.2304 342.84064 477.94916 342.46564Q477.68353 342.075 477.24603 341.95Q476.94916 341.8719 476.18353 341.8719L473.9804 341.8719L473.9804 344.95ZM483.51166 349.96564L484.5429 350.1219Q484.6054 350.59064 484.90228 350.8094Q485.2929 351.10626 485.96478 351.10626Q486.69916 351.10626 487.08978 350.8094Q487.49603 350.5125 487.63666 349.9969Q487.7304 349.66876 487.71478 348.6375Q487.02728 349.45 485.99603 349.45Q484.71478 349.45 484.01166 348.52814Q483.30853 347.59064 483.30853 346.3094Q483.30853 345.41876 483.62103 344.66876Q483.94916 343.90314 484.55853 343.4969Q485.1679 343.09064 485.99603 343.09064Q487.1054 343.09064 487.82416 343.98126L487.82416 343.23126L488.7929 343.23126L488.7929 348.60626Q488.7929 350.0594 488.49603 350.66876Q488.19916 351.27814 487.55853 351.6219Q486.9179 351.98126 485.9804 351.98126Q484.87103 351.98126 484.18353 351.48126Q483.49603 350.98126 483.51166 349.96564ZM484.38666 346.23126Q484.38666 347.45 484.87103 348.0125Q485.3554 348.575 486.08978 348.575Q486.82416 348.575 487.30853 348.0125Q487.80853 347.45 487.80853 346.2625Q487.80853 345.1219 487.2929 344.54376Q486.7929 343.96564 486.07416 343.96564Q485.37103 343.96564 484.87103 344.54376Q484.38666 345.10626 484.38666 346.23126ZM489.9179 349.59064L492.40228 340.71564L493.24603 340.71564L490.76166 349.59064L489.9179 349.59064ZM497.38666 349.45L496.33978 349.45L496.33978 342.73126Q495.94916 343.09064 495.32416 343.46564Q494.71478 343.825 494.2304 343.9969L494.2304 342.98126Q495.1054 342.5594 495.76166 341.98126Q496.43353 341.3875 496.71478 340.825L497.38666 340.825L497.38666 349.45ZM503.7929 349.45L503.7929 347.3875L500.07416 347.3875L500.07416 346.41876L503.99603 340.85626L504.8554 340.85626L504.8554 346.41876L506.01166 346.41876L506.01166 347.3875L504.8554 347.3875L504.8554 349.45L503.7929 349.45ZM503.7929 346.41876L503.7929 342.5594L501.1054 346.41876L503.7929 346.41876Z" fill-rule="nonzero"/><path fill="#b6d7a8" d="M216.0 56.916668C216.0 56.364384 216.44771 55.916668 217.0 55.916668L227.0 55.916668C227.55229 55.916668 228.0 56.364384 228.0 56.916668L228.0 66.916664C228.0 67.46895 227.55229 67.916664 227.0 67.916664L217.0 67.916664C216.44771 67.916664 216.0 67.46895 216.0 66.916664Z" fill-rule="nonzero"/><path fill="#1a1a1a" d="M236.875 57.322914L240.03125 57.322914Q241.10938 57.322914 241.67188 57.49479Q242.42188 57.71354 242.95312 58.291664Q243.5 58.854164 243.78125 59.68229Q244.0625 60.49479 244.0625 61.697914Q244.0625 62.760414 243.8125 63.52604Q243.48438 64.46354 242.89062 65.041664Q242.4375 65.49479 241.67188 65.729164Q241.09375 65.916664 240.125 65.916664L236.875 65.916664L236.875 57.322914ZM238.60938 58.77604L238.60938 64.46354L239.89062 64.46354Q240.625 64.46354 240.95312 64.385414Q241.375 64.27604 241.64062 64.02604Q241.92188 63.77604 242.09375 63.197914Q242.28125 62.61979 242.28125 61.61979Q242.28125 60.635414 242.09375 60.104164Q241.92188 59.55729 241.60938 59.260414Q241.29688 58.96354 240.8125 58.854164Q240.4375 58.77604 239.375 58.77604L238.60938 58.77604ZM248.875 62.760414L248.875 61.30729L252.60938 61.30729L252.60938 64.729164Q252.0625 65.260414 251.03125 65.666664Q250.0 66.05729 248.9375 66.05729Q247.59375 66.05729 246.57812 65.49479Q245.57812 64.93229 245.07812 63.885414Q244.57812 62.822914 244.57812 61.58854Q244.57812 60.24479 245.14062 59.21354Q245.70312 58.166664 246.78125 57.604164Q247.60938 57.18229 248.84375 57.18229Q250.4375 57.18229 251.32812 57.854164Q252.23438 58.52604 252.5 59.697914L250.78125 60.02604Q250.59375 59.40104 250.09375 59.041664Q249.59375 58.666664 248.84375 58.666664Q247.70312 58.666664 247.03125 59.385414Q246.35938 60.104164 246.35938 61.52604Q246.35938 63.05729 247.03125 63.822914Q247.71875 64.572914 248.82812 64.572914Q249.375 64.572914 249.92188 64.36979Q250.46875 64.15104 250.85938 63.854164L250.85938 62.760414L248.875 62.760414ZM252.0 65.916664L254.9375 61.43229L252.28125 57.322914L254.29688 57.322914L256.03125 60.08854L257.71875 57.322914L259.71875 57.322914L257.04688 61.49479L259.98438 65.916664L257.89062 65.916664L255.98438 62.947914L254.07812 65.916664L252.0 65.916664ZM271.625 65.916664L269.73438 65.916664L268.98438 63.96354L265.54688 63.96354L264.84375 65.916664L263.0 65.916664L266.34375 57.322914L268.1875 57.322914L271.625 65.916664ZM268.42188 62.510414L267.25 59.322914L266.07812 62.510414L268.42188 62.510414ZM275.71875 65.916664L274.07812 65.916664L274.07812 59.71354Q273.17188 60.55729 271.95312 60.96354L271.95312 59.46354Q272.59375 59.260414 273.34375 58.666664Q274.10938 58.072914 274.39062 57.291664L275.71875 57.291664L275.71875 65.916664ZM281.29688 57.291664Q282.54688 57.291664 283.25 58.18229Q284.07812 59.229164 284.07812 61.68229Q284.07812 64.11979 283.23438 65.18229Q282.54688 66.05729 281.29688 66.05729Q280.04688 66.05729 279.26562 65.104164Q278.5 64.135414 278.5 61.666664Q278.5 59.229164 279.34375 58.166664Q280.04688 57.291664 281.29688 57.291664ZM281.29688 58.65104Q281.0 58.65104 280.76562 58.854164Q280.53125 59.041664 280.39062 59.52604Q280.23438 60.166664 280.23438 61.68229Q280.23438 63.197914 280.375 63.760414Q280.53125 64.322914 280.76562 64.510414Q281.0 64.697914 281.29688 64.697914Q281.59375 64.697914 281.82812 64.510414Q282.0625 64.322914 282.1875 63.822914Q282.35938 63.197914 282.35938 61.68229Q282.35938 60.166664 282.20312 59.604164Q282.0625 59.041664 281.82812 58.854164Q281.59375 58.65104 281.29688 58.65104ZM288.29688 57.291664Q289.54688 57.291664 290.25 58.18229Q291.07812 59.229164 291.07812 61.68229Q291.07812 64.11979 290.23438 65.18229Q289.54688 66.05729 288.29688 66.05729Q287.04688 66.05729 286.26562 65.104164Q285.5 64.135414 285.5 61.666664Q285.5 59.229164 286.34375 58.166664Q287.04688 57.291664 288.29688 57.291664ZM288.29688 58.65104Q288.0 58.65104 287.76562 58.854164Q287.53125 59.041664 287.39062 59.52604Q287.23438 60.166664 287.23438 61.68229Q287.23438 63.197914 287.375 63.760414Q287.53125 64.322914 287.76562 64.510414Q288.0 64.697914 288.29688 64.697914Q288.59375 64.697914 288.82812 64.510414Q289.0625 64.322914 289.1875 63.822914Q289.35938 63.197914 289.35938 61.68229Q289.35938 60.166664 289.20312 59.604164Q289.0625 59.041664 288.82812 58.854164Q288.59375 58.65104 288.29688 58.65104Z" fill-rule="nonzero"/><path fill="#38761d" d="M308.0 56.916668C308.0 56.364384 308.44772 55.916668 309.0 55.916668L319.0 55.916668C319.55228 55.916668 320.0 56.364384 320.0 56.916668L320.0 66.916664C320.0 67.46895 319.55228 67.916664 319.0 67.916664L309.0 67.916664C308.44772 67.916664 308.0 67.46895 308.0 66.916664Z" fill-rule="nonzero"/><path fill="#1a1a1a" d="M328.875 57.322914L332.03125 57.322914Q333.10938 57.322914 333.67188 57.49479Q334.42188 57.71354 334.95312 58.291664Q335.5 58.854164 335.78125 59.68229Q336.0625 60.49479 336.0625 61.697914Q336.0625 62.760414 335.8125 63.52604Q335.48438 64.46354 334.89062 65.041664Q334.4375 65.49479 333.67188 65.729164Q333.09375 65.916664 332.125 65.916664L328.875 65.916664L328.875 57.322914ZM330.60938 58.77604L330.60938 64.46354L331.89062 64.46354Q332.625 64.46354 332.95312 64.385414Q333.375 64.27604 333.64062 64.02604Q333.92188 63.77604 334.09375 63.197914Q334.28125 62.61979 334.28125 61.61979Q334.28125 60.635414 334.09375 60.104164Q333.92188 59.55729 333.60938 59.260414Q333.29688 58.96354 332.8125 58.854164Q332.4375 58.77604 331.375 58.77604L330.60938 58.77604ZM340.875 62.760414L340.875 61.30729L344.60938 61.30729L344.60938 64.729164Q344.0625 65.260414 343.03125 65.666664Q342.0 66.05729 340.9375 66.05729Q339.59375 66.05729 338.57812 65.49479Q337.57812 64.93229 337.07812 63.885414Q336.57812 62.822914 336.57812 61.58854Q336.57812 60.24479 337.14062 59.21354Q337.70312 58.166664 338.78125 57.604164Q339.60938 57.18229 340.84375 57.18229Q342.4375 57.18229 343.32812 57.854164Q344.23438 58.52604 344.5 59.697914L342.78125 60.02604Q342.59375 59.40104 342.09375 59.041664Q341.59375 58.666664 340.84375 58.666664Q339.70312 58.666664 339.03125 59.385414Q338.35938 60.104164 338.35938 61.52604Q338.35938 63.05729 339.03125 63.822914Q339.71875 64.572914 340.82812 64.572914Q341.375 64.572914 341.92188 64.36979Q342.46875 64.15104 342.85938 63.854164L342.85938 62.760414L340.875 62.760414ZM344.0 65.916664L346.9375 61.43229L344.28125 57.322914L346.29688 57.322914L348.03125 60.08854L349.71875 57.322914L351.71875 57.322914L349.04688 61.49479L351.98438 65.916664L349.89062 65.916664L347.98438 62.947914L346.07812 65.916664L344.0 65.916664ZM355.875 65.916664L355.875 57.322914L357.60938 57.322914L357.60938 60.71354L361.01562 60.71354L361.01562 57.322914L362.75 57.322914L362.75 65.916664L361.01562 65.916664L361.01562 62.166664L357.60938 62.166664L357.60938 65.916664L355.875 65.916664ZM367.71875 65.916664L366.07812 65.916664L366.07812 59.71354Q365.17188 60.55729 363.95312 60.96354L363.95312 59.46354Q364.59375 59.260414 365.34375 58.666664Q366.10938 58.072914 366.39062 57.291664L367.71875 57.291664L367.71875 65.916664ZM373.29688 57.291664Q374.54688 57.291664 375.25 58.18229Q376.07812 59.229164 376.07812 61.68229Q376.07812 64.11979 375.23438 65.18229Q374.54688 66.05729 373.29688 66.05729Q372.04688 66.05729 371.26562 65.104164Q370.5 64.135414 370.5 61.666664Q370.5 59.229164 371.34375 58.166664Q372.04688 57.291664 373.29688 57.291664ZM373.29688 58.65104Q373.0 58.65104 372.76562 58.854164Q372.53125 59.041664 372.39062 59.52604Q372.23438 60.166664 372.23438 61.68229Q372.23438 63.197914 372.375 63.760414Q372.53125 64.322914 372.76562 64.510414Q373.0 64.697914 373.29688 64.697914Q373.59375 64.697914 373.82812 64.510414Q374.0625 64.322914 374.1875 63.822914Q374.35938 63.197914 374.35938 61.68229Q374.35938 60.166664 374.20312 59.604164Q374.0625 59.041664 373.82812 58.854164Q373.59375 58.65104 373.29688 58.65104ZM380.29688 57.291664Q381.54688 57.291664 382.25 58.18229Q383.07812 59.229164 383.07812 61.68229Q383.07812 64.11979 382.23438 65.18229Q381.54688 66.05729 380.29688 66.05729Q379.04688 66.05729 378.26562 65.104164Q377.5 64.135414 377.5 61.666664Q377.5 59.229164 378.34375 58.166664Q379.04688 57.291664 380.29688 57.291664ZM380.29688 58.65104Q380.0 58.65104 379.76562 58.854164Q379.53125 59.041664 379.39062 59.52604Q379.23438 60.166664 379.23438 61.68229Q379.23438 63.197914 379.375 63.760414Q379.53125 64.322914 379.76562 64.510414Q380.0 64.697914 380.29688 64.697914Q380.59375 64.697914 380.82812 64.510414Q381.0625 64.322914 381.1875 63.822914Q381.35938 63.197914 381.35938 61.68229Q381.35938 60.166664 381.20312 59.604164Q381.0625 59.041664 380.82812 58.854164Q380.59375 58.65104 380.29688 58.65104Z" fill-rule="nonzero"/><path fill="#757575" d="M144.76562 32.534374L146.65625 33.003124Q146.0625 35.346874 144.51562 36.58125Q142.96875 37.8 140.71875 37.8Q138.40625 37.8 136.95312 36.8625Q135.51562 35.909374 134.75 34.128124Q134.0 32.33125 134.0 30.284374Q134.0 28.05 134.84375 26.39375Q135.70312 24.721874 137.28125 23.8625Q138.85938 22.9875 140.75 22.9875Q142.90625 22.9875 144.35938 24.08125Q145.82812 25.175 146.40625 27.159374L144.54688 27.596874Q144.04688 26.034374 143.09375 25.33125Q142.15625 24.6125 140.71875 24.6125Q139.0625 24.6125 137.95312 25.409374Q136.84375 26.190624 136.39062 27.534374Q135.95312 28.8625 135.95312 30.26875Q135.95312 32.096874 136.48438 33.471874Q137.01562 34.83125 138.14062 35.503124Q139.26562 36.175 140.5625 36.175Q142.15625 36.175 143.26562 35.253124Q144.375 34.33125 144.76562 32.534374ZM148.46875 37.55L148.46875 23.2375L150.35938 23.2375L150.35938 35.8625L157.40625 35.8625L157.40625 37.55L148.46875 37.55ZM159.85938 37.55L159.85938 23.2375L161.76562 23.2375L161.76562 37.55L159.85938 37.55ZM165.54688 37.55L165.54688 23.2375L170.9375 23.2375Q172.375 23.2375 173.125 23.3625Q174.17188 23.55 174.89062 24.05Q175.60938 24.534374 176.03125 25.425Q176.46875 26.315624 176.46875 27.378124Q176.46875 29.20625 175.29688 30.471874Q174.14062 31.721874 171.10938 31.721874L167.4375 31.721874L167.4375 37.55L165.54688 37.55ZM167.4375 30.034374L171.14062 30.034374Q172.96875 30.034374 173.73438 29.3625Q174.51562 28.675 174.51562 27.425Q174.51562 26.534374 174.0625 25.89375Q173.60938 25.253124 172.875 25.05Q172.39062 24.925 171.09375 24.925L167.4375 24.925L167.4375 30.034374ZM188.1875 37.55L188.1875 24.925L183.46875 24.925L183.46875 23.2375L194.8125 23.2375L194.8125 24.925L190.07812 24.925L190.07812 37.55L188.1875 37.55ZM196.29688 37.55L196.29688 27.175L197.875 27.175L197.875 28.753124Q198.48438 27.64375 199.0 27.3Q199.51562 26.940624 200.125 26.940624Q201.01562 26.940624 201.9375 27.503124L201.32812 29.14375Q200.6875 28.753124 200.04688 28.753124Q199.46875 28.753124 199.0 29.1125Q198.54688 29.45625 198.34375 30.065624Q198.0625 31.003124 198.0625 32.1125L198.0625 37.55L196.29688 37.55ZM210.09375 36.26875Q209.10938 37.096874 208.20312 37.440624Q207.29688 37.784374 206.26562 37.784374Q204.5625 37.784374 203.64062 36.95625Q202.71875 36.1125 202.71875 34.815624Q202.71875 34.05 203.0625 33.425Q203.42188 32.8 203.98438 32.425Q204.54688 32.034374 205.25 31.83125Q205.76562 31.70625 206.8125 31.565624Q208.9375 31.315624 209.9375 30.971874Q209.95312 30.6125 209.95312 30.503124Q209.95312 29.440624 209.45312 28.9875Q208.78125 28.39375 207.45312 28.39375Q206.20312 28.39375 205.60938 28.83125Q205.03125 29.26875 204.75 30.378124L203.03125 30.14375Q203.26562 29.034374 203.79688 28.3625Q204.32812 27.675 205.34375 27.315624Q206.35938 26.940624 207.70312 26.940624Q209.03125 26.940624 209.85938 27.253124Q210.6875 27.565624 211.07812 28.05Q211.46875 28.51875 211.625 29.2375Q211.71875 29.690624 211.71875 30.8625L211.71875 33.20625Q211.71875 35.659374 211.82812 36.315624Q211.9375 36.95625 212.28125 37.55L210.4375 37.55Q210.17188 37.003124 210.09375 36.26875ZM209.9375 32.346874Q208.98438 32.7375 207.0625 33.003124Q205.98438 33.159374 205.53125 33.3625Q205.09375 33.55 204.84375 33.925Q204.59375 34.3 204.59375 34.76875Q204.59375 35.471874 205.125 35.940624Q205.65625 36.409374 206.6875 36.409374Q207.70312 36.409374 208.48438 35.971874Q209.28125 35.51875 209.65625 34.753124Q209.9375 34.14375 209.9375 32.9875L209.9375 32.346874ZM214.32812 25.253124L214.32812 23.2375L216.09375 23.2375L216.09375 25.253124L214.32812 25.253124ZM214.32812 37.55L214.32812 27.175L216.09375 27.175L216.09375 37.55L214.32812 37.55ZM218.3125 37.55L218.3125 27.175L219.90625 27.175L219.90625 28.659374Q221.04688 26.940624 223.20312 26.940624Q224.14062 26.940624 224.92188 27.284374Q225.71875 27.6125 226.10938 28.159374Q226.5 28.70625 226.65625 29.45625Q226.75 29.95625 226.75 31.175L226.75 37.55L224.98438 37.55L224.98438 31.2375Q224.98438 30.159374 224.78125 29.628124Q224.57812 29.096874 224.04688 28.784374Q223.53125 28.471874 222.82812 28.471874Q221.70312 28.471874 220.89062 29.190624Q220.07812 29.89375 220.07812 31.878124L220.07812 37.55L218.3125 37.55ZM228.32812 25.253124L228.32812 23.2375L230.09375 23.2375L230.09375 25.253124L228.32812 25.253124ZM228.32812 37.55L228.32812 27.175L230.09375 27.175L230.09375 37.55L228.32812 37.55ZM232.3125 37.55L232.3125 27.175L233.90625 27.175L233.90625 28.659374Q235.04688 26.940624 237.20312 26.940624Q238.14062 26.940624 238.92188 27.284374Q239.71875 27.6125 240.10938 28.159374Q240.5 28.70625 240.65625 29.45625Q240.75 29.95625 240.75 31.175L240.75 37.55L238.98438 37.55L238.98438 31.2375Q238.98438 30.159374 238.78125 29.628124Q238.57812 29.096874 238.04688 28.784374Q237.53125 28.471874 236.82812 28.471874Q235.70312 28.471874 234.89062 29.190624Q234.07812 29.89375 234.07812 31.878124L234.07812 37.55L232.3125 37.55ZM242.0 38.409374L243.70312 38.659374Q243.8125 39.45625 244.29688 39.815624Q244.95312 40.3 246.09375 40.3Q247.3125 40.3 247.96875 39.815624Q248.64062 39.33125 248.875 38.45625Q249.01562 37.909374 249.0 36.190624Q247.84375 37.55 246.125 37.55Q243.98438 37.55 242.8125 36.003124Q241.64062 34.45625 241.64062 32.3Q241.64062 30.815624 242.17188 29.565624Q242.71875 28.315624 243.73438 27.628124Q244.76562 26.940624 246.14062 26.940624Q247.96875 26.940624 249.17188 28.425L249.17188 27.175L250.78125 27.175L250.78125 36.14375Q250.78125 38.565624 250.28125 39.565624Q249.79688 40.58125 248.71875 41.159374Q247.65625 41.753124 246.09375 41.753124Q244.25 41.753124 243.09375 40.925Q241.95312 40.096874 242.0 38.409374ZM243.45312 32.175Q243.45312 34.221874 244.26562 35.159374Q245.07812 36.096874 246.29688 36.096874Q247.5 36.096874 248.3125 35.159374Q249.14062 34.221874 249.14062 32.2375Q249.14062 30.33125 248.29688 29.3625Q247.45312 28.39375 246.26562 28.39375Q245.09375 28.39375 244.26562 29.346874Q243.45312 30.3 243.45312 32.175ZM263.1875 37.55L263.1875 24.925L258.46875 24.925L258.46875 23.2375L269.8125 23.2375L269.8125 24.925L265.07812 24.925L265.07812 37.55L263.1875 37.55ZM271.3125 37.55L271.3125 23.2375L273.07812 23.2375L273.07812 28.3625Q274.3125 26.940624 276.1875 26.940624Q277.32812 26.940624 278.17188 27.39375Q279.03125 27.846874 279.39062 28.659374Q279.76562 29.45625 279.76562 30.971874L279.76562 37.55L278.01562 37.55L278.01562 30.971874Q278.01562 29.659374 277.4375 29.065624Q276.85938 28.45625 275.82812 28.45625Q275.04688 28.45625 274.34375 28.8625Q273.65625 29.26875 273.35938 29.971874Q273.07812 30.659374 273.07812 31.878124L273.07812 37.55L271.3125 37.55ZM281.29688 37.55L281.29688 27.175L282.875 27.175L282.875 28.753124Q283.48438 27.64375 284.0 27.3Q284.51562 26.940624 285.125 26.940624Q286.01562 26.940624 286.9375 27.503124L286.32812 29.14375Q285.6875 28.753124 285.04688 28.753124Q284.46875 28.753124 284.0 29.1125Q283.54688 29.45625 283.34375 30.065624Q283.0625 31.003124 283.0625 32.1125L283.0625 37.55L281.29688 37.55ZM287.67188 32.3625Q287.67188 29.4875 289.26562 28.096874Q290.60938 26.940624 292.53125 26.940624Q294.67188 26.940624 296.01562 28.346874Q297.375 29.753124 297.375 32.221874Q297.375 34.221874 296.78125 35.378124Q296.1875 36.51875 295.03125 37.159374Q293.89062 37.784374 292.53125 37.784374Q290.34375 37.784374 289.0 36.39375Q287.67188 34.9875 287.67188 32.3625ZM289.46875 32.3625Q289.46875 34.3625 290.32812 35.346874Q291.20312 36.33125 292.53125 36.33125Q293.84375 36.33125 294.70312 35.346874Q295.57812 34.346874 295.57812 32.3Q295.57812 30.378124 294.70312 29.39375Q293.82812 28.39375 292.53125 28.39375Q291.20312 28.39375 290.32812 29.39375Q289.46875 30.378124 289.46875 32.3625ZM306.10938 37.55L306.10938 36.01875Q304.90625 37.784374 302.82812 37.784374Q301.90625 37.784374 301.10938 37.440624Q300.3125 37.08125 299.92188 36.55Q299.54688 36.01875 299.39062 35.2375Q299.28125 34.721874 299.28125 33.596874L299.28125 27.175L301.03125 27.175L301.03125 32.925Q301.03125 34.3 301.14062 34.784374Q301.3125 35.471874 301.84375 35.878124Q302.39062 36.26875 303.17188 36.26875Q303.96875 36.26875 304.65625 35.8625Q305.35938 35.45625 305.64062 34.76875Q305.9375 34.065624 305.9375 32.7375L305.9375 27.175L307.6875 27.175L307.6875 37.55L306.10938 37.55ZM309.0 38.409374L310.70312 38.659374Q310.8125 39.45625 311.29688 39.815624Q311.95312 40.3 313.09375 40.3Q314.3125 40.3 314.96875 39.815624Q315.64062 39.33125 315.875 38.45625Q316.01562 37.909374 316.0 36.190624Q314.84375 37.55 313.125 37.55Q310.98438 37.55 309.8125 36.003124Q308.64062 34.45625 308.64062 32.3Q308.64062 30.815624 309.17188 29.565624Q309.71875 28.315624 310.73438 27.628124Q311.76562 26.940624 313.14062 26.940624Q314.96875 26.940624 316.17188 28.425L316.17188 27.175L317.78125 27.175L317.78125 36.14375Q317.78125 38.565624 317.28125 39.565624Q316.79688 40.58125 315.71875 41.159374Q314.65625 41.753124 313.09375 41.753124Q311.25 41.753124 310.09375 40.925Q308.95312 40.096874 309.0 38.409374ZM310.45312 32.175Q310.45312 34.221874 311.26562 35.159374Q312.07812 36.096874 313.29688 36.096874Q314.5 36.096874 315.3125 35.159374Q316.14062 34.221874 316.14062 32.2375Q316.14062 30.33125 315.29688 29.3625Q314.45312 28.39375 313.26562 28.39375Q312.09375 28.39375 311.26562 29.346874Q310.45312 30.3 310.45312 32.175ZM320.3125 37.55L320.3125 23.2375L322.07812 23.2375L322.07812 28.3625Q323.3125 26.940624 325.1875 26.940624Q326.32812 26.940624 327.17188 27.39375Q328.03125 27.846874 328.39062 28.659374Q328.76562 29.45625 328.76562 30.971874L328.76562 37.55L327.01562 37.55L327.01562 30.971874Q327.01562 29.659374 326.4375 29.065624Q325.85938 28.45625 324.82812 28.45625Q324.04688 28.45625 323.34375 28.8625Q322.65625 29.26875 322.35938 29.971874Q322.07812 30.659374 322.07812 31.878124L322.07812 37.55L320.3125 37.55ZM330.3125 41.51875L330.3125 27.175L331.92188 27.175L331.92188 28.51875Q332.48438 27.7375 333.1875 27.346874Q333.90625 26.940624 334.92188 26.940624Q336.25 26.940624 337.26562 27.628124Q338.28125 28.315624 338.79688 29.565624Q339.32812 30.8 339.32812 32.284374Q339.32812 33.878124 338.75 35.159374Q338.1875 36.425 337.09375 37.1125Q336.0 37.784374 334.79688 37.784374Q333.92188 37.784374 333.21875 37.409374Q332.53125 37.034374 332.07812 36.471874L332.07812 41.51875L330.3125 41.51875ZM331.90625 32.425Q331.90625 34.425 332.71875 35.378124Q333.53125 36.33125 334.6875 36.33125Q335.85938 36.33125 336.6875 35.346874Q337.53125 34.3625 337.53125 32.26875Q337.53125 30.3 336.70312 29.315624Q335.89062 28.315624 334.76562 28.315624Q333.64062 28.315624 332.76562 29.378124Q331.90625 30.425 331.90625 32.425ZM348.10938 37.55L348.10938 36.01875Q346.90625 37.784374 344.82812 37.784374Q343.90625 37.784374 343.10938 37.440624Q342.3125 37.08125 341.92188 36.55Q341.54688 36.01875 341.39062 35.2375Q341.28125 34.721874 341.28125 33.596874L341.28125 27.175L343.03125 27.175L343.03125 32.925Q343.03125 34.3 343.14062 34.784374Q343.3125 35.471874 343.84375 35.878124Q344.39062 36.26875 345.17188 36.26875Q345.96875 36.26875 346.65625 35.8625Q347.35938 35.45625 347.64062 34.76875Q347.9375 34.065624 347.9375 32.7375L347.9375 27.175L349.6875 27.175L349.6875 37.55L348.10938 37.55ZM355.15625 35.971874L355.40625 37.534374Q354.67188 37.690624 354.07812 37.690624Q353.125 37.690624 352.59375 37.39375Q352.07812 37.08125 351.85938 36.596874Q351.64062 36.096874 351.64062 34.51875L351.64062 28.55L350.35938 28.55L350.35938 27.175L351.64062 27.175L351.64062 24.6125L353.39062 23.55L353.39062 27.175L355.15625 27.175L355.15625 28.55L353.39062 28.55L353.39062 34.6125Q353.39062 35.3625 353.48438 35.58125Q353.57812 35.784374 353.78125 35.925Q354.0 36.05 354.39062 36.05Q354.67188 36.05 355.15625 35.971874ZM373.76562 32.534374L375.65625 33.003124Q375.0625 35.346874 373.51562 36.58125Q371.96875 37.8 369.71875 37.8Q367.40625 37.8 365.95312 36.8625Q364.51562 35.909374 363.75 34.128124Q363.0 32.33125 363.0 30.284374Q363.0 28.05 363.84375 26.39375Q364.70312 24.721874 366.28125 23.8625Q367.85938 22.9875 369.75 22.9875Q371.90625 22.9875 373.35938 24.08125Q374.82812 25.175 375.40625 27.159374L373.54688 27.596874Q373.04688 26.034374 372.09375 25.33125Q371.15625 24.6125 369.71875 24.6125Q368.0625 24.6125 366.95312 25.409374Q365.84375 26.190624 365.39062 27.534374Q364.95312 28.8625 364.95312 30.26875Q364.95312 32.096874 365.48438 33.471874Q366.01562 34.83125 367.14062 35.503124Q368.26562 36.175 369.5625 36.175Q371.15625 36.175 372.26562 35.253124Q373.375 34.33125 373.76562 32.534374ZM376.67188 32.3625Q376.67188 29.4875 378.26562 28.096874Q379.60938 26.940624 381.53125 26.940624Q383.67188 26.940624 385.01562 28.346874Q386.375 29.753124 386.375 32.221874Q386.375 34.221874 385.78125 35.378124Q385.1875 36.51875 384.03125 37.159374Q382.89062 37.784374 381.53125 37.784374Q379.34375 37.784374 378.0 36.39375Q376.67188 34.9875 376.67188 32.3625ZM378.46875 32.3625Q378.46875 34.3625 379.32812 35.346874Q380.20312 36.33125 381.53125 36.33125Q382.84375 36.33125 383.70312 35.346874Q384.57812 34.346874 384.57812 32.3Q384.57812 30.378124 383.70312 29.39375Q382.82812 28.39375 381.53125 28.39375Q380.20312 28.39375 379.32812 29.39375Q378.46875 30.378124 378.46875 32.3625ZM388.3125 37.55L388.3125 27.175L389.89062 27.175L389.89062 28.628124Q390.375 27.878124 391.1875 27.409374Q392.0 26.940624 393.03125 26.940624Q394.1875 26.940624 394.92188 27.425Q395.65625 27.89375 395.96875 28.753124Q397.20312 26.940624 399.17188 26.940624Q400.71875 26.940624 401.54688 27.8Q402.375 28.659374 402.375 30.425L402.375 37.55L400.625 37.55L400.625 31.01875Q400.625 29.95625 400.45312 29.503124Q400.28125 29.034374 399.82812 28.753124Q399.39062 28.471874 398.78125 28.471874Q397.6875 28.471874 396.95312 29.20625Q396.23438 29.925 396.23438 31.51875L396.23438 37.55L394.48438 37.55L394.48438 30.815624Q394.48438 29.64375 394.04688 29.065624Q393.625 28.471874 392.64062 28.471874Q391.90625 28.471874 391.26562 28.8625Q390.64062 29.253124 390.35938 30.003124Q390.07812 30.753124 390.07812 32.175L390.07812 37.55L388.3125 37.55ZM404.3125 41.51875L404.3125 27.175L405.92188 27.175L405.92188 28.51875Q406.48438 27.7375 407.1875 27.346874Q407.90625 26.940624 408.92188 26.940624Q410.25 26.940624 411.26562 27.628124Q412.28125 28.315624 412.79688 29.565624Q413.32812 30.8 413.32812 32.284374Q413.32812 33.878124 412.75 35.159374Q412.1875 36.425 411.09375 37.1125Q410.0 37.784374 408.79688 37.784374Q407.92188 37.784374 407.21875 37.409374Q406.53125 37.034374 406.07812 36.471874L406.07812 41.51875L404.3125 41.51875ZM405.90625 32.425Q405.90625 34.425 406.71875 35.378124Q407.53125 36.33125 408.6875 36.33125Q409.85938 36.33125 410.6875 35.346874Q411.53125 34.3625 411.53125 32.26875Q411.53125 30.3 410.70312 29.315624Q409.89062 28.315624 408.76562 28.315624Q407.64062 28.315624 406.76562 29.378124Q405.90625 30.425 405.90625 32.425ZM422.09375 36.26875Q421.10938 37.096874 420.20312 37.440624Q419.29688 37.784374 418.26562 37.784374Q416.5625 37.784374 415.64062 36.95625Q414.71875 36.1125 414.71875 34.815624Q414.71875 34.05 415.0625 33.425Q415.42188 32.8 415.98438 32.425Q416.54688 32.034374 417.25 31.83125Q417.76562 31.70625 418.8125 31.565624Q420.9375 31.315624 421.9375 30.971874Q421.95312 30.6125 421.95312 30.503124Q421.95312 29.440624 421.45312 28.9875Q420.78125 28.39375 419.45312 28.39375Q418.20312 28.39375 417.60938 28.83125Q417.03125 29.26875 416.75 30.378124L415.03125 30.14375Q415.26562 29.034374 415.79688 28.3625Q416.32812 27.675 417.34375 27.315624Q418.35938 26.940624 419.70312 26.940624Q421.03125 26.940624 421.85938 27.253124Q422.6875 27.565624 423.07812 28.05Q423.46875 28.51875 423.625 29.2375Q423.71875 29.690624 423.71875 30.8625L423.71875 33.20625Q423.71875 35.659374 423.82812 36.315624Q423.9375 36.95625 424.28125 37.55L422.4375 37.55Q422.17188 37.003124 422.09375 36.26875ZM421.9375 32.346874Q420.98438 32.7375 419.0625 33.003124Q417.98438 33.159374 417.53125 33.3625Q417.09375 33.55 416.84375 33.925Q416.59375 34.3 416.59375 34.76875Q416.59375 35.471874 417.125 35.940624Q417.65625 36.409374 418.6875 36.409374Q419.70312 36.409374 420.48438 35.971874Q421.28125 35.51875 421.65625 34.753124Q421.9375 34.14375 421.9375 32.9875L421.9375 32.346874ZM426.29688 37.55L426.29688 27.175L427.875 27.175L427.875 28.753124Q428.48438 27.64375 429.0 27.3Q429.51562 26.940624 430.125 26.940624Q431.01562 26.940624 431.9375 27.503124L431.32812 29.14375Q430.6875 28.753124 430.04688 28.753124Q429.46875 28.753124 429.0 29.1125Q428.54688 29.45625 428.34375 30.065624Q428.0625 31.003124 428.0625 32.1125L428.0625 37.55L426.29688 37.55ZM433.32812 25.253124L433.32812 23.2375L435.09375 23.2375L435.09375 25.253124L433.32812 25.253124ZM433.32812 37.55L433.32812 27.175L435.09375 27.175L435.09375 37.55L433.32812 37.55ZM436.60938 34.45625L438.35938 34.175Q438.5 35.221874 439.17188 35.784374Q439.84375 36.33125 441.04688 36.33125Q442.25 36.33125 442.82812 35.846874Q443.42188 35.346874 443.42188 34.690624Q443.42188 34.096874 442.90625 33.753124Q442.54688 33.51875 441.10938 33.159374Q439.17188 32.659374 438.42188 32.315624Q437.6875 31.95625 437.29688 31.33125Q436.90625 30.690624 436.90625 29.925Q436.90625 29.2375 437.21875 28.64375Q437.54688 28.05 438.09375 27.659374Q438.5 27.3625 439.20312 27.159374Q439.92188 26.940624 440.73438 26.940624Q441.95312 26.940624 442.875 27.3Q443.79688 27.64375 444.23438 28.253124Q444.67188 28.846874 444.84375 29.846874L443.125 30.08125Q443.0 29.284374 442.4375 28.846874Q441.875 28.39375 440.85938 28.39375Q439.64062 28.39375 439.125 28.8Q438.60938 29.190624 438.60938 29.721874Q438.60938 30.065624 438.82812 30.346874Q439.03125 30.628124 439.5 30.815624Q439.76562 30.909374 441.04688 31.253124Q442.92188 31.753124 443.65625 32.08125Q444.39062 32.39375 444.8125 33.003124Q445.23438 33.596874 445.23438 34.503124Q445.23438 35.378124 444.71875 36.159374Q444.20312 36.940624 443.23438 37.3625Q442.26562 37.784374 441.04688 37.784374Q439.03125 37.784374 437.96875 36.940624Q436.90625 36.096874 436.60938 34.45625ZM446.67188 32.3625Q446.67188 29.4875 448.26562 28.096874Q449.60938 26.940624 451.53125 26.940624Q453.67188 26.940624 455.01562 28.346874Q456.375 29.753124 456.375 32.221874Q456.375 34.221874 455.78125 35.378124Q455.1875 36.51875 454.03125 37.159374Q452.89062 37.784374 451.53125 37.784374Q449.34375 37.784374 448.0 36.39375Q446.67188 34.9875 446.67188 32.3625ZM448.46875 32.3625Q448.46875 34.3625 449.32812 35.346874Q450.20312 36.33125 451.53125 36.33125Q452.84375 36.33125 453.70312 35.346874Q454.57812 34.346874 454.57812 32.3Q454.57812 30.378124 453.70312 29.39375Q452.82812 28.39375 451.53125 28.39375Q450.20312 28.39375 449.32812 29.39375Q448.46875 30.378124 448.46875 32.3625ZM458.3125 37.55L458.3125 27.175L459.90625 27.175L459.90625 28.659374Q461.04688 26.940624 463.20312 26.940624Q464.14062 26.940624 464.92188 27.284374Q465.71875 27.6125 466.10938 28.159374Q466.5 28.70625 466.65625 29.45625Q466.75 29.95625 466.75 31.175L466.75 37.55L464.98438 37.55L464.98438 31.2375Q464.98438 30.159374 464.78125 29.628124Q464.57812 29.096874 464.04688 28.784374Q463.53125 28.471874 462.82812 28.471874Q461.70312 28.471874 460.89062 29.190624Q460.07812 29.89375 460.07812 31.878124L460.07812 37.55L458.3125 37.55Z" fill-rule="nonzero"/></svg>