<svg width="1936" height="1238" xmlns="http://www.w3.org/2000/svg" xmlns:xlink="http://www.w3.org/1999/xlink" xml:space="preserve" overflow="hidden"><defs><clipPath id="clip0"><rect x="9289" y="6712" width="1936" height="1238"/></clipPath><clipPath id="clip1"><rect x="9290" y="6712" width="1933" height="1236"/></clipPath><clipPath id="clip2"><rect x="9290" y="6712" width="1933" height="1236"/></clipPath><clipPath id="clip3"><rect x="9576" y="6740" width="1575" height="1055"/></clipPath><clipPath id="clip4"><rect x="9290" y="6712" width="1933" height="1236"/></clipPath><clipPath id="clip5"><rect x="9290" y="6712" width="1933" height="1236"/></clipPath><clipPath id="clip6"><rect x="9290" y="6712" width="1933" height="1236"/></clipPath><clipPath id="clip7"><rect x="9290" y="6712" width="1933" height="1236"/></clipPath><clipPath id="clip8"><rect x="9290" y="6712" width="1933" height="1236"/></clipPath><clipPath id="clip9"><rect x="9290" y="6712" width="1933" height="1236"/></clipPath><clipPath id="clip10"><rect x="9290" y="6712" width="1933" height="1236"/></clipPath><clipPath id="clip11"><rect x="9290" y="6712" width="1933" height="1236"/></clipPath><clipPath id="clip12"><rect x="9290" y="6712" width="1933" height="1236"/></clipPath><clipPath id="clip13"><rect x="9290" y="6712" width="1933" height="1236"/></clipPath><clipPath id="clip14"><rect x="9290" y="6712" width="1933" height="1236"/></clipPath><clipPath id="clip15"><rect x="9290" y="6712" width="1933" height="1236"/></clipPath><clipPath id="clip16"><rect x="9290" y="6712" width="1933" height="1236"/></clipPath><clipPath id="clip17"><rect x="9290" y="6712" width="1933" height="1236"/></clipPath><clipPath id="clip18"><rect x="9290" y="6712" width="1933" height="1236"/></clipPath><clipPath id="clip19"><rect x="9290" y="6712" width="1933" height="1236"/></clipPath><clipPath id="clip20"><rect x="9290" y="6712" width="1933" height="1236"/></clipPath><clipPath id="clip21"><rect x="9290" y="6712" width="1933" height="1236"/></clipPath><clipPath id="clip22"><rect x="9290" y="6712" width="1933" height="1236"/></clipPath><clipPath id="clip23"><rect x="9290" y="6712" width="1933" height="1236"/></clipPath><clipPath id="clip24"><rect x="9290" y="6712" width="1933" height="1236"/></clipPath><clipPath id="clip25"><rect x="9290" y="6712" width="1933" height="1236"/></clipPath><clipPath id="clip26"><rect x="9290" y="6712" width="1933" height="1236"/></clipPath><clipPath id="clip27"><rect x="9290" y="6712" width="1933" height="1236"/></clipPath><clipPath id="clip28"><rect x="9290" y="6712" width="1933" height="1236"/></clipPath><clipPath id="clip29"><rect x="9290" y="6712" width="1933" height="1236"/></clipPath><clipPath id="clip30"><rect x="9290" y="6712" width="1933" height="1236"/></clipPath><clipPath id="clip31"><rect x="9290" y="6712" width="1933" height="1236"/></clipPath><clipPath id="clip32"><rect x="9290" y="6712" width="1933" height="1236"/></clipPath><clipPath id="clip33"><rect x="9290" y="6712" width="1933" height="1236"/></clipPath><clipPath id="clip34"><rect x="9290" y="6712" width="1933" height="1236"/></clipPath><clipPath id="clip35"><rect x="9290" y="6712" width="1933" height="1236"/></clipPath><clipPath id="clip36"><rect x="9290" y="6712" width="1933" height="1236"/></clipPath><clipPath id="clip37"><rect x="9290" y="6712" width="1933" height="1236"/></clipPath><clipPath id="clip38"><rect x="7663" y="6712" width="5224" height="619"/></clipPath><clipPath id="clip39"><rect x="9290" y="6712" width="1933" height="1236"/></clipPath><clipPath id="clip40"><rect x="9290" y="6712" width="1933" height="1236"/></clipPath><clipPath id="clip41"><rect x="9290" y="6712" width="1933" height="1236"/></clipPath><clipPath id="clip42"><rect x="9290" y="6712" width="1933" height="1236"/></clipPath><clipPath id="clip43"><rect x="9290" y="6712" width="1933" height="1236"/></clipPath></defs><g clip-path="url(#clip0)" transform="translate(-9289 -6712)"><rect x="9290" y="6713" width="1933" height="1235" fill="#FFFFFF"/><g clip-path="url(#clip1)"><path d="M0 0 0.000360892 1052" stroke="#BFBFBF" stroke-width="3.4375" stroke-linejoin="round" stroke-miterlimit="10" fill="none" fill-rule="evenodd" transform="matrix(1 0 0 -1 9576.5 7792.5)"/></g><g clip-path="url(#clip2)"><path d="M9576.5 7792.5 11148.5 7792.5" stroke="#BFBFBF" stroke-width="3.4375" stroke-linejoin="round" stroke-miterlimit="10" fill="none" fill-rule="evenodd"/></g><g clip-path="url(#clip3)"><path d="M9773.5 6889.5 10309.8 7479.75 10552.8 7677.75 10697.9 7739.5 10768.9 7734.75 10863.9 7691.75 10920.9 7647.75 10955.5 7607.75" stroke="#4472C4" stroke-width="6.875" stroke-linecap="round" stroke-linejoin="round" stroke-miterlimit="10" fill="none"/></g><g clip-path="url(#clip4)"><path d="M9784.69 6889.25C9784.69 6895.32 9779.76 6900.25 9773.69 6900.25 9767.61 6900.25 9762.69 6895.32 9762.69 6889.25 9762.69 6883.17 9767.61 6878.25 9773.69 6878.25 9779.76 6878.25 9784.69 6883.17 9784.69 6889.25Z" stroke="#4472C4" stroke-width="3.4375" stroke-linejoin="round" stroke-miterlimit="10" fill="#4472C4"/><path d="M10321.7 7479.25C10321.7 7485.32 10316.8 7490.25 10310.7 7490.25 10304.6 7490.25 10299.7 7485.32 10299.7 7479.25 10299.7 7473.17 10304.6 7468.25 10310.7 7468.25 10316.8 7468.25 10321.7 7473.17 10321.7 7479.25Z" stroke="#4472C4" stroke-width="3.4375" stroke-linejoin="round" stroke-miterlimit="10" fill="#4472C4"/><path d="M10563.7 7677.25C10563.7 7683.32 10558.8 7688.25 10552.7 7688.25 10546.6 7688.25 10541.7 7683.32 10541.7 7677.25 10541.7 7671.17 10546.6 7666.25 10552.7 7666.25 10558.8 7666.25 10563.7 7671.17 10563.7 7677.25Z" stroke="#4472C4" stroke-width="3.4375" stroke-linejoin="round" stroke-miterlimit="10" fill="#4472C4"/><path d="M10708.7 7739.25C10708.7 7745.32 10703.8 7750.25 10697.7 7750.25 10691.6 7750.25 10686.7 7745.32 10686.7 7739.25 10686.7 7733.17 10691.6 7728.25 10697.7 7728.25 10703.8 7728.25 10708.7 7733.17 10708.7 7739.25Z" stroke="#4472C4" stroke-width="3.4375" stroke-linejoin="round" stroke-miterlimit="10" fill="#4472C4"/><path d="M10779.7 7734.25C10779.7 7740.32 10774.8 7745.25 10768.7 7745.25 10762.6 7745.25 10757.7 7740.32 10757.7 7734.25 10757.7 7728.17 10762.6 7723.25 10768.7 7723.25 10774.8 7723.25 10779.7 7728.17 10779.7 7734.25Z" stroke="#4472C4" stroke-width="3.4375" stroke-linejoin="round" stroke-miterlimit="10" fill="#4472C4"/><path d="M10875.7 7691.25C10875.7 7697.32 10870.8 7702.25 10864.7 7702.25 10858.6 7702.25 10853.7 7697.32 10853.7 7691.25 10853.7 7685.17 10858.6 7680.25 10864.7 7680.25 10870.8 7680.25 10875.7 7685.17 10875.7 7691.25Z" stroke="#4472C4" stroke-width="3.4375" stroke-linejoin="round" stroke-miterlimit="10" fill="#4472C4"/><path d="M10931.7 7647.25C10931.7 7653.32 10926.8 7658.25 10920.7 7658.25 10914.6 7658.25 10909.7 7653.32 10909.7 7647.25 10909.7 7641.17 10914.6 7636.25 10920.7 7636.25 10926.8 7636.25 10931.7 7641.17 10931.7 7647.25Z" stroke="#4472C4" stroke-width="3.4375" stroke-linejoin="round" stroke-miterlimit="10" fill="#4472C4"/><path d="M10966.7 7608.25C10966.7 7614.32 10961.8 7619.25 10955.7 7619.25 10949.6 7619.25 10944.7 7614.32 10944.7 7608.25 10944.7 7602.17 10949.6 7597.25 10955.7 7597.25 10961.8 7597.25 10966.7 7602.17 10966.7 7608.25Z" stroke="#4472C4" stroke-width="3.4375" stroke-linejoin="round" stroke-miterlimit="10" fill="#4472C4"/></g><g clip-path="url(#clip5)"><text fill="#404040" font-family="Calibri,Calibri_MSFontService,sans-serif" font-weight="400" font-size="41" transform="matrix(1 0 0 1 9726.03 6846)">25.17</text></g><g clip-path="url(#clip6)"><text fill="#404040" font-family="Calibri,Calibri_MSFontService,sans-serif" font-weight="400" font-size="41" transform="matrix(1 0 0 1 10263.1 7436)">13.94</text></g><g clip-path="url(#clip7)"><text fill="#404040" font-family="Calibri,Calibri_MSFontService,sans-serif" font-weight="400" font-size="41" transform="matrix(1 0 0 1 10505.4 7634)">10.17</text></g><g clip-path="url(#clip8)"><text fill="#404040" font-family="Calibri,Calibri_MSFontService,sans-serif" font-weight="400" font-size="41" transform="matrix(1 0 0 1 10661.2 7696)">8.99</text></g><g clip-path="url(#clip9)"><text fill="#404040" font-family="Calibri,Calibri_MSFontService,sans-serif" font-weight="400" font-size="41" transform="matrix(1 0 0 1 10732 7691)">9.10</text></g><g clip-path="url(#clip10)"><text fill="#404040" font-family="Calibri,Calibri_MSFontService,sans-serif" font-weight="400" font-size="41" transform="matrix(1 0 0 1 10827.6 7648)">9.91</text></g><g clip-path="url(#clip11)"><text fill="#404040" font-family="Calibri,Calibri_MSFontService,sans-serif" font-weight="400" font-size="41" transform="matrix(1 0 0 1 10873.5 7604)">10.75</text></g><g clip-path="url(#clip12)"><text fill="#404040" font-family="Calibri,Calibri_MSFontService,sans-serif" font-weight="400" font-size="41" transform="matrix(1 0 0 1 10908.8 7565)">11.50</text></g><g clip-path="url(#clip13)"><text fill="#595959" font-family="Calibri,Calibri_MSFontService,sans-serif" font-weight="400" font-size="41" transform="matrix(1 0 0 1 9517.38 7804)">8</text></g><g clip-path="url(#clip14)"><text fill="#595959" font-family="Calibri,Calibri_MSFontService,sans-serif" font-weight="400" font-size="41" transform="matrix(1 0 0 1 9496.48 7699)">10</text></g><g clip-path="url(#clip15)"><text fill="#595959" font-family="Calibri,Calibri_MSFontService,sans-serif" font-weight="400" font-size="41" transform="matrix(1 0 0 1 9496.48 7593)">12</text></g><g clip-path="url(#clip16)"><text fill="#595959" font-family="Calibri,Calibri_MSFontService,sans-serif" font-weight="400" font-size="41" transform="matrix(1 0 0 1 9496.48 7488)">14</text></g><g clip-path="url(#clip17)"><text fill="#595959" font-family="Calibri,Calibri_MSFontService,sans-serif" font-weight="400" font-size="41" transform="matrix(1 0 0 1 9496.48 7383)">16</text></g><g clip-path="url(#clip18)"><text fill="#595959" font-family="Calibri,Calibri_MSFontService,sans-serif" font-weight="400" font-size="41" transform="matrix(1 0 0 1 9496.48 7278)">18</text></g><g clip-path="url(#clip19)"><text fill="#595959" font-family="Calibri,Calibri_MSFontService,sans-serif" font-weight="400" font-size="41" transform="matrix(1 0 0 1 9496.48 7173)">20</text></g><g clip-path="url(#clip20)"><text fill="#595959" font-family="Calibri,Calibri_MSFontService,sans-serif" font-weight="400" font-size="41" transform="matrix(1 0 0 1 9496.48 7068)">22</text></g><g clip-path="url(#clip21)"><text fill="#595959" font-family="Calibri,Calibri_MSFontService,sans-serif" font-weight="400" font-size="41" transform="matrix(1 0 0 1 9496.48 6963)">24</text></g><g clip-path="url(#clip22)"><text fill="#595959" font-family="Calibri,Calibri_MSFontService,sans-serif" font-weight="400" font-size="41" transform="matrix(1 0 0 1 9496.48 6858)">26</text></g><g clip-path="url(#clip23)"><text fill="#595959" font-family="Calibri,Calibri_MSFontService,sans-serif" font-weight="400" font-size="41" transform="matrix(1 0 0 1 9496.48 6752)">28</text></g><g clip-path="url(#clip24)"><text fill="#595959" font-family="Calibri,Calibri_MSFontService,sans-serif" font-weight="400" font-size="41" transform="matrix(1 0 0 1 9550.45 7857)">0.2</text></g><g clip-path="url(#clip25)"><text fill="#595959" font-family="Calibri,Calibri_MSFontService,sans-serif" font-weight="400" font-size="41" transform="matrix(1 0 0 1 9801.97 7857)">0.22</text></g><g clip-path="url(#clip26)"><text fill="#595959" font-family="Calibri,Calibri_MSFontService,sans-serif" font-weight="400" font-size="41" transform="matrix(1 0 0 1 10063.9 7857)">0.24</text></g><g clip-path="url(#clip27)"><text fill="#595959" font-family="Calibri,Calibri_MSFontService,sans-serif" font-weight="400" font-size="41" transform="matrix(1 0 0 1 10325.9 7857)">0.26</text></g><g clip-path="url(#clip28)"><text fill="#595959" font-family="Calibri,Calibri_MSFontService,sans-serif" font-weight="400" font-size="41" transform="matrix(1 0 0 1 10587.9 7857)">0.28</text></g><g clip-path="url(#clip29)"><text fill="#595959" font-family="Calibri,Calibri_MSFontService,sans-serif" font-weight="400" font-size="41" transform="matrix(1 0 0 1 10860.3 7857)">0.3</text></g><g clip-path="url(#clip30)"><text fill="#595959" font-family="Calibri,Calibri_MSFontService,sans-serif" font-weight="400" font-size="41" transform="matrix(1 0 0 1 11111.8 7857)">0.32</text></g><g clip-path="url(#clip31)"><text fill="#595959" font-family="Calibri,Calibri_MSFontService,sans-serif" font-weight="400" font-size="46" transform="matrix(6.12323e-17 -1 1 6.12323e-17 9470.79 7297)">FID</text></g><g clip-path="url(#clip32)"><text fill="#595959" font-family="Calibri,Calibri_MSFontService,sans-serif" font-weight="400" font-size="46" transform="matrix(1 0 0 1 10237.8 7926)">CLIP/ViT</text></g><g clip-path="url(#clip33)"><text fill="#595959" font-family="Calibri,Calibri_MSFontService,sans-serif" font-weight="400" font-size="46" transform="matrix(1 0 0 1 10393.3 7926)">-</text></g><g clip-path="url(#clip34)"><text fill="#595959" font-family="Calibri,Calibri_MSFontService,sans-serif" font-weight="400" font-size="46" transform="matrix(1 0 0 1 10407.3 7926)">L</text></g><g clip-path="url(#clip35)"><text fill="#595959" font-family="Calibri,Calibri_MSFontService,sans-serif" font-weight="400" font-size="46" transform="matrix(1 0 0 1 10426.6 7926)">-</text></g><g clip-path="url(#clip36)"><text fill="#595959" font-family="Calibri,Calibri_MSFontService,sans-serif" font-weight="400" font-size="46" transform="matrix(1 0 0 1 10440.6 7926)">14</text></g><g clip-path="url(#clip37)"><g clip-path="url(#clip38)"><text fill="#595959" font-family="Calibri,Calibri_MSFontService,sans-serif" font-weight="400" font-size="64" transform="matrix(1 0 0 1 9982.44 6781)">FID score vs CLIP score</text></g></g><g clip-path="url(#clip39)"><text fill="#595959" font-family="Calibri,Calibri_MSFontService,sans-serif" font-weight="400" font-size="64" transform="matrix(1 0 0 1 9902.05 6859)">(cfg = 1, 1.5, 2, 2.8, 3, 4, 5, 6)</text></g><g clip-path="url(#clip40)"><path d="M10590.5 7101.5 10678.5 7101.5" stroke="#4472C4" stroke-width="6.875" stroke-linecap="round" stroke-linejoin="round" stroke-miterlimit="10" fill="none" fill-rule="evenodd"/></g><g clip-path="url(#clip41)"><path d="M10645 7101C10645 7107.07 10640.1 7112 10634 7112 10627.9 7112 10623 7107.07 10623 7101 10623 7094.92 10627.9 7090 10634 7090 10640.1 7090 10645 7094.92 10645 7101Z" stroke="#4472C4" stroke-width="3.4375" stroke-linejoin="round" stroke-miterlimit="10" fill="#4472C4"/></g><g clip-path="url(#clip42)"><text fill="#595959" font-family="Calibri,Calibri_MSFontService,sans-serif" font-weight="400" font-size="41" transform="matrix(1 0 0 1 10688 7113)">NeMo-Imagen-base500M-</text></g><g clip-path="url(#clip43)"><text fill="#595959" font-family="Calibri,Calibri_MSFontService,sans-serif" font-weight="400" font-size="41" transform="matrix(1 0 0 1 10688 7163)">sr600M</text></g><rect x="9290.5" y="6713.5" width="1933" height="1235" stroke="#000000" stroke-width="3.4375" stroke-linejoin="round" stroke-miterlimit="10" stroke-opacity="0.909804" fill="none"/></g></svg>