<svg version="1.1" viewBox="0.0 0.0 600.0 371.0" fill="none" stroke="none" stroke-linecap="square" stroke-miterlimit="10" width="600" height="371" xmlns:xlink="http://www.w3.org/1999/xlink" xmlns="http://www.w3.org/2000/svg"><path fill="#ffffff" d="M0 0L600.0 0L600.0 371.0L0 371.0L0 0Z" fill-rule="nonzero"/><path stroke="#333333" stroke-width="1.0" stroke-linecap="butt" d="M77.5 332.5L581.5 332.5" fill-rule="nonzero"/><path stroke="#cccccc" stroke-width="1.0" stroke-linecap="butt" d="M77.5 271.5L581.5 271.5" fill-rule="nonzero"/><path stroke="#cccccc" stroke-width="1.0" stroke-linecap="butt" d="M77.5 210.5L581.5 210.5" fill-rule="nonzero"/><path stroke="#cccccc" stroke-width="1.0" stroke-linecap="butt" d="M77.5 149.5L581.5 149.5" fill-rule="nonzero"/><path stroke="#cccccc" stroke-width="1.0" stroke-linecap="butt" d="M77.5 88.5L581.5 88.5" fill-rule="nonzero"/><path stroke="#000000" stroke-width="1.0" stroke-linecap="butt" d="M77.5 332.5L77.5 88.5" fill-rule="nonzero"/><clipPath id="id_0"><path d="M77.55 88.28333L581.45 88.28333L581.45 332.45L77.55 332.45L77.55 88.28333Z" clip-rule="nonzero"/></clipPath><path stroke="#000000" stroke-width="2.0" stroke-linecap="butt" stroke-opacity="0.0" clip-path="url(#id_0)" d="M329.0 332.0L210.0 332.0L210.0 206.0C210.0 204.89543 210.89543 204.0 212.0 204.0L327.0 204.0C328.10458 204.0 329.0 204.89543 329.0 206.0Z" fill-rule="nonzero"/><path fill="#b6d7a8" clip-path="url(#id_0)" d="M329.0 332.0L210.0 332.0L210.0 206.0C210.0 204.89543 210.89543 204.0 212.0 204.0L327.0 204.0C328.10458 204.0 329.0 204.89543 329.0 206.0Z" fill-rule="nonzero"/><path stroke="#000000" stroke-width="2.0" stroke-linecap="butt" stroke-opacity="0.0" clip-path="url(#id_0)" d="M450.0 332.0L331.0 332.0L331.0 94.0C331.0 92.89543 331.89542 92.0 333.0 92.0L448.0 92.0C449.10458 92.0 450.0 92.89543 450.0 94.0Z" fill-rule="nonzero"/><path fill="#38761d" clip-path="url(#id_0)" d="M450.0 332.0L331.0 332.0L331.0 94.0C331.0 92.89543 331.89542 92.0 333.0 92.0L448.0 92.0C449.10458 92.0 450.0 92.89543 450.0 94.0Z" fill-rule="nonzero"/><path stroke="#b6d7a8" stroke-width="3.0" stroke-linejoin="round" stroke-linecap="round" d="M258.26562 220.33412L257.1875 220.33412L257.1875 213.11537L255.0 213.91225L255.0 212.92787L258.10938 211.756L258.26562 211.756L258.26562 220.33412ZM261.84375 219.77162Q261.84375 219.49037 262.0 219.30287Q262.17188 219.11537 262.5 219.11537Q262.84375 219.11537 263.01562 219.30287Q263.1875 219.49037 263.1875 219.77162Q263.1875 220.03725 263.01562 220.22475Q262.84375 220.39662 262.5 220.39662Q262.17188 220.39662 262.0 220.22475Q261.84375 220.03725 261.84375 219.77162ZM270.0625 216.6935Q270.0625 218.59975 269.40625 219.53725Q268.76562 220.45912 267.375 220.45912Q266.01562 220.45912 265.35938 219.55287Q264.70312 218.64662 264.67188 216.83412L264.67188 215.39662Q264.67188 213.506 265.3125 212.59975Q265.96875 211.67787 267.35938 211.67787Q268.73438 211.67787 269.39062 212.5685Q270.04688 213.4435 270.0625 215.28725L270.0625 216.6935ZM268.96875 215.20912Q268.96875 213.83412 268.57812 213.20912Q268.20312 212.5685 267.35938 212.5685Q266.53125 212.5685 266.14062 213.20912Q265.76562 213.83412 265.76562 215.131L265.76562 216.86537Q265.76562 218.24037 266.15625 218.91225Q266.5625 219.5685 267.375 219.5685Q268.17188 219.5685 268.5625 218.9435Q268.95312 218.3185 268.96875 216.99037L268.96875 215.20912ZM272.20312 216.05287L272.64062 211.80287L277.01562 211.80287L277.01562 212.80287L273.5625 212.80287L273.29688 215.131Q273.9375 214.756 274.73438 214.756Q275.89062 214.756 276.57812 215.53725Q277.26562 216.30287 277.26562 217.61537Q277.26562 218.92787 276.54688 219.6935Q275.84375 220.45912 274.5625 220.45912Q273.4375 220.45912 272.71875 219.83412Q272.0 219.1935 271.90625 218.08412L272.92188 218.08412Q273.03125 218.8185 273.45312 219.1935Q273.875 219.5685 274.5625 219.5685Q275.3125 219.5685 275.75 219.05287Q276.1875 218.53725 276.1875 217.631Q276.1875 216.77162 275.71875 216.256Q275.25 215.74037 274.46875 215.74037Q273.76562 215.74037 273.35938 216.03725L273.07812 216.27162L272.20312 216.05287ZM282.96875 211.80287L282.96875 212.70912L282.76562 212.70912Q281.5 212.74037 280.75 213.47475Q280.0 214.1935 279.875 215.506Q280.5625 214.74037 281.71875 214.74037Q282.82812 214.74037 283.5 215.52162Q284.17188 216.30287 284.17188 217.55287Q284.17188 218.86537 283.45312 219.66225Q282.73438 220.45912 281.51562 220.45912Q280.29688 220.45912 279.53125 219.52162Q278.78125 218.5685 278.78125 217.08412L278.78125 216.67787Q278.78125 214.3185 279.78125 213.0685Q280.78125 211.8185 282.76562 211.80287L282.96875 211.80287ZM281.54688 215.64662Q280.98438 215.64662 280.51562 215.97475Q280.04688 216.30287 279.85938 216.8185L279.85938 217.20912Q279.85938 218.27162 280.32812 218.91225Q280.8125 219.55287 281.51562 219.55287Q282.25 219.55287 282.67188 219.02162Q283.09375 218.47475 283.09375 217.59975Q283.09375 216.72475 282.67188 216.1935Q282.25 215.64662 281.54688 215.64662Z" fill-rule="nonzero"/><path fill="#000000" d="M258.26562 220.33412L257.1875 220.33412L257.1875 213.11537L255.0 213.91225L255.0 212.92787L258.10938 211.756L258.26562 211.756L258.26562 220.33412ZM261.84375 219.77162Q261.84375 219.49037 262.0 219.30287Q262.17188 219.11537 262.5 219.11537Q262.84375 219.11537 263.01562 219.30287Q263.1875 219.49037 263.1875 219.77162Q263.1875 220.03725 263.01562 220.22475Q262.84375 220.39662 262.5 220.39662Q262.17188 220.39662 262.0 220.22475Q261.84375 220.03725 261.84375 219.77162ZM270.0625 216.6935Q270.0625 218.59975 269.40625 219.53725Q268.76562 220.45912 267.375 220.45912Q266.01562 220.45912 265.35938 219.55287Q264.70312 218.64662 264.67188 216.83412L264.67188 215.39662Q264.67188 213.506 265.3125 212.59975Q265.96875 211.67787 267.35938 211.67787Q268.73438 211.67787 269.39062 212.5685Q270.04688 213.4435 270.0625 215.28725L270.0625 216.6935ZM268.96875 215.20912Q268.96875 213.83412 268.57812 213.20912Q268.20312 212.5685 267.35938 212.5685Q266.53125 212.5685 266.14062 213.20912Q265.76562 213.83412 265.76562 215.131L265.76562 216.86537Q265.76562 218.24037 266.15625 218.91225Q266.5625 219.5685 267.375 219.5685Q268.17188 219.5685 268.5625 218.9435Q268.95312 218.3185 268.96875 216.99037L268.96875 215.20912ZM272.20312 216.05287L272.64062 211.80287L277.01562 211.80287L277.01562 212.80287L273.5625 212.80287L273.29688 215.131Q273.9375 214.756 274.73438 214.756Q275.89062 214.756 276.57812 215.53725Q277.26562 216.30287 277.26562 217.61537Q277.26562 218.92787 276.54688 219.6935Q275.84375 220.45912 274.5625 220.45912Q273.4375 220.45912 272.71875 219.83412Q272.0 219.1935 271.90625 218.08412L272.92188 218.08412Q273.03125 218.8185 273.45312 219.1935Q273.875 219.5685 274.5625 219.5685Q275.3125 219.5685 275.75 219.05287Q276.1875 218.53725 276.1875 217.631Q276.1875 216.77162 275.71875 216.256Q275.25 215.74037 274.46875 215.74037Q273.76562 215.74037 273.35938 216.03725L273.07812 216.27162L272.20312 216.05287ZM282.96875 211.80287L282.96875 212.70912L282.76562 212.70912Q281.5 212.74037 280.75 213.47475Q280.0 214.1935 279.875 215.506Q280.5625 214.74037 281.71875 214.74037Q282.82812 214.74037 283.5 215.52162Q284.17188 216.30287 284.17188 217.55287Q284.17188 218.86537 283.45312 219.66225Q282.73438 220.45912 281.51562 220.45912Q280.29688 220.45912 279.53125 219.52162Q278.78125 218.5685 278.78125 217.08412L278.78125 216.67787Q278.78125 214.3185 279.78125 213.0685Q280.78125 211.8185 282.76562 211.80287L282.96875 211.80287ZM281.54688 215.64662Q280.98438 215.64662 280.51562 215.97475Q280.04688 216.30287 279.85938 216.8185L279.85938 217.20912Q279.85938 218.27162 280.32812 218.91225Q280.8125 219.55287 281.51562 219.55287Q282.25 219.55287 282.67188 219.02162Q283.09375 218.47475 283.09375 217.59975Q283.09375 216.72475 282.67188 216.1935Q282.25 215.64662 281.54688 215.64662Z" fill-rule="nonzero"/><path stroke="#38761d" stroke-width="3.0" stroke-linejoin="round" stroke-linecap="round" d="M379.26562 108.45447L378.1875 108.45447L378.1875 101.23572L376.0 102.03259L376.0 101.04822L379.10938 99.87634L379.26562 99.87634L379.26562 108.45447ZM382.84375 107.89197Q382.84375 107.61072 383.0 107.42322Q383.17188 107.23572 383.5 107.23572Q383.84375 107.23572 384.01562 107.42322Q384.1875 107.61072 384.1875 107.89197Q384.1875 108.15759 384.01562 108.34509Q383.84375 108.51697 383.5 108.51697Q383.17188 108.51697 383.0 108.34509Q382.84375 108.15759 382.84375 107.89197ZM389.85938 104.70447Q389.53125 105.11072 389.04688 105.36072Q388.57812 105.59509 388.01562 105.59509Q387.28125 105.59509 386.73438 105.23572Q386.1875 104.87634 385.89062 104.22009Q385.59375 103.54822 385.59375 102.75134Q385.59375 101.90759 385.90625 101.22009Q386.23438 100.53259 386.82812 100.17322Q387.4375 99.79822 388.23438 99.79822Q389.5 99.79822 390.21875 100.75134Q390.95312 101.70447 390.95312 103.32947L390.95312 103.64197Q390.95312 106.14197 389.96875 107.28259Q388.98438 108.42322 387.0 108.45447L386.78125 108.45447L386.78125 107.54822L387.01562 107.54822Q388.35938 107.51697 389.07812 106.84509Q389.79688 106.17322 389.85938 104.70447ZM388.1875 104.70447Q388.73438 104.70447 389.1875 104.37634Q389.65625 104.03259 389.875 103.54822L389.875 103.11072Q389.875 102.04822 389.40625 101.37634Q388.9375 100.70447 388.23438 100.70447Q387.51562 100.70447 387.07812 101.25134Q386.65625 101.79822 386.65625 102.70447Q386.65625 103.57947 387.0625 104.14197Q387.48438 104.70447 388.1875 104.70447ZM398.21875 100.53259L394.6875 108.45447L393.54688 108.45447L397.0625 100.81384L392.45312 100.81384L392.45312 99.92322L398.21875 99.92322L398.21875 100.53259ZM405.29688 108.45447L399.70312 108.45447L399.70312 107.67322L402.65625 104.39197Q403.3125 103.64197 403.5625 103.18884Q403.8125 102.72009 403.8125 102.22009Q403.8125 101.54822 403.40625 101.12634Q403.01562 100.68884 402.32812 100.68884Q401.53125 100.68884 401.07812 101.15759Q400.625 101.61072 400.625 102.43884L399.54688 102.43884Q399.54688 101.25134 400.29688 100.53259Q401.0625 99.79822 402.32812 99.79822Q403.53125 99.79822 404.21875 100.42322Q404.90625 101.04822 404.90625 102.09509Q404.90625 103.34509 403.29688 105.09509L401.01562 107.56384L405.29688 107.56384L405.29688 108.45447Z" fill-rule="nonzero"/><path fill="#ffffff" d="M379.26562 108.45447L378.1875 108.45447L378.1875 101.23572L376.0 102.03259L376.0 101.04822L379.10938 99.87634L379.26562 99.87634L379.26562 108.45447ZM382.84375 107.89197Q382.84375 107.61072 383.0 107.42322Q383.17188 107.23572 383.5 107.23572Q383.84375 107.23572 384.01562 107.42322Q384.1875 107.61072 384.1875 107.89197Q384.1875 108.15759 384.01562 108.34509Q383.84375 108.51697 383.5 108.51697Q383.17188 108.51697 383.0 108.34509Q382.84375 108.15759 382.84375 107.89197ZM389.85938 104.70447Q389.53125 105.11072 389.04688 105.36072Q388.57812 105.59509 388.01562 105.59509Q387.28125 105.59509 386.73438 105.23572Q386.1875 104.87634 385.89062 104.22009Q385.59375 103.54822 385.59375 102.75134Q385.59375 101.90759 385.90625 101.22009Q386.23438 100.53259 386.82812 100.17322Q387.4375 99.79822 388.23438 99.79822Q389.5 99.79822 390.21875 100.75134Q390.95312 101.70447 390.95312 103.32947L390.95312 103.64197Q390.95312 106.14197 389.96875 107.28259Q388.98438 108.42322 387.0 108.45447L386.78125 108.45447L386.78125 107.54822L387.01562 107.54822Q388.35938 107.51697 389.07812 106.84509Q389.79688 106.17322 389.85938 104.70447ZM388.1875 104.70447Q388.73438 104.70447 389.1875 104.37634Q389.65625 104.03259 389.875 103.54822L389.875 103.11072Q389.875 102.04822 389.40625 101.37634Q388.9375 100.70447 388.23438 100.70447Q387.51562 100.70447 387.07812 101.25134Q386.65625 101.79822 386.65625 102.70447Q386.65625 103.57947 387.0625 104.14197Q387.48438 104.70447 388.1875 104.70447ZM398.21875 100.53259L394.6875 108.45447L393.54688 108.45447L397.0625 100.81384L392.45312 100.81384L392.45312 99.92322L398.21875 99.92322L398.21875 100.53259ZM405.29688 108.45447L399.70312 108.45447L399.70312 107.67322L402.65625 104.39197Q403.3125 103.64197 403.5625 103.18884Q403.8125 102.72009 403.8125 102.22009Q403.8125 101.54822 403.40625 101.12634Q403.01562 100.68884 402.32812 100.68884Q401.53125 100.68884 401.07812 101.15759Q400.625 101.61072 400.625 102.43884L399.54688 102.43884Q399.54688 101.25134 400.29688 100.53259Q401.0625 99.79822 402.32812 99.79822Q403.53125 99.79822 404.21875 100.42322Q404.90625 101.04822 404.90625 102.09509Q404.90625 103.34509 403.29688 105.09509L401.01562 107.56384L405.29688 107.56384L405.29688 108.45447Z" fill-rule="nonzero"/><path fill="#000000" d="M26.175013 261.91354L25.175013 261.91354L25.159388 258.28854L28.346888 258.28854Q29.018763 259.11667 29.362513 260.0073Q29.690638 260.89792 29.690638 261.83542Q29.690638 263.10104 29.159388 264.14792Q28.612513 265.17917 27.596888 265.71042Q26.565638 266.22604 25.300013 266.22604Q24.034388 266.22604 22.956263 265.71042Q21.862513 265.17917 21.346888 264.1948Q20.815638 263.21042 20.815638 261.92917Q20.815638 260.99167 21.112513 260.24167Q21.409388 259.49167 21.956263 259.0698Q22.487513 258.6323 23.362513 258.41354L23.643763 259.42917Q22.987513 259.6323 22.612513 259.92917Q22.237513 260.21042 22.018763 260.74167Q21.784388 261.27292 21.784388 261.91354Q21.784388 262.6948 22.018763 263.27292Q22.253138 263.83542 22.643763 264.1948Q23.034388 264.53854 23.503138 264.72604Q24.300013 265.05417 25.221888 265.05417Q26.378138 265.05417 27.159388 264.66354Q27.925013 264.2573 28.300013 263.5073Q28.675013 262.7573 28.675013 261.89792Q28.675013 261.16354 28.393763 260.46042Q28.096888 259.7573 27.784388 259.39792L26.175013 259.39792L26.175013 261.91354ZM29.550013 257.10104L20.956263 257.10104L20.956263 256.03854L29.550013 256.03854L29.550013 257.10104ZM26.440638 254.46042Q24.706263 254.46042 23.878138 253.5073Q23.190638 252.71042 23.190638 251.55417Q23.190638 250.27292 24.034388 249.46042Q24.862513 248.6323 26.346888 248.6323Q27.550013 248.6323 28.237513 248.99167Q28.925013 249.35104 29.315638 250.05417Q29.690638 250.74167 29.690638 251.55417Q29.690638 252.85104 28.862513 253.66354Q28.018763 254.46042 26.440638 254.46042ZM26.440638 253.3823Q27.628138 253.3823 28.221888 252.86667Q28.815638 252.33542 28.815638 251.55417Q28.815638 250.7573 28.221888 250.24167Q27.628138 249.72604 26.409388 249.72604Q25.253138 249.72604 24.659388 250.2573Q24.065638 250.77292 24.065638 251.55417Q24.065638 252.33542 24.659388 252.86667Q25.237513 253.3823 26.440638 253.3823ZM29.550013 246.10104L29.550013 247.08542L20.956263 247.08542L20.956263 246.02292L24.018763 246.02292Q23.190638 245.35104 23.190638 244.3198Q23.190638 243.74167 23.425013 243.24167Q23.643763 242.72604 24.065638 242.39792Q24.487513 242.05417 25.081263 241.86667Q25.675013 241.67917 26.346888 241.67917Q27.940638 241.67917 28.815638 242.47604Q29.690638 243.27292 29.690638 244.36667Q29.690638 245.47604 28.768763 246.10104L29.550013 246.10104ZM26.393763 246.11667Q27.503138 246.11667 28.003138 245.80417Q28.815638 245.30417 28.815638 244.46042Q28.815638 243.77292 28.221888 243.27292Q27.628138 242.7573 26.425013 242.7573Q25.206263 242.7573 24.628138 243.24167Q24.050013 243.72604 24.050013 244.41354Q24.050013 245.10104 24.659388 245.61667Q25.253138 246.11667 26.393763 246.11667ZM28.784388 236.0073Q29.284388 236.60104 29.487513 237.14792Q29.690638 237.67917 29.690638 238.30417Q29.690638 239.33542 29.190638 239.8823Q28.690638 240.42917 27.909388 240.42917Q27.456263 240.42917 27.081263 240.22604Q26.690638 240.02292 26.471888 239.67917Q26.237513 239.33542 26.128138 238.91354Q26.034388 238.61667 25.956263 237.97604Q25.815638 236.71042 25.596888 236.10104Q25.378138 236.10104 25.331263 236.10104Q24.675013 236.10104 24.409388 236.39792Q24.065638 236.80417 24.065638 237.60104Q24.065638 238.33542 24.331263 238.6948Q24.581263 239.05417 25.237513 239.22604L25.096888 240.2573Q24.440638 240.11667 24.034388 239.78854Q23.628138 239.46042 23.409388 238.85104Q23.190638 238.24167 23.190638 237.4448Q23.190638 236.64792 23.378138 236.14792Q23.565638 235.64792 23.846888 235.41354Q24.128138 235.17917 24.565638 235.08542Q24.831263 235.03854 25.534388 235.03854L26.940638 235.03854Q28.409388 235.03854 28.800013 234.97604Q29.190638 234.89792 29.550013 234.6948L29.550013 235.80417Q29.221888 235.96042 28.784388 236.0073ZM26.425013 236.10104Q26.659388 236.67917 26.831263 237.8198Q26.925013 238.47604 27.050013 238.74167Q27.159388 239.0073 27.378138 239.16354Q27.596888 239.30417 27.878138 239.30417Q28.300013 239.30417 28.581263 238.99167Q28.862513 238.66354 28.862513 238.05417Q28.862513 237.4448 28.596888 236.97604Q28.331263 236.49167 27.862513 236.27292Q27.503138 236.10104 26.815638 236.10104L26.425013 236.10104ZM29.550013 233.10104L20.956263 233.10104L20.956263 232.03854L29.550013 232.03854L29.550013 233.10104ZM29.550013 226.99167L20.956263 226.99167L20.956263 223.7573Q20.956263 222.77292 21.221888 222.17917Q21.487513 221.58542 22.034388 221.2573Q22.565638 220.91354 23.159388 220.91354Q23.706263 220.91354 24.190638 221.21042Q24.675013 221.5073 24.971888 222.11667Q25.206263 221.33542 25.768763 220.92917Q26.315638 220.5073 27.065638 220.5073Q27.659388 220.5073 28.190638 220.7573Q28.706263 221.0073 28.987513 221.3823Q29.268763 221.7573 29.409388 222.33542Q29.550013 222.89792 29.550013 223.71042L29.550013 226.99167ZM24.565638 225.85104L24.565638 223.99167Q24.565638 223.24167 24.471888 222.91354Q24.346888 222.47604 24.050013 222.2573Q23.737513 222.03854 23.284388 222.03854Q22.862513 222.03854 22.534388 222.24167Q22.206263 222.4448 22.096888 222.83542Q21.971888 223.21042 21.971888 224.1323L21.971888 225.85104L24.565638 225.85104ZM28.534388 225.85104L28.534388 223.71042Q28.534388 223.16354 28.487513 222.9448Q28.425013 222.53854 28.268763 222.28854Q28.096888 222.02292 27.784388 221.85104Q27.471888 221.67917 27.065638 221.67917Q26.581263 221.67917 26.221888 221.92917Q25.862513 222.16354 25.721888 222.60104Q25.581263 223.03854 25.581263 223.86667L25.581263 225.85104L28.534388 225.85104ZM28.784388 215.0073Q29.284388 215.60104 29.487513 216.14792Q29.690638 216.67917 29.690638 217.30417Q29.690638 218.33542 29.190638 218.8823Q28.690638 219.42917 27.909388 219.42917Q27.456263 219.42917 27.081263 219.22604Q26.690638 219.02292 26.471888 218.67917Q26.237513 218.33542 26.128138 217.91354Q26.034388 217.61667 25.956263 216.97604Q25.815638 215.71042 25.596888 215.10104Q25.378138 215.10104 25.331263 215.10104Q24.675013 215.10104 24.409388 215.39792Q24.065638 215.80417 24.065638 216.60104Q24.065638 217.33542 24.331263 217.6948Q24.581263 218.05417 25.237513 218.22604L25.096888 219.2573Q24.440638 219.11667 24.034388 218.78854Q23.628138 218.46042 23.409388 217.85104Q23.190638 217.24167 23.190638 216.4448Q23.190638 215.64792 23.378138 215.14792Q23.565638 214.64792 23.846888 214.41354Q24.128138 214.17917 24.565638 214.08542Q24.831263 214.03854 25.534388 214.03854L26.940638 214.03854Q28.409388 214.03854 28.800013 213.97604Q29.190638 213.89792 29.550013 213.6948L29.550013 214.80417Q29.221888 214.96042 28.784388 215.0073ZM26.425013 215.10104Q26.659388 215.67917 26.831263 216.8198Q26.925013 217.47604 27.050013 217.74167Q27.159388 218.0073 27.378138 218.16354Q27.596888 218.30417 27.878138 218.30417Q28.300013 218.30417 28.581263 217.99167Q28.862513 217.66354 28.862513 217.05417Q28.862513 216.4448 28.596888 215.97604Q28.331263 215.49167 27.862513 215.27292Q27.503138 215.10104 26.815638 215.10104L26.425013 215.10104ZM28.612513 209.77292L29.534388 209.61667Q29.628138 210.0698 29.628138 210.41354Q29.628138 210.99167 29.456263 211.30417Q29.268763 211.61667 28.971888 211.7573Q28.675013 211.8823 27.721888 211.8823L24.143763 211.8823L24.143763 212.64792L23.331263 212.64792L23.331263 211.8823L21.784388 211.8823L21.159388 210.83542L23.331263 210.83542L23.331263 209.77292L24.143763 209.77292L24.143763 210.83542L27.784388 210.83542Q28.237513 210.83542 28.362513 210.78854Q28.487513 210.72604 28.565638 210.60104Q28.643763 210.47604 28.643763 210.24167Q28.643763 210.05417 28.612513 209.77292ZM27.268763 205.0073L27.409388 203.97604Q28.471888 204.14792 29.081263 204.85104Q29.690638 205.55417 29.690638 206.5698Q29.690638 207.85104 28.862513 208.6323Q28.018763 209.39792 26.456263 209.39792Q25.456263 209.39792 24.706263 209.0698Q23.940638 208.72604 23.565638 208.05417Q23.190638 207.36667 23.190638 206.55417Q23.190638 205.55417 23.706263 204.91354Q24.206263 204.2573 25.159388 204.0698L25.315638 205.10104Q24.690638 205.24167 24.378138 205.61667Q24.050013 205.99167 24.050013 206.52292Q24.050013 207.3198 24.628138 207.8198Q25.190638 208.3198 26.425013 208.3198Q27.690638 208.3198 28.253138 207.83542Q28.815638 207.35104 28.815638 206.58542Q28.815638 205.96042 28.440638 205.55417Q28.065638 205.1323 27.268763 205.0073ZM29.550013 203.0698L20.956263 203.0698L20.956263 202.02292L24.034388 202.02292Q23.190638 201.28854 23.190638 200.16354Q23.190638 199.46042 23.471888 198.96042Q23.737513 198.4448 24.221888 198.22604Q24.690638 198.0073 25.612513 198.0073L29.550013 198.0073L29.550013 199.05417L25.612513 199.05417Q24.815638 199.05417 24.456263 199.39792Q24.096888 199.74167 24.096888 200.36667Q24.096888 200.83542 24.346888 201.2573Q24.581263 201.66354 25.003138 201.85104Q25.409388 202.02292 26.143763 202.02292L29.550013 202.02292L29.550013 203.0698ZM29.690638 193.86667L20.815638 191.3823L20.815638 190.53854L29.690638 193.02292L29.690638 193.86667ZM26.784388 187.3198L26.690638 186.2573Q27.346888 186.17917 27.753138 185.89792Q28.159388 185.61667 28.425013 185.03854Q28.675013 184.4448 28.675013 183.71042Q28.675013 183.0698 28.487513 182.5698Q28.284388 182.0698 27.956263 181.83542Q27.612513 181.58542 27.221888 181.58542Q26.815638 181.58542 26.518763 181.8198Q26.206263 182.05417 26.003138 182.58542Q25.862513 182.9448 25.581263 184.1323Q25.300013 185.30417 25.050013 185.77292Q24.721888 186.39792 24.253138 186.6948Q23.768763 186.99167 23.175013 186.99167Q22.534388 186.99167 21.971888 186.6323Q21.393763 186.2573 21.112513 185.55417Q20.815638 184.83542 20.815638 183.97604Q20.815638 183.02292 21.128138 182.28854Q21.425013 181.55417 22.034388 181.16354Q22.628138 180.77292 23.378138 180.74167L23.456263 181.83542Q22.643763 181.92917 22.237513 182.4448Q21.815638 182.9448 21.815638 183.92917Q21.815638 184.96042 22.190638 185.42917Q22.565638 185.89792 23.096888 185.89792Q23.565638 185.89792 23.862513 185.5698Q24.159388 185.24167 24.471888 183.86667Q24.784388 182.47604 25.018763 181.96042Q25.378138 181.21042 25.909388 180.85104Q26.425013 180.49167 27.128138 180.49167Q27.815638 180.49167 28.425013 180.8823Q29.018763 181.27292 29.362513 182.0073Q29.690638 182.74167 29.690638 183.66354Q29.690638 184.83542 29.362513 185.6323Q29.018763 186.41354 28.331263 186.86667Q27.643763 187.30417 26.784388 187.3198ZM27.550013 174.8198L27.675013 173.72604Q28.628138 173.97604 29.159388 174.67917Q29.690638 175.3823 29.690638 176.46042Q29.690638 177.8198 28.846888 178.6323Q28.003138 179.42917 26.487513 179.42917Q24.925013 179.42917 24.065638 178.61667Q23.190638 177.80417 23.190638 176.52292Q23.190638 175.27292 24.034388 174.49167Q24.878138 173.6948 26.425013 173.6948Q26.518763 173.6948 26.706263 173.6948L26.706263 178.33542Q27.737513 178.27292 28.284388 177.7573Q28.815638 177.24167 28.815638 176.46042Q28.815638 175.8823 28.518763 175.47604Q28.206263 175.05417 27.550013 174.8198ZM25.846888 178.27292L25.846888 174.80417Q25.050013 174.86667 24.659388 175.1948Q24.050013 175.71042 24.050013 176.5073Q24.050013 177.24167 24.534388 177.74167Q25.018763 178.22604 25.846888 178.27292ZM27.268763 168.0073L27.409388 166.97604Q28.471888 167.14792 29.081263 167.85104Q29.690638 168.55417 29.690638 169.5698Q29.690638 170.85104 28.862513 171.6323Q28.018763 172.39792 26.456263 172.39792Q25.456263 172.39792 24.706263 172.0698Q23.940638 171.72604 23.565638 171.05417Q23.190638 170.36667 23.190638 169.55417Q23.190638 168.55417 23.706263 167.91354Q24.206263 167.2573 25.159388 167.0698L25.315638 168.10104Q24.690638 168.24167 24.378138 168.61667Q24.050013 168.99167 24.050013 169.52292Q24.050013 170.3198 24.628138 170.8198Q25.190638 171.3198 26.425013 171.3198Q27.690638 171.3198 28.253138 170.83542Q28.815638 170.35104 28.815638 169.58542Q28.815638 168.96042 28.440638 168.55417Q28.065638 168.1323 27.268763 168.0073Z" fill-rule="nonzero"/><path fill="#000000" d="M65.05 332.21564Q65.05 330.6844 65.3625 329.7625Q65.675 328.825 66.28438 328.325Q66.90938 327.825 67.84688 327.825Q68.53438 327.825 69.05 328.10626Q69.58125 328.3875 69.925 328.91876Q70.26875 329.4344 70.45625 330.1844Q70.64375 330.9344 70.64375 332.21564Q70.64375 333.73126 70.33125 334.65314Q70.03438 335.575 69.40938 336.09064Q68.8 336.59064 67.84688 336.59064Q66.6125 336.59064 65.89375 335.7Q65.05 334.6375 65.05 332.21564ZM66.12813 332.21564Q66.12813 334.325 66.62813 335.02814Q67.12813 335.73126 67.84688 335.73126Q68.58125 335.73126 69.06563 335.02814Q69.56563 334.325 69.56563 332.21564Q69.56563 330.09064 69.06563 329.40314Q68.58125 328.7 67.83125 328.7Q67.1125 328.7 66.675 329.3094Q66.12813 330.09064 66.12813 332.21564Z" fill-rule="nonzero"/><path fill="#000000" d="M55.05 271.17395Q55.05 269.6427 55.3625 268.72083Q55.675 267.78333 56.284374 267.28333Q56.909374 266.78333 57.846874 266.78333Q58.534374 266.78333 59.05 267.06458Q59.58125 267.34583 59.925 267.87708Q60.26875 268.3927 60.45625 269.1427Q60.64375 269.8927 60.64375 271.17395Q60.64375 272.68958 60.33125 273.61145Q60.034374 274.53333 59.409374 275.04895Q58.8 275.54895 57.846874 275.54895Q56.6125 275.54895 55.89375 274.65833Q55.05 273.59583 55.05 271.17395ZM56.128124 271.17395Q56.128124 273.28333 56.628124 273.98645Q57.128124 274.68958 57.846874 274.68958Q58.58125 274.68958 59.065624 273.98645Q59.565624 273.28333 59.565624 271.17395Q59.565624 269.04895 59.065624 268.36145Q58.58125 267.65833 57.83125 267.65833Q57.1125 267.65833 56.675 268.2677Q56.128124 269.04895 56.128124 271.17395ZM62.64375 275.40833L62.64375 274.2052L63.846874 274.2052L63.846874 275.40833L62.64375 275.40833ZM65.05 273.15833L66.15938 273.06458Q66.28438 273.87708 66.72188 274.28333Q67.175 274.68958 67.81563 274.68958Q68.56563 274.68958 69.09688 274.11145Q69.62813 273.53333 69.62813 272.59583Q69.62813 271.68958 69.1125 271.17395Q68.6125 270.6427 67.78438 270.6427Q67.28438 270.6427 66.8625 270.87708Q66.45625 271.11145 66.22188 271.47083L65.2375 271.34583L66.06563 266.93958L70.34688 266.93958L70.34688 267.93958L66.90938 267.93958L66.45625 270.25208Q67.22188 269.7052 68.06563 269.7052Q69.19063 269.7052 69.95625 270.48645Q70.7375 271.2677 70.7375 272.50208Q70.7375 273.65833 70.06563 274.5177Q69.2375 275.54895 67.81563 275.54895Q66.64375 275.54895 65.89375 274.8927Q65.15938 274.23645 65.05 273.15833Z" fill-rule="nonzero"/><path fill="#000000" d="M69.01875 214.36667L67.97188 214.36667L67.97188 207.64792Q67.58125 208.0073 66.95625 208.3823Q66.34688 208.74167 65.8625 208.91354L65.8625 207.89792Q66.7375 207.47604 67.39375 206.89792Q68.06563 206.30417 68.34688 205.74167L69.01875 205.74167L69.01875 214.36667Z" fill-rule="nonzero"/><path fill="#000000" d="M59.01875 153.325L57.971874 153.325L57.971874 146.60625Q57.58125 146.96562 56.95625 147.34062Q56.346874 147.7 55.8625 147.87187L55.8625 146.85625Q56.7375 146.43437 57.39375 145.85625Q58.065624 145.2625 58.346874 144.7L59.01875 144.7L59.01875 153.325ZM62.64375 153.325L62.64375 152.12187L63.846874 152.12187L63.846874 153.325L62.64375 153.325ZM65.05 151.075L66.15938 150.98125Q66.28438 151.79375 66.72188 152.2Q67.175 152.60625 67.81563 152.60625Q68.56563 152.60625 69.09688 152.02812Q69.62813 151.45 69.62813 150.5125Q69.62813 149.60625 69.1125 149.09062Q68.6125 148.55937 67.78438 148.55937Q67.28438 148.55937 66.8625 148.79375Q66.45625 149.02812 66.22188 149.3875L65.2375 149.2625L66.06563 144.85625L70.34688 144.85625L70.34688 145.85625L66.90938 145.85625L66.45625 148.16875Q67.22188 147.62187 68.06563 147.62187Q69.19063 147.62187 69.95625 148.40312Q70.7375 149.18437 70.7375 150.41875Q70.7375 151.575 70.06563 152.43437Q69.2375 153.46562 67.81563 153.46562Q66.64375 153.46562 65.89375 152.80937Q65.15938 152.15312 65.05 151.075Z" fill-rule="nonzero"/><path fill="#000000" d="M70.59688 91.26771L70.59688 92.28333L64.90938 92.28333Q64.90938 91.90833 65.03438 91.54896Q65.25313 90.97083 65.72188 90.40833Q66.20625 89.84583 67.1125 89.11146Q68.51875 87.95521 69.00313 87.28333Q69.50313 86.61146 69.50313 86.01771Q69.50313 85.39271 69.05 84.97083Q68.59688 84.53333 67.87813 84.53333Q67.1125 84.53333 66.65938 84.98646Q66.20625 85.43958 66.19063 86.25208L65.1125 86.14271Q65.22188 84.92396 65.94063 84.29896Q66.675 83.65833 67.90938 83.65833Q69.14375 83.65833 69.8625 84.34583Q70.58125 85.03333 70.58125 86.04896Q70.58125 86.56458 70.3625 87.06458Q70.15938 87.54896 69.65938 88.11146Q69.175 88.65833 68.05 89.61146Q67.09688 90.40833 66.81563 90.70521Q66.55 90.98646 66.37813 91.26771L70.59688 91.26771Z" fill-rule="nonzero"/><path fill="#000000" d="M255.54688 346.6844L256.60938 346.59064Q256.6875 347.2469 256.96875 347.65314Q257.25 348.0594 257.82812 348.325Q258.42188 348.575 259.15625 348.575Q259.79688 348.575 260.29688 348.3875Q260.79688 348.1844 261.03125 347.85626Q261.28125 347.5125 261.28125 347.1219Q261.28125 346.71564 261.04688 346.41876Q260.8125 346.10626 260.28125 345.90314Q259.92188 345.7625 258.73438 345.48126Q257.5625 345.2 257.09375 344.95Q256.46875 344.6219 256.17188 344.15314Q255.875 343.66876 255.875 343.075Q255.875 342.4344 256.23438 341.8719Q256.60938 341.29376 257.3125 341.0125Q258.03125 340.71564 258.89062 340.71564Q259.84375 340.71564 260.57812 341.02814Q261.3125 341.325 261.70312 341.9344Q262.09375 342.52814 262.125 343.27814L261.03125 343.35626Q260.9375 342.54376 260.42188 342.1375Q259.92188 341.71564 258.9375 341.71564Q257.90625 341.71564 257.4375 342.09064Q256.96875 342.46564 256.96875 342.9969Q256.96875 343.46564 257.29688 343.7625Q257.625 344.0594 259.0 344.3719Q260.39062 344.6844 260.90625 344.91876Q261.65625 345.27814 262.01562 345.8094Q262.375 346.325 262.375 347.02814Q262.375 347.71564 261.98438 348.325Q261.59375 348.91876 260.85938 349.2625Q260.125 349.59064 259.20312 349.59064Q258.03125 349.59064 257.23438 349.2625Q256.45312 348.91876 256.0 348.23126Q255.5625 347.54376 255.54688 346.6844ZM266.09375 348.5125L266.25 349.4344Q265.79688 349.52814 265.45312 349.52814Q264.875 349.52814 264.5625 349.35626Q264.25 349.16876 264.10938 348.8719Q263.98438 348.575 263.98438 347.6219L263.98438 344.04376L263.21875 344.04376L263.21875 343.23126L263.98438 343.23126L263.98438 341.6844L265.03125 341.0594L265.03125 343.23126L266.09375 343.23126L266.09375 344.04376L265.03125 344.04376L265.03125 347.6844Q265.03125 348.1375 265.07812 348.2625Q265.14062 348.3875 265.26562 348.46564Q265.39062 348.54376 265.625 348.54376Q265.8125 348.54376 266.09375 348.5125ZM270.85938 348.6844Q270.26562 349.1844 269.71875 349.3875Q269.1875 349.59064 268.5625 349.59064Q267.53125 349.59064 266.98438 349.09064Q266.4375 348.59064 266.4375 347.8094Q266.4375 347.35626 266.64062 346.98126Q266.84375 346.59064 267.1875 346.3719Q267.53125 346.1375 267.95312 346.02814Q268.25 345.9344 268.89062 345.85626Q270.15625 345.71564 270.76562 345.4969Q270.76562 345.27814 270.76562 345.23126Q270.76562 344.575 270.46875 344.3094Q270.0625 343.96564 269.26562 343.96564Q268.53125 343.96564 268.17188 344.23126Q267.8125 344.48126 267.64062 345.1375L266.60938 344.9969Q266.75 344.34064 267.07812 343.9344Q267.40625 343.52814 268.01562 343.3094Q268.625 343.09064 269.42188 343.09064Q270.21875 343.09064 270.71875 343.27814Q271.21875 343.46564 271.45312 343.7469Q271.6875 344.02814 271.78125 344.46564Q271.82812 344.73126 271.82812 345.4344L271.82812 346.84064Q271.82812 348.3094 271.89062 348.7Q271.96875 349.09064 272.17188 349.45L271.0625 349.45Q270.90625 349.1219 270.85938 348.6844ZM270.76562 346.325Q270.1875 346.5594 269.04688 346.73126Q268.39062 346.825 268.125 346.95Q267.85938 347.0594 267.70312 347.27814Q267.5625 347.4969 267.5625 347.77814Q267.5625 348.2 267.875 348.48126Q268.20312 348.7625 268.8125 348.7625Q269.42188 348.7625 269.89062 348.4969Q270.375 348.23126 270.59375 347.7625Q270.76562 347.40314 270.76562 346.71564L270.76562 346.325ZM274.76562 349.45L273.78125 349.45L273.78125 340.85626L274.84375 340.85626L274.84375 343.91876Q275.51562 343.09064 276.54688 343.09064Q277.125 343.09064 277.625 343.325Q278.14062 343.54376 278.46875 343.96564Q278.8125 344.3875 279.0 344.98126Q279.1875 345.575 279.1875 346.2469Q279.1875 347.84064 278.39062 348.71564Q277.59375 349.59064 276.5 349.59064Q275.39062 349.59064 274.76562 348.66876L274.76562 349.45ZM274.75 346.29376Q274.75 347.40314 275.0625 347.90314Q275.5625 348.71564 276.40625 348.71564Q277.09375 348.71564 277.59375 348.1219Q278.10938 347.52814 278.10938 346.325Q278.10938 345.10626 277.625 344.52814Q277.14062 343.95 276.45312 343.95Q275.76562 343.95 275.25 344.5594Q274.75 345.15314 274.75 346.29376ZM280.76562 349.45L280.76562 340.85626L281.82812 340.85626L281.82812 349.45L280.76562 349.45ZM288.04688 347.45L289.14062 347.575Q288.89062 348.52814 288.1875 349.0594Q287.48438 349.59064 286.40625 349.59064Q285.04688 349.59064 284.23438 348.7469Q283.4375 347.90314 283.4375 346.3875Q283.4375 344.825 284.25 343.96564Q285.0625 343.09064 286.34375 343.09064Q287.59375 343.09064 288.375 343.9344Q289.17188 344.77814 289.17188 346.325Q289.17188 346.41876 289.17188 346.60626L284.53125 346.60626Q284.59375 347.6375 285.10938 348.1844Q285.625 348.71564 286.40625 348.71564Q286.98438 348.71564 287.39062 348.41876Q287.8125 348.10626 288.04688 347.45ZM284.59375 345.7469L288.0625 345.7469Q288.0 344.95 287.67188 344.5594Q287.15625 343.95 286.35938 343.95Q285.625 343.95 285.125 344.4344Q284.64062 344.91876 284.59375 345.7469ZM293.92188 349.45L293.92188 340.85626L296.89062 340.85626Q297.89062 340.85626 298.42188 340.98126Q299.15625 341.15314 299.67188 341.59064Q300.35938 342.16876 300.6875 343.075Q301.03125 343.96564 301.03125 345.10626Q301.03125 346.09064 300.79688 346.84064Q300.57812 347.59064 300.21875 348.09064Q299.85938 348.59064 299.42188 348.8719Q299.0 349.15314 298.40625 349.3094Q297.8125 349.45 297.03125 349.45L293.92188 349.45ZM295.0625 348.4344L296.89062 348.4344Q297.75 348.4344 298.23438 348.27814Q298.71875 348.1219 299.0 347.825Q299.40625 347.4344 299.625 346.7469Q299.85938 346.0594 299.85938 345.09064Q299.85938 343.7469 299.40625 343.02814Q298.96875 342.29376 298.34375 342.04376Q297.875 341.8719 296.875 341.8719L295.0625 341.8719L295.0625 348.4344ZM302.79688 342.075L302.79688 340.85626L303.85938 340.85626L303.85938 342.075L302.79688 342.075ZM302.79688 349.45L302.79688 343.23126L303.85938 343.23126L303.85938 349.45L302.79688 349.45ZM306.04688 349.45L306.04688 344.04376L305.10938 344.04376L305.10938 343.23126L306.04688 343.23126L306.04688 342.5594Q306.04688 341.9344 306.15625 341.6375Q306.3125 341.21564 306.6875 340.96564Q307.07812 340.71564 307.76562 340.71564Q308.21875 340.71564 308.75 340.825L308.59375 341.73126Q308.26562 341.6844 307.96875 341.6844Q307.48438 341.6844 307.28125 341.8875Q307.09375 342.09064 307.09375 342.65314L307.09375 343.23126L308.3125 343.23126L308.3125 344.04376L307.09375 344.04376L307.09375 349.45L306.04688 349.45ZM309.04688 349.45L309.04688 344.04376L308.10938 344.04376L308.10938 343.23126L309.04688 343.23126L309.04688 342.5594Q309.04688 341.9344 309.15625 341.6375Q309.3125 341.21564 309.6875 340.96564Q310.07812 340.71564 310.76562 340.71564Q311.21875 340.71564 311.75 340.825L311.59375 341.73126Q311.26562 341.6844 310.96875 341.6844Q310.48438 341.6844 310.28125 341.8875Q310.09375 342.09064 310.09375 342.65314L310.09375 343.23126L311.3125 343.23126L311.3125 344.04376L310.09375 344.04376L310.09375 349.45L309.04688 349.45ZM315.875 349.45L315.875 348.52814Q315.14062 349.59064 313.89062 349.59064Q313.34375 349.59064 312.85938 349.3875Q312.39062 349.16876 312.15625 348.85626Q311.92188 348.52814 311.82812 348.0594Q311.76562 347.7625 311.76562 347.075L311.76562 343.23126L312.82812 343.23126L312.82812 346.6844Q312.82812 347.4969 312.89062 347.79376Q312.98438 348.2 313.29688 348.45Q313.625 348.6844 314.10938 348.6844Q314.57812 348.6844 314.98438 348.45Q315.40625 348.2 315.57812 347.77814Q315.76562 347.35626 315.76562 346.5594L315.76562 343.23126L316.8125 343.23126L316.8125 349.45L315.875 349.45ZM318.375 347.59064L319.40625 347.4344Q319.5 348.0594 319.89062 348.3875Q320.29688 348.71564 321.03125 348.71564Q321.75 348.71564 322.09375 348.4344Q322.45312 348.1375 322.45312 347.73126Q322.45312 347.3719 322.14062 347.16876Q321.92188 347.02814 321.0625 346.8094Q319.90625 346.5125 319.45312 346.3094Q319.01562 346.09064 318.78125 345.71564Q318.54688 345.34064 318.54688 344.8719Q318.54688 344.46564 318.73438 344.10626Q318.92188 343.7469 319.25 343.5125Q319.5 343.34064 319.92188 343.21564Q320.34375 343.09064 320.84375 343.09064Q321.5625 343.09064 322.10938 343.3094Q322.67188 343.5125 322.9375 343.8719Q323.20312 344.23126 323.29688 344.825L322.26562 344.96564Q322.20312 344.4969 321.85938 344.23126Q321.53125 343.95 320.90625 343.95Q320.1875 343.95 319.875 344.2Q319.5625 344.4344 319.5625 344.7625Q319.5625 344.96564 319.6875 345.1219Q319.82812 345.29376 320.09375 345.40314Q320.25 345.46564 321.03125 345.66876Q322.15625 345.98126 322.59375 346.16876Q323.03125 346.35626 323.28125 346.71564Q323.53125 347.075 323.53125 347.6219Q323.53125 348.15314 323.21875 348.6219Q322.92188 349.075 322.34375 349.34064Q321.76562 349.59064 321.03125 349.59064Q319.8125 349.59064 319.17188 349.09064Q318.54688 348.575 318.375 347.59064ZM325.79688 342.075L325.79688 340.85626L326.85938 340.85626L326.85938 342.075L325.79688 342.075ZM325.79688 349.45L325.79688 343.23126L326.85938 343.23126L326.85938 349.45L325.79688 349.45ZM328.40625 346.34064Q328.40625 344.60626 329.35938 343.77814Q330.15625 343.09064 331.3125 343.09064Q332.59375 343.09064 333.40625 343.9344Q334.23438 344.7625 334.23438 346.2469Q334.23438 347.45 333.875 348.1375Q333.51562 348.825 332.8125 349.21564Q332.125 349.59064 331.3125 349.59064Q330.01562 349.59064 329.20312 348.7625Q328.40625 347.91876 328.40625 346.34064ZM329.48438 346.34064Q329.48438 347.52814 330.0 348.1219Q330.53125 348.71564 331.3125 348.71564Q332.10938 348.71564 332.625 348.1219Q333.14062 347.52814 333.14062 346.3094Q333.14062 345.15314 332.60938 344.5594Q332.09375 343.96564 331.3125 343.96564Q330.53125 343.96564 330.0 344.5594Q329.48438 345.1375 329.48438 346.34064ZM335.79688 349.45L335.79688 343.23126L336.73438 343.23126L336.73438 344.10626Q337.42188 343.09064 338.71875 343.09064Q339.28125 343.09064 339.75 343.29376Q340.23438 343.4969 340.46875 343.825Q340.70312 344.15314 340.79688 344.59064Q340.84375 344.8875 340.84375 345.6219L340.84375 349.45L339.79688 349.45L339.79688 345.66876Q339.79688 345.0125 339.67188 344.7Q339.54688 344.3875 339.23438 344.2Q338.92188 343.9969 338.5 343.9969Q337.82812 343.9969 337.32812 344.4344Q336.84375 344.85626 336.84375 346.04376L336.84375 349.45L335.79688 349.45ZM347.8125 351.98126Q346.9375 350.8719 346.32812 349.40314Q345.73438 347.91876 345.73438 346.34064Q345.73438 344.95 346.17188 343.66876Q346.70312 342.1844 347.8125 340.71564L348.5625 340.71564Q347.85938 341.9344 347.625 342.45Q347.26562 343.2625 347.0625 344.1375Q346.8125 345.23126 346.8125 346.34064Q346.8125 349.16876 348.5625 351.98126L347.8125 351.98126ZM349.9375 349.45L349.9375 340.85626L353.75 340.85626Q354.90625 340.85626 355.5 341.09064Q356.09375 341.325 356.45312 341.91876Q356.8125 342.4969 356.8125 343.2Q356.8125 344.1219 356.21875 344.7469Q355.625 345.3719 354.39062 345.54376Q354.84375 345.7625 355.07812 345.96564Q355.57812 346.41876 356.01562 347.10626L357.51562 349.45L356.07812 349.45L354.95312 347.66876Q354.45312 346.8875 354.125 346.48126Q353.8125 346.075 353.54688 345.91876Q353.29688 345.7469 353.03125 345.66876Q352.84375 345.6375 352.40625 345.6375L351.07812 345.6375L351.07812 349.45L349.9375 349.45ZM351.07812 344.65314L353.53125 344.65314Q354.29688 344.65314 354.73438 344.4969Q355.1875 344.325 355.40625 343.98126Q355.64062 343.6219 355.64062 343.2Q355.64062 342.59064 355.1875 342.2Q354.75 341.8094 353.79688 341.8094L351.07812 341.8094L351.07812 344.65314ZM363.04688 347.45L364.14062 347.575Q363.89062 348.52814 363.1875 349.0594Q362.48438 349.59064 361.40625 349.59064Q360.04688 349.59064 359.23438 348.7469Q358.4375 347.90314 358.4375 346.3875Q358.4375 344.825 359.25 343.96564Q360.0625 343.09064 361.34375 343.09064Q362.59375 343.09064 363.375 343.9344Q364.17188 344.77814 364.17188 346.325Q364.17188 346.41876 364.17188 346.60626L359.53125 346.60626Q359.59375 347.6375 360.10938 348.1844Q360.625 348.71564 361.40625 348.71564Q361.98438 348.71564 362.39062 348.41876Q362.8125 348.10626 363.04688 347.45ZM359.59375 345.7469L363.0625 345.7469Q363.0 344.95 362.67188 344.5594Q362.15625 343.95 361.35938 343.95Q360.625 343.95 360.125 344.4344Q359.64062 344.91876 359.59375 345.7469ZM365.375 347.59064L366.40625 347.4344Q366.5 348.0594 366.89062 348.3875Q367.29688 348.71564 368.03125 348.71564Q368.75 348.71564 369.09375 348.4344Q369.45312 348.1375 369.45312 347.73126Q369.45312 347.3719 369.14062 347.16876Q368.92188 347.02814 368.0625 346.8094Q366.90625 346.5125 366.45312 346.3094Q366.01562 346.09064 365.78125 345.71564Q365.54688 345.34064 365.54688 344.8719Q365.54688 344.46564 365.73438 344.10626Q365.92188 343.7469 366.25 343.5125Q366.5 343.34064 366.92188 343.21564Q367.34375 343.09064 367.84375 343.09064Q368.5625 343.09064 369.10938 343.3094Q369.67188 343.5125 369.9375 343.8719Q370.20312 344.23126 370.29688 344.825L369.26562 344.96564Q369.20312 344.4969 368.85938 344.23126Q368.53125 343.95 367.90625 343.95Q367.1875 343.95 366.875 344.2Q366.5625 344.4344 366.5625 344.7625Q366.5625 344.96564 366.6875 345.1219Q366.82812 345.29376 367.09375 345.40314Q367.25 345.46564 368.03125 345.66876Q369.15625 345.98126 369.59375 346.16876Q370.03125 346.35626 370.28125 346.71564Q370.53125 347.075 370.53125 347.6219Q370.53125 348.15314 370.21875 348.6219Q369.92188 349.075 369.34375 349.34064Q368.76562 349.59064 368.03125 349.59064Q366.8125 349.59064 366.17188 349.09064Q365.54688 348.575 365.375 347.59064ZM378.34375 344.40314L372.67188 344.40314L372.67188 343.41876L378.34375 343.41876L378.34375 344.40314ZM378.34375 347.0125L372.67188 347.0125L372.67188 346.02814L378.34375 346.02814L378.34375 347.0125ZM379.5 347.2L380.60938 347.10626Q380.73438 347.91876 381.17188 348.325Q381.625 348.73126 382.26562 348.73126Q383.01562 348.73126 383.54688 348.15314Q384.07812 347.575 384.07812 346.6375Q384.07812 345.73126 383.5625 345.21564Q383.0625 344.6844 382.23438 344.6844Q381.73438 344.6844 381.3125 344.91876Q380.90625 345.15314 380.67188 345.5125L379.6875 345.3875L380.51562 340.98126L384.79688 340.98126L384.79688 341.98126L381.35938 341.98126L380.90625 344.29376Q381.67188 343.7469 382.51562 343.7469Q383.64062 343.7469 384.40625 344.52814Q385.1875 345.3094 385.1875 346.54376Q385.1875 347.7 384.51562 348.5594Q383.6875 349.59064 382.26562 349.59064Q381.09375 349.59064 380.34375 348.9344Q379.60938 348.27814 379.5 347.2ZM390.46875 349.45L389.42188 349.45L389.42188 342.73126Q389.03125 343.09064 388.40625 343.46564Q387.79688 343.825 387.3125 343.9969L387.3125 342.98126Q388.1875 342.5594 388.84375 341.98126Q389.51562 341.3875 389.79688 340.825L390.46875 340.825L390.46875 349.45ZM399.04688 348.4344L399.04688 349.45L393.35938 349.45Q393.35938 349.075 393.48438 348.71564Q393.70312 348.1375 394.17188 347.575Q394.65625 347.0125 395.5625 346.27814Q396.96875 345.1219 397.45312 344.45Q397.95312 343.77814 397.95312 343.1844Q397.95312 342.5594 397.5 342.1375Q397.04688 341.7 396.32812 341.7Q395.5625 341.7 395.10938 342.15314Q394.65625 342.60626 394.64062 343.41876L393.5625 343.3094Q393.67188 342.09064 394.39062 341.46564Q395.125 340.825 396.35938 340.825Q397.59375 340.825 398.3125 341.5125Q399.03125 342.2 399.03125 343.21564Q399.03125 343.73126 398.8125 344.23126Q398.60938 344.71564 398.10938 345.27814Q397.625 345.825 396.5 346.77814Q395.54688 347.575 395.26562 347.8719Q395.0 348.15314 394.82812 348.4344L399.04688 348.4344ZM401.48438 351.98126L400.73438 351.98126Q402.48438 349.16876 402.48438 346.34064Q402.48438 345.2469 402.23438 344.15314Q402.03125 343.27814 401.67188 342.46564Q401.4375 341.95 400.73438 340.71564L401.48438 340.71564Q402.57812 342.1844 403.10938 343.66876Q403.5625 344.95 403.5625 346.34064Q403.5625 347.91876 402.95312 349.40314Q402.34375 350.8719 401.48438 351.98126Z" fill-rule="nonzero"/><path fill="#b6d7a8" d="M216.0 56.916668C216.0 56.364384 216.44771 55.916668 217.0 55.916668L227.0 55.916668C227.55229 55.916668 228.0 56.364384 228.0 56.916668L228.0 66.916664C228.0 67.46895 227.55229 67.916664 227.0 67.916664L217.0 67.916664C216.44771 67.916664 216.0 67.46895 216.0 66.916664Z" fill-rule="nonzero"/><path fill="#1a1a1a" d="M236.875 57.322914L240.03125 57.322914Q241.10938 57.322914 241.67188 57.49479Q242.42188 57.71354 242.95312 58.291664Q243.5 58.854164 243.78125 59.68229Q244.0625 60.49479 244.0625 61.697914Q244.0625 62.760414 243.8125 63.52604Q243.48438 64.46354 242.89062 65.041664Q242.4375 65.49479 241.67188 65.729164Q241.09375 65.916664 240.125 65.916664L236.875 65.916664L236.875 57.322914ZM238.60938 58.77604L238.60938 64.46354L239.89062 64.46354Q240.625 64.46354 240.95312 64.385414Q241.375 64.27604 241.64062 64.02604Q241.92188 63.77604 242.09375 63.197914Q242.28125 62.61979 242.28125 61.61979Q242.28125 60.635414 242.09375 60.104164Q241.92188 59.55729 241.60938 59.260414Q241.29688 58.96354 240.8125 58.854164Q240.4375 58.77604 239.375 58.77604L238.60938 58.77604ZM248.875 62.760414L248.875 61.30729L252.60938 61.30729L252.60938 64.729164Q252.0625 65.260414 251.03125 65.666664Q250.0 66.05729 248.9375 66.05729Q247.59375 66.05729 246.57812 65.49479Q245.57812 64.93229 245.07812 63.885414Q244.57812 62.822914 244.57812 61.58854Q244.57812 60.24479 245.14062 59.21354Q245.70312 58.166664 246.78125 57.604164Q247.60938 57.18229 248.84375 57.18229Q250.4375 57.18229 251.32812 57.854164Q252.23438 58.52604 252.5 59.697914L250.78125 60.02604Q250.59375 59.40104 250.09375 59.041664Q249.59375 58.666664 248.84375 58.666664Q247.70312 58.666664 247.03125 59.385414Q246.35938 60.104164 246.35938 61.52604Q246.35938 63.05729 247.03125 63.822914Q247.71875 64.572914 248.82812 64.572914Q249.375 64.572914 249.92188 64.36979Q250.46875 64.15104 250.85938 63.854164L250.85938 62.760414L248.875 62.760414ZM252.0 65.916664L254.9375 61.43229L252.28125 57.322914L254.29688 57.322914L256.03125 60.08854L257.71875 57.322914L259.71875 57.322914L257.04688 61.49479L259.98438 65.916664L257.89062 65.916664L255.98438 62.947914L254.07812 65.916664L252.0 65.916664ZM271.625 65.916664L269.73438 65.916664L268.98438 63.96354L265.54688 63.96354L264.84375 65.916664L263.0 65.916664L266.34375 57.322914L268.1875 57.322914L271.625 65.916664ZM268.42188 62.510414L267.25 59.322914L266.07812 62.510414L268.42188 62.510414ZM275.71875 65.916664L274.07812 65.916664L274.07812 59.71354Q273.17188 60.55729 271.95312 60.96354L271.95312 59.46354Q272.59375 59.260414 273.34375 58.666664Q274.10938 58.072914 274.39062 57.291664L275.71875 57.291664L275.71875 65.916664ZM281.29688 57.291664Q282.54688 57.291664 283.25 58.18229Q284.07812 59.229164 284.07812 61.68229Q284.07812 64.11979 283.23438 65.18229Q282.54688 66.05729 281.29688 66.05729Q280.04688 66.05729 279.26562 65.104164Q278.5 64.135414 278.5 61.666664Q278.5 59.229164 279.34375 58.166664Q280.04688 57.291664 281.29688 57.291664ZM281.29688 58.65104Q281.0 58.65104 280.76562 58.854164Q280.53125 59.041664 280.39062 59.52604Q280.23438 60.166664 280.23438 61.68229Q280.23438 63.197914 280.375 63.760414Q280.53125 64.322914 280.76562 64.510414Q281.0 64.697914 281.29688 64.697914Q281.59375 64.697914 281.82812 64.510414Q282.0625 64.322914 282.1875 63.822914Q282.35938 63.197914 282.35938 61.68229Q282.35938 60.166664 282.20312 59.604164Q282.0625 59.041664 281.82812 58.854164Q281.59375 58.65104 281.29688 58.65104ZM288.29688 57.291664Q289.54688 57.291664 290.25 58.18229Q291.07812 59.229164 291.07812 61.68229Q291.07812 64.11979 290.23438 65.18229Q289.54688 66.05729 288.29688 66.05729Q287.04688 66.05729 286.26562 65.104164Q285.5 64.135414 285.5 61.666664Q285.5 59.229164 286.34375 58.166664Q287.04688 57.291664 288.29688 57.291664ZM288.29688 58.65104Q288.0 58.65104 287.76562 58.854164Q287.53125 59.041664 287.39062 59.52604Q287.23438 60.166664 287.23438 61.68229Q287.23438 63.197914 287.375 63.760414Q287.53125 64.322914 287.76562 64.510414Q288.0 64.697914 288.29688 64.697914Q288.59375 64.697914 288.82812 64.510414Q289.0625 64.322914 289.1875 63.822914Q289.35938 63.197914 289.35938 61.68229Q289.35938 60.166664 289.20312 59.604164Q289.0625 59.041664 288.82812 58.854164Q288.59375 58.65104 288.29688 58.65104Z" fill-rule="nonzero"/><path fill="#38761d" d="M308.0 56.916668C308.0 56.364384 308.44772 55.916668 309.0 55.916668L319.0 55.916668C319.55228 55.916668 320.0 56.364384 320.0 56.916668L320.0 66.916664C320.0 67.46895 319.55228 67.916664 319.0 67.916664L309.0 67.916664C308.44772 67.916664 308.0 67.46895 308.0 66.916664Z" fill-rule="nonzero"/><path fill="#1a1a1a" d="M328.875 57.322914L332.03125 57.322914Q333.10938 57.322914 333.67188 57.49479Q334.42188 57.71354 334.95312 58.291664Q335.5 58.854164 335.78125 59.68229Q336.0625 60.49479 336.0625 61.697914Q336.0625 62.760414 335.8125 63.52604Q335.48438 64.46354 334.89062 65.041664Q334.4375 65.49479 333.67188 65.729164Q333.09375 65.916664 332.125 65.916664L328.875 65.916664L328.875 57.322914ZM330.60938 58.77604L330.60938 64.46354L331.89062 64.46354Q332.625 64.46354 332.95312 64.385414Q333.375 64.27604 333.64062 64.02604Q333.92188 63.77604 334.09375 63.197914Q334.28125 62.61979 334.28125 61.61979Q334.28125 60.635414 334.09375 60.104164Q333.92188 59.55729 333.60938 59.260414Q333.29688 58.96354 332.8125 58.854164Q332.4375 58.77604 331.375 58.77604L330.60938 58.77604ZM340.875 62.760414L340.875 61.30729L344.60938 61.30729L344.60938 64.729164Q344.0625 65.260414 343.03125 65.666664Q342.0 66.05729 340.9375 66.05729Q339.59375 66.05729 338.57812 65.49479Q337.57812 64.93229 337.07812 63.885414Q336.57812 62.822914 336.57812 61.58854Q336.57812 60.24479 337.14062 59.21354Q337.70312 58.166664 338.78125 57.604164Q339.60938 57.18229 340.84375 57.18229Q342.4375 57.18229 343.32812 57.854164Q344.23438 58.52604 344.5 59.697914L342.78125 60.02604Q342.59375 59.40104 342.09375 59.041664Q341.59375 58.666664 340.84375 58.666664Q339.70312 58.666664 339.03125 59.385414Q338.35938 60.104164 338.35938 61.52604Q338.35938 63.05729 339.03125 63.822914Q339.71875 64.572914 340.82812 64.572914Q341.375 64.572914 341.92188 64.36979Q342.46875 64.15104 342.85938 63.854164L342.85938 62.760414L340.875 62.760414ZM344.0 65.916664L346.9375 61.43229L344.28125 57.322914L346.29688 57.322914L348.03125 60.08854L349.71875 57.322914L351.71875 57.322914L349.04688 61.49479L351.98438 65.916664L349.89062 65.916664L347.98438 62.947914L346.07812 65.916664L344.0 65.916664ZM355.875 65.916664L355.875 57.322914L357.60938 57.322914L357.60938 60.71354L361.01562 60.71354L361.01562 57.322914L362.75 57.322914L362.75 65.916664L361.01562 65.916664L361.01562 62.166664L357.60938 62.166664L357.60938 65.916664L355.875 65.916664ZM367.71875 65.916664L366.07812 65.916664L366.07812 59.71354Q365.17188 60.55729 363.95312 60.96354L363.95312 59.46354Q364.59375 59.260414 365.34375 58.666664Q366.10938 58.072914 366.39062 57.291664L367.71875 57.291664L367.71875 65.916664ZM373.29688 57.291664Q374.54688 57.291664 375.25 58.18229Q376.07812 59.229164 376.07812 61.68229Q376.07812 64.11979 375.23438 65.18229Q374.54688 66.05729 373.29688 66.05729Q372.04688 66.05729 371.26562 65.104164Q370.5 64.135414 370.5 61.666664Q370.5 59.229164 371.34375 58.166664Q372.04688 57.291664 373.29688 57.291664ZM373.29688 58.65104Q373.0 58.65104 372.76562 58.854164Q372.53125 59.041664 372.39062 59.52604Q372.23438 60.166664 372.23438 61.68229Q372.23438 63.197914 372.375 63.760414Q372.53125 64.322914 372.76562 64.510414Q373.0 64.697914 373.29688 64.697914Q373.59375 64.697914 373.82812 64.510414Q374.0625 64.322914 374.1875 63.822914Q374.35938 63.197914 374.35938 61.68229Q374.35938 60.166664 374.20312 59.604164Q374.0625 59.041664 373.82812 58.854164Q373.59375 58.65104 373.29688 58.65104ZM380.29688 57.291664Q381.54688 57.291664 382.25 58.18229Q383.07812 59.229164 383.07812 61.68229Q383.07812 64.11979 382.23438 65.18229Q381.54688 66.05729 380.29688 66.05729Q379.04688 66.05729 378.26562 65.104164Q377.5 64.135414 377.5 61.666664Q377.5 59.229164 378.34375 58.166664Q379.04688 57.291664 380.29688 57.291664ZM380.29688 58.65104Q380.0 58.65104 379.76562 58.854164Q379.53125 59.041664 379.39062 59.52604Q379.23438 60.166664 379.23438 61.68229Q379.23438 63.197914 379.375 63.760414Q379.53125 64.322914 379.76562 64.510414Q380.0 64.697914 380.29688 64.697914Q380.59375 64.697914 380.82812 64.510414Q381.0625 64.322914 381.1875 63.822914Q381.35938 63.197914 381.35938 61.68229Q381.35938 60.166664 381.20312 59.604164Q381.0625 59.041664 380.82812 58.854164Q380.59375 58.65104 380.29688 58.65104Z" fill-rule="nonzero"/><path fill="#757575" d="M87.40625 32.95625L89.1875 32.8Q89.3125 33.8625 89.765625 34.55Q90.234375 35.2375 91.203125 35.675Q92.1875 36.096874 93.421875 36.096874Q94.5 36.096874 95.328125 35.784374Q96.15625 35.45625 96.5625 34.89375Q96.96875 34.33125 96.96875 33.659374Q96.96875 32.9875 96.578125 32.4875Q96.1875 31.9875 95.296875 31.64375Q94.71875 31.409374 92.734375 30.940624Q90.765625 30.471874 89.984375 30.05Q88.953125 29.51875 88.453125 28.721874Q87.953125 27.925 87.953125 26.940624Q87.953125 25.846874 88.5625 24.909374Q89.171875 23.971874 90.359375 23.4875Q91.546875 22.9875 92.984375 22.9875Q94.578125 22.9875 95.796875 23.503124Q97.015625 24.01875 97.65625 25.01875Q98.3125 26.003124 98.359375 27.26875L96.546875 27.409374Q96.40625 26.05 95.5625 25.3625Q94.71875 24.659374 93.0625 24.659374Q91.34375 24.659374 90.546875 25.3Q89.765625 25.925 89.765625 26.8Q89.765625 27.58125 90.328125 28.08125Q90.875 28.58125 93.1875 29.096874Q95.5 29.6125 96.359375 30.003124Q97.609375 30.58125 98.203125 31.471874Q98.796875 32.346874 98.796875 33.503124Q98.796875 34.64375 98.140625 35.659374Q97.484375 36.675 96.25 37.2375Q95.03125 37.8 93.5 37.8Q91.5625 37.8 90.25 37.2375Q88.9375 36.659374 88.1875 35.51875Q87.4375 34.378124 87.40625 32.95625ZM104.65625 35.971874L104.90625 37.534374Q104.171875 37.690624 103.578125 37.690624Q102.625 37.690624 102.09375 37.39375Q101.578125 37.08125 101.359375 36.596874Q101.140625 36.096874 101.140625 34.51875L101.140625 28.55L99.859375 28.55L99.859375 27.175L101.140625 27.175L101.140625 24.6125L102.890625 23.55L102.890625 27.175L104.65625 27.175L104.65625 28.55L102.890625 28.55L102.890625 34.6125Q102.890625 35.3625 102.984375 35.58125Q103.078125 35.784374 103.28125 35.925Q103.5 36.05 103.890625 36.05Q104.171875 36.05 104.65625 35.971874ZM113.59375 36.26875Q112.609375 37.096874 111.703125 37.440624Q110.796875 37.784374 109.765625 37.784374Q108.0625 37.784374 107.140625 36.95625Q106.21875 36.1125 106.21875 34.815624Q106.21875 34.05 106.5625 33.425Q106.921875 32.8 107.484375 32.425Q108.046875 32.034374 108.75 31.83125Q109.265625 31.70625 110.3125 31.565624Q112.4375 31.315624 113.4375 30.971874Q113.453125 30.6125 113.453125 30.503124Q113.453125 29.440624 112.953125 28.9875Q112.28125 28.39375 110.953125 28.39375Q109.703125 28.39375 109.109375 28.83125Q108.53125 29.26875 108.25 30.378124L106.53125 30.14375Q106.765625 29.034374 107.296875 28.3625Q107.828125 27.675 108.84375 27.315624Q109.859375 26.940624 111.203125 26.940624Q112.53125 26.940624 113.359375 27.253124Q114.1875 27.565624 114.578125 28.05Q114.96875 28.51875 115.125 29.2375Q115.21875 29.690624 115.21875 30.8625L115.21875 33.20625Q115.21875 35.659374 115.328125 36.315624Q115.4375 36.95625 115.78125 37.55L113.9375 37.55Q113.671875 37.003124 113.59375 36.26875ZM113.4375 32.346874Q112.484375 32.7375 110.5625 33.003124Q109.484375 33.159374 109.03125 33.3625Q108.59375 33.55 108.34375 33.925Q108.09375 34.3 108.09375 34.76875Q108.09375 35.471874 108.625 35.940624Q109.15625 36.409374 110.1875 36.409374Q111.203125 36.409374 111.984375 35.971874Q112.78125 35.51875 113.15625 34.753124Q113.4375 34.14375 113.4375 32.9875L113.4375 32.346874ZM119.4375 37.55L117.8125 37.55L117.8125 23.2375L119.5625 23.2375L119.5625 28.346874Q120.6875 26.940624 122.40625 26.940624Q123.359375 26.940624 124.21875 27.33125Q125.078125 27.721874 125.625 28.425Q126.171875 29.1125 126.484375 30.096874Q126.796875 31.08125 126.796875 32.20625Q126.796875 34.878124 125.484375 36.33125Q124.171875 37.784374 122.328125 37.784374Q120.484375 37.784374 119.4375 36.253124L119.4375 37.55ZM119.421875 32.284374Q119.421875 34.14375 119.921875 34.9875Q120.765625 36.33125 122.171875 36.33125Q123.328125 36.33125 124.15625 35.33125Q125.0 34.33125 125.0 32.346874Q125.0 30.315624 124.1875 29.3625Q123.390625 28.39375 122.25 28.39375Q121.09375 28.39375 120.25 29.39375Q119.421875 30.39375 119.421875 32.284374ZM128.78125 37.55L128.78125 23.2375L130.53125 23.2375L130.53125 37.55L128.78125 37.55ZM139.92188 34.20625L141.73438 34.440624Q141.3125 36.01875 140.14062 36.909374Q138.98438 37.784374 137.17188 37.784374Q134.90625 37.784374 133.5625 36.39375Q132.23438 34.9875 132.23438 32.45625Q132.23438 29.83125 133.57812 28.39375Q134.92188 26.940624 137.07812 26.940624Q139.15625 26.940624 140.46875 28.3625Q141.79688 29.76875 141.79688 32.346874Q141.79688 32.503124 141.78125 32.815624L134.04688 32.815624Q134.14062 34.51875 135.01562 35.425Q135.89062 36.33125 137.1875 36.33125Q138.15625 36.33125 138.82812 35.83125Q139.51562 35.315624 139.92188 34.20625ZM134.14062 31.3625L139.9375 31.3625Q139.82812 30.065624 139.28125 29.409374Q138.4375 28.39375 137.09375 28.39375Q135.89062 28.39375 135.0625 29.20625Q134.23438 30.003124 134.14062 31.3625ZM150.04688 37.55L150.04688 23.2375L154.96875 23.2375Q156.64062 23.2375 157.53125 23.440624Q158.75 23.721874 159.625 24.45625Q160.75 25.425 161.3125 26.909374Q161.875 28.39375 161.875 30.315624Q161.875 31.940624 161.5 33.20625Q161.125 34.45625 160.51562 35.284374Q159.92188 36.1125 159.21875 36.596874Q158.51562 37.065624 157.51562 37.315624Q156.51562 37.55 155.20312 37.55L150.04688 37.55ZM151.9375 35.8625L155.0 35.8625Q156.40625 35.8625 157.20312 35.596874Q158.01562 35.33125 158.5 34.846874Q159.17188 34.175 159.54688 33.05Q159.92188 31.909374 159.92188 30.284374Q159.92188 28.034374 159.1875 26.83125Q158.45312 25.628124 157.39062 25.221874Q156.64062 24.925 154.95312 24.925L151.9375 24.925L151.9375 35.8625ZM163.82812 25.253124L163.82812 23.2375L165.59375 23.2375L165.59375 25.253124L163.82812 25.253124ZM163.82812 37.55L163.82812 27.175L165.59375 27.175L165.59375 37.55L163.82812 37.55ZM168.23438 37.55L168.23438 28.55L166.6875 28.55L166.6875 27.175L168.23438 27.175L168.23438 26.08125Q168.23438 25.034374 168.42188 24.51875Q168.67188 23.83125 169.3125 23.409374Q169.95312 22.9875 171.10938 22.9875Q171.85938 22.9875 172.75 23.159374L172.48438 24.690624Q171.9375 24.596874 171.45312 24.596874Q170.65625 24.596874 170.3125 24.940624Q169.98438 25.284374 169.98438 26.221874L169.98438 27.175L172.01562 27.175L172.01562 28.55L169.98438 28.55L169.98438 37.55L168.23438 37.55ZM174.23438 37.55L174.23438 28.55L172.6875 28.55L172.6875 27.175L174.23438 27.175L174.23438 26.08125Q174.23438 25.034374 174.42188 24.51875Q174.67188 23.83125 175.3125 23.409374Q175.95312 22.9875 177.10938 22.9875Q177.85938 22.9875 178.75 23.159374L178.48438 24.690624Q177.9375 24.596874 177.45312 24.596874Q176.65625 24.596874 176.3125 24.940624Q175.98438 25.284374 175.98438 26.221874L175.98438 27.175L178.01562 27.175L178.01562 28.55L175.98438 28.55L175.98438 37.55L174.23438 37.55ZM186.60938 37.55L186.60938 36.01875Q185.40625 37.784374 183.32812 37.784374Q182.40625 37.784374 181.60938 37.440624Q180.8125 37.08125 180.42188 36.55Q180.04688 36.01875 179.89062 35.2375Q179.78125 34.721874 179.78125 33.596874L179.78125 27.175L181.53125 27.175L181.53125 32.925Q181.53125 34.3 181.64062 34.784374Q181.8125 35.471874 182.34375 35.878124Q182.89062 36.26875 183.67188 36.26875Q184.46875 36.26875 185.15625 35.8625Q185.85938 35.45625 186.14062 34.76875Q186.4375 34.065624 186.4375 32.7375L186.4375 27.175L188.1875 27.175L188.1875 37.55L186.60938 37.55ZM189.10938 34.45625L190.85938 34.175Q191.0 35.221874 191.67188 35.784374Q192.34375 36.33125 193.54688 36.33125Q194.75 36.33125 195.32812 35.846874Q195.92188 35.346874 195.92188 34.690624Q195.92188 34.096874 195.40625 33.753124Q195.04688 33.51875 193.60938 33.159374Q191.67188 32.659374 190.92188 32.315624Q190.1875 31.95625 189.79688 31.33125Q189.40625 30.690624 189.40625 29.925Q189.40625 29.2375 189.71875 28.64375Q190.04688 28.05 190.59375 27.659374Q191.0 27.3625 191.70312 27.159374Q192.42188 26.940624 193.23438 26.940624Q194.45312 26.940624 195.375 27.3Q196.29688 27.64375 196.73438 28.253124Q197.17188 28.846874 197.34375 29.846874L195.625 30.08125Q195.5 29.284374 194.9375 28.846874Q194.375 28.39375 193.35938 28.39375Q192.14062 28.39375 191.625 28.8Q191.10938 29.190624 191.10938 29.721874Q191.10938 30.065624 191.32812 30.346874Q191.53125 30.628124 192.0 30.815624Q192.26562 30.909374 193.54688 31.253124Q195.42188 31.753124 196.15625 32.08125Q196.89062 32.39375 197.3125 33.003124Q197.73438 33.596874 197.73438 34.503124Q197.73438 35.378124 197.21875 36.159374Q196.70312 36.940624 195.73438 37.3625Q194.76562 37.784374 193.54688 37.784374Q191.53125 37.784374 190.46875 36.940624Q189.40625 36.096874 189.10938 34.45625ZM199.82812 25.253124L199.82812 23.2375L201.59375 23.2375L201.59375 25.253124L199.82812 25.253124ZM199.82812 37.55L199.82812 27.175L201.59375 27.175L201.59375 37.55L199.82812 37.55ZM203.17188 32.3625Q203.17188 29.4875 204.76562 28.096874Q206.10938 26.940624 208.03125 26.940624Q210.17188 26.940624 211.51562 28.346874Q212.875 29.753124 212.875 32.221874Q212.875 34.221874 212.28125 35.378124Q211.6875 36.51875 210.53125 37.159374Q209.39062 37.784374 208.03125 37.784374Q205.84375 37.784374 204.5 36.39375Q203.17188 34.9875 203.17188 32.3625ZM204.96875 32.3625Q204.96875 34.3625 205.82812 35.346874Q206.70312 36.33125 208.03125 36.33125Q209.34375 36.33125 210.20312 35.346874Q211.07812 34.346874 211.07812 32.3Q211.07812 30.378124 210.20312 29.39375Q209.32812 28.39375 208.03125 28.39375Q206.70312 28.39375 205.82812 29.39375Q204.96875 30.378124 204.96875 32.3625ZM214.8125 37.55L214.8125 27.175L216.40625 27.175L216.40625 28.659374Q217.54688 26.940624 219.70312 26.940624Q220.64062 26.940624 221.42188 27.284374Q222.21875 27.6125 222.60938 28.159374Q223.0 28.70625 223.15625 29.45625Q223.25 29.95625 223.25 31.175L223.25 37.55L221.48438 37.55L221.48438 31.2375Q221.48438 30.159374 221.28125 29.628124Q221.07812 29.096874 220.54688 28.784374Q220.03125 28.471874 219.32812 28.471874Q218.20312 28.471874 217.39062 29.190624Q216.57812 29.89375 216.57812 31.878124L216.57812 37.55L214.8125 37.55ZM234.6875 37.55L234.6875 24.925L229.96875 24.925L229.96875 23.2375L241.3125 23.2375L241.3125 24.925L236.57812 24.925L236.57812 37.55L234.6875 37.55ZM242.79688 37.55L242.79688 27.175L244.375 27.175L244.375 28.753124Q244.98438 27.64375 245.5 27.3Q246.01562 26.940624 246.625 26.940624Q247.51562 26.940624 248.4375 27.503124L247.82812 29.14375Q247.1875 28.753124 246.54688 28.753124Q245.96875 28.753124 245.5 29.1125Q245.04688 29.45625 244.84375 30.065624Q244.5625 31.003124 244.5625 32.1125L244.5625 37.55L242.79688 37.55ZM256.59375 36.26875Q255.60938 37.096874 254.70312 37.440624Q253.79688 37.784374 252.76562 37.784374Q251.0625 37.784374 250.14062 36.95625Q249.21875 36.1125 249.21875 34.815624Q249.21875 34.05 249.5625 33.425Q249.92188 32.8 250.48438 32.425Q251.04688 32.034374 251.75 31.83125Q252.26562 31.70625 253.3125 31.565624Q255.4375 31.315624 256.4375 30.971874Q256.45312 30.6125 256.45312 30.503124Q256.45312 29.440624 255.95312 28.9875Q255.28125 28.39375 253.95312 28.39375Q252.70312 28.39375 252.10938 28.83125Q251.53125 29.26875 251.25 30.378124L249.53125 30.14375Q249.76562 29.034374 250.29688 28.3625Q250.82812 27.675 251.84375 27.315624Q252.85938 26.940624 254.20312 26.940624Q255.53125 26.940624 256.35938 27.253124Q257.1875 27.565624 257.57812 28.05Q257.96875 28.51875 258.125 29.2375Q258.21875 29.690624 258.21875 30.8625L258.21875 33.20625Q258.21875 35.659374 258.32812 36.315624Q258.4375 36.95625 258.78125 37.55L256.9375 37.55Q256.67188 37.003124 256.59375 36.26875ZM256.4375 32.346874Q255.48438 32.7375 253.5625 33.003124Q252.48438 33.159374 252.03125 33.3625Q251.59375 33.55 251.34375 33.925Q251.09375 34.3 251.09375 34.76875Q251.09375 35.471874 251.625 35.940624Q252.15625 36.409374 253.1875 36.409374Q254.20312 36.409374 254.98438 35.971874Q255.78125 35.51875 256.15625 34.753124Q256.4375 34.14375 256.4375 32.9875L256.4375 32.346874ZM260.82812 25.253124L260.82812 23.2375L262.59375 23.2375L262.59375 25.253124L260.82812 25.253124ZM260.82812 37.55L260.82812 27.175L262.59375 27.175L262.59375 37.55L260.82812 37.55ZM264.8125 37.55L264.8125 27.175L266.40625 27.175L266.40625 28.659374Q267.54688 26.940624 269.70312 26.940624Q270.64062 26.940624 271.42188 27.284374Q272.21875 27.6125 272.60938 28.159374Q273.0 28.70625 273.15625 29.45625Q273.25 29.95625 273.25 31.175L273.25 37.55L271.48438 37.55L271.48438 31.2375Q271.48438 30.159374 271.28125 29.628124Q271.07812 29.096874 270.54688 28.784374Q270.03125 28.471874 269.32812 28.471874Q268.20312 28.471874 267.39062 29.190624Q266.57812 29.89375 266.57812 31.878124L266.57812 37.55L264.8125 37.55ZM274.82812 25.253124L274.82812 23.2375L276.59375 23.2375L276.59375 25.253124L274.82812 25.253124ZM274.82812 37.55L274.82812 27.175L276.59375 27.175L276.59375 37.55L274.82812 37.55ZM278.8125 37.55L278.8125 27.175L280.40625 27.175L280.40625 28.659374Q281.54688 26.940624 283.70312 26.940624Q284.64062 26.940624 285.42188 27.284374Q286.21875 27.6125 286.60938 28.159374Q287.0 28.70625 287.15625 29.45625Q287.25 29.95625 287.25 31.175L287.25 37.55L285.48438 37.55L285.48438 31.2375Q285.48438 30.159374 285.28125 29.628124Q285.07812 29.096874 284.54688 28.784374Q284.03125 28.471874 283.32812 28.471874Q282.20312 28.471874 281.39062 29.190624Q280.57812 29.89375 280.57812 31.878124L280.57812 37.55L278.8125 37.55ZM288.5 38.409374L290.20312 38.659374Q290.3125 39.45625 290.79688 39.815624Q291.45312 40.3 292.59375 40.3Q293.8125 40.3 294.46875 39.815624Q295.14062 39.33125 295.375 38.45625Q295.51562 37.909374 295.5 36.190624Q294.34375 37.55 292.625 37.55Q290.48438 37.55 289.3125 36.003124Q288.14062 34.45625 288.14062 32.3Q288.14062 30.815624 288.67188 29.565624Q289.21875 28.315624 290.23438 27.628124Q291.26562 26.940624 292.64062 26.940624Q294.46875 26.940624 295.67188 28.425L295.67188 27.175L297.28125 27.175L297.28125 36.14375Q297.28125 38.565624 296.78125 39.565624Q296.29688 40.58125 295.21875 41.159374Q294.15625 41.753124 292.59375 41.753124Q290.75 41.753124 289.59375 40.925Q288.45312 40.096874 288.5 38.409374ZM289.95312 32.175Q289.95312 34.221874 290.76562 35.159374Q291.57812 36.096874 292.79688 36.096874Q294.0 36.096874 294.8125 35.159374Q295.64062 34.221874 295.64062 32.2375Q295.64062 30.33125 294.79688 29.3625Q293.95312 28.39375 292.76562 28.39375Q291.59375 28.39375 290.76562 29.346874Q289.95312 30.3 289.95312 32.175ZM309.6875 37.55L309.6875 24.925L304.96875 24.925L304.96875 23.2375L316.3125 23.2375L316.3125 24.925L311.57812 24.925L311.57812 37.55L309.6875 37.55ZM317.8125 37.55L317.8125 23.2375L319.57812 23.2375L319.57812 28.3625Q320.8125 26.940624 322.6875 26.940624Q323.82812 26.940624 324.67188 27.39375Q325.53125 27.846874 325.89062 28.659374Q326.26562 29.45625 326.26562 30.971874L326.26562 37.55L324.51562 37.55L324.51562 30.971874Q324.51562 29.659374 323.9375 29.065624Q323.35938 28.45625 322.32812 28.45625Q321.54688 28.45625 320.84375 28.8625Q320.15625 29.26875 319.85938 29.971874Q319.57812 30.659374 319.57812 31.878124L319.57812 37.55L317.8125 37.55ZM327.79688 37.55L327.79688 27.175L329.375 27.175L329.375 28.753124Q329.98438 27.64375 330.5 27.3Q331.01562 26.940624 331.625 26.940624Q332.51562 26.940624 333.4375 27.503124L332.82812 29.14375Q332.1875 28.753124 331.54688 28.753124Q330.96875 28.753124 330.5 29.1125Q330.04688 29.45625 329.84375 30.065624Q329.5625 31.003124 329.5625 32.1125L329.5625 37.55L327.79688 37.55ZM334.17188 32.3625Q334.17188 29.4875 335.76562 28.096874Q337.10938 26.940624 339.03125 26.940624Q341.17188 26.940624 342.51562 28.346874Q343.875 29.753124 343.875 32.221874Q343.875 34.221874 343.28125 35.378124Q342.6875 36.51875 341.53125 37.159374Q340.39062 37.784374 339.03125 37.784374Q336.84375 37.784374 335.5 36.39375Q334.17188 34.9875 334.17188 32.3625ZM335.96875 32.3625Q335.96875 34.3625 336.82812 35.346874Q337.70312 36.33125 339.03125 36.33125Q340.34375 36.33125 341.20312 35.346874Q342.07812 34.346874 342.07812 32.3Q342.07812 30.378124 341.20312 29.39375Q340.32812 28.39375 339.03125 28.39375Q337.70312 28.39375 336.82812 29.39375Q335.96875 30.378124 335.96875 32.3625ZM352.60938 37.55L352.60938 36.01875Q351.40625 37.784374 349.32812 37.784374Q348.40625 37.784374 347.60938 37.440624Q346.8125 37.08125 346.42188 36.55Q346.04688 36.01875 345.89062 35.2375Q345.78125 34.721874 345.78125 33.596874L345.78125 27.175L347.53125 27.175L347.53125 32.925Q347.53125 34.3 347.64062 34.784374Q347.8125 35.471874 348.34375 35.878124Q348.89062 36.26875 349.67188 36.26875Q350.46875 36.26875 351.15625 35.8625Q351.85938 35.45625 352.14062 34.76875Q352.4375 34.065624 352.4375 32.7375L352.4375 27.175L354.1875 27.175L354.1875 37.55L352.60938 37.55ZM355.5 38.409374L357.20312 38.659374Q357.3125 39.45625 357.79688 39.815624Q358.45312 40.3 359.59375 40.3Q360.8125 40.3 361.46875 39.815624Q362.14062 39.33125 362.375 38.45625Q362.51562 37.909374 362.5 36.190624Q361.34375 37.55 359.625 37.55Q357.48438 37.55 356.3125 36.003124Q355.14062 34.45625 355.14062 32.3Q355.14062 30.815624 355.67188 29.565624Q356.21875 28.315624 357.23438 27.628124Q358.26562 26.940624 359.64062 26.940624Q361.46875 26.940624 362.67188 28.425L362.67188 27.175L364.28125 27.175L364.28125 36.14375Q364.28125 38.565624 363.78125 39.565624Q363.29688 40.58125 362.21875 41.159374Q361.15625 41.753124 359.59375 41.753124Q357.75 41.753124 356.59375 40.925Q355.45312 40.096874 355.5 38.409374ZM356.95312 32.175Q356.95312 34.221874 357.76562 35.159374Q358.57812 36.096874 359.79688 36.096874Q361.0 36.096874 361.8125 35.159374Q362.64062 34.221874 362.64062 32.2375Q362.64062 30.33125 361.79688 29.3625Q360.95312 28.39375 359.76562 28.39375Q358.59375 28.39375 357.76562 29.346874Q356.95312 30.3 356.95312 32.175ZM366.8125 37.55L366.8125 23.2375L368.57812 23.2375L368.57812 28.3625Q369.8125 26.940624 371.6875 26.940624Q372.82812 26.940624 373.67188 27.39375Q374.53125 27.846874 374.89062 28.659374Q375.26562 29.45625 375.26562 30.971874L375.26562 37.55L373.51562 37.55L373.51562 30.971874Q373.51562 29.659374 372.9375 29.065624Q372.35938 28.45625 371.32812 28.45625Q370.54688 28.45625 369.84375 28.8625Q369.15625 29.26875 368.85938 29.971874Q368.57812 30.659374 368.57812 31.878124L368.57812 37.55L366.8125 37.55ZM376.8125 41.51875L376.8125 27.175L378.42188 27.175L378.42188 28.51875Q378.98438 27.7375 379.6875 27.346874Q380.40625 26.940624 381.42188 26.940624Q382.75 26.940624 383.76562 27.628124Q384.78125 28.315624 385.29688 29.565624Q385.82812 30.8 385.82812 32.284374Q385.82812 33.878124 385.25 35.159374Q384.6875 36.425 383.59375 37.1125Q382.5 37.784374 381.29688 37.784374Q380.42188 37.784374 379.71875 37.409374Q379.03125 37.034374 378.57812 36.471874L378.57812 41.51875L376.8125 41.51875ZM378.40625 32.425Q378.40625 34.425 379.21875 35.378124Q380.03125 36.33125 381.1875 36.33125Q382.35938 36.33125 383.1875 35.346874Q384.03125 34.3625 384.03125 32.26875Q384.03125 30.3 383.20312 29.315624Q382.39062 28.315624 381.26562 28.315624Q380.14062 28.315624 379.26562 29.378124Q378.40625 30.425 378.40625 32.425ZM394.60938 37.55L394.60938 36.01875Q393.40625 37.784374 391.32812 37.784374Q390.40625 37.784374 389.60938 37.440624Q388.8125 37.08125 388.42188 36.55Q388.04688 36.01875 387.89062 35.2375Q387.78125 34.721874 387.78125 33.596874L387.78125 27.175L389.53125 27.175L389.53125 32.925Q389.53125 34.3 389.64062 34.784374Q389.8125 35.471874 390.34375 35.878124Q390.89062 36.26875 391.67188 36.26875Q392.46875 36.26875 393.15625 35.8625Q393.85938 35.45625 394.14062 34.76875Q394.4375 34.065624 394.4375 32.7375L394.4375 27.175L396.1875 27.175L396.1875 37.55L394.60938 37.55ZM401.65625 35.971874L401.90625 37.534374Q401.17188 37.690624 400.57812 37.690624Q399.625 37.690624 399.09375 37.39375Q398.57812 37.08125 398.35938 36.596874Q398.14062 36.096874 398.14062 34.51875L398.14062 28.55L396.85938 28.55L396.85938 27.175L398.14062 27.175L398.14062 24.6125L399.89062 23.55L399.89062 27.175L401.65625 27.175L401.65625 28.55L399.89062 28.55L399.89062 34.6125Q399.89062 35.3625 399.98438 35.58125Q400.07812 35.784374 400.28125 35.925Q400.5 36.05 400.89062 36.05Q401.17188 36.05 401.65625 35.971874ZM420.26562 32.534374L422.15625 33.003124Q421.5625 35.346874 420.01562 36.58125Q418.46875 37.8 416.21875 37.8Q413.90625 37.8 412.45312 36.8625Q411.01562 35.909374 410.25 34.128124Q409.5 32.33125 409.5 30.284374Q409.5 28.05 410.34375 26.39375Q411.20312 24.721874 412.78125 23.8625Q414.35938 22.9875 416.25 22.9875Q418.40625 22.9875 419.85938 24.08125Q421.32812 25.175 421.90625 27.159374L420.04688 27.596874Q419.54688 26.034374 418.59375 25.33125Q417.65625 24.6125 416.21875 24.6125Q414.5625 24.6125 413.45312 25.409374Q412.34375 26.190624 411.89062 27.534374Q411.45312 28.8625 411.45312 30.26875Q411.45312 32.096874 411.98438 33.471874Q412.51562 34.83125 413.64062 35.503124Q414.76562 36.175 416.0625 36.175Q417.65625 36.175 418.76562 35.253124Q419.875 34.33125 420.26562 32.534374ZM423.17188 32.3625Q423.17188 29.4875 424.76562 28.096874Q426.10938 26.940624 428.03125 26.940624Q430.17188 26.940624 431.51562 28.346874Q432.875 29.753124 432.875 32.221874Q432.875 34.221874 432.28125 35.378124Q431.6875 36.51875 430.53125 37.159374Q429.39062 37.784374 428.03125 37.784374Q425.84375 37.784374 424.5 36.39375Q423.17188 34.9875 423.17188 32.3625ZM424.96875 32.3625Q424.96875 34.3625 425.82812 35.346874Q426.70312 36.33125 428.03125 36.33125Q429.34375 36.33125 430.20312 35.346874Q431.07812 34.346874 431.07812 32.3Q431.07812 30.378124 430.20312 29.39375Q429.32812 28.39375 428.03125 28.39375Q426.70312 28.39375 425.82812 29.39375Q424.96875 30.378124 424.96875 32.3625ZM434.8125 37.55L434.8125 27.175L436.39062 27.175L436.39062 28.628124Q436.875 27.878124 437.6875 27.409374Q438.5 26.940624 439.53125 26.940624Q440.6875 26.940624 441.42188 27.425Q442.15625 27.89375 442.46875 28.753124Q443.70312 26.940624 445.67188 26.940624Q447.21875 26.940624 448.04688 27.8Q448.875 28.659374 448.875 30.425L448.875 37.55L447.125 37.55L447.125 31.01875Q447.125 29.95625 446.95312 29.503124Q446.78125 29.034374 446.32812 28.753124Q445.89062 28.471874 445.28125 28.471874Q444.1875 28.471874 443.45312 29.20625Q442.73438 29.925 442.73438 31.51875L442.73438 37.55L440.98438 37.55L440.98438 30.815624Q440.98438 29.64375 440.54688 29.065624Q440.125 28.471874 439.14062 28.471874Q438.40625 28.471874 437.76562 28.8625Q437.14062 29.253124 436.85938 30.003124Q436.57812 30.753124 436.57812 32.175L436.57812 37.55L434.8125 37.55ZM450.8125 41.51875L450.8125 27.175L452.42188 27.175L452.42188 28.51875Q452.98438 27.7375 453.6875 27.346874Q454.40625 26.940624 455.42188 26.940624Q456.75 26.940624 457.76562 27.628124Q458.78125 28.315624 459.29688 29.565624Q459.82812 30.8 459.82812 32.284374Q459.82812 33.878124 459.25 35.159374Q458.6875 36.425 457.59375 37.1125Q456.5 37.784374 455.29688 37.784374Q454.42188 37.784374 453.71875 37.409374Q453.03125 37.034374 452.57812 36.471874L452.57812 41.51875L450.8125 41.51875ZM452.40625 32.425Q452.40625 34.425 453.21875 35.378124Q454.03125 36.33125 455.1875 36.33125Q456.35938 36.33125 457.1875 35.346874Q458.03125 34.3625 458.03125 32.26875Q458.03125 30.3 457.20312 29.315624Q456.39062 28.315624 455.26562 28.315624Q454.14062 28.315624 453.26562 29.378124Q452.40625 30.425 452.40625 32.425ZM468.59375 36.26875Q467.60938 37.096874 466.70312 37.440624Q465.79688 37.784374 464.76562 37.784374Q463.0625 37.784374 462.14062 36.95625Q461.21875 36.1125 461.21875 34.815624Q461.21875 34.05 461.5625 33.425Q461.92188 32.8 462.48438 32.425Q463.04688 32.034374 463.75 31.83125Q464.26562 31.70625 465.3125 31.565624Q467.4375 31.315624 468.4375 30.971874Q468.45312 30.6125 468.45312 30.503124Q468.45312 29.440624 467.95312 28.9875Q467.28125 28.39375 465.95312 28.39375Q464.70312 28.39375 464.10938 28.83125Q463.53125 29.26875 463.25 30.378124L461.53125 30.14375Q461.76562 29.034374 462.29688 28.3625Q462.82812 27.675 463.84375 27.315624Q464.85938 26.940624 466.20312 26.940624Q467.53125 26.940624 468.35938 27.253124Q469.1875 27.565624 469.57812 28.05Q469.96875 28.51875 470.125 29.2375Q470.21875 29.690624 470.21875 30.8625L470.21875 33.20625Q470.21875 35.659374 470.32812 36.315624Q470.4375 36.95625 470.78125 37.55L468.9375 37.55Q468.67188 37.003124 468.59375 36.26875ZM468.4375 32.346874Q467.48438 32.7375 465.5625 33.003124Q464.48438 33.159374 464.03125 33.3625Q463.59375 33.55 463.34375 33.925Q463.09375 34.3 463.09375 34.76875Q463.09375 35.471874 463.625 35.940624Q464.15625 36.409374 465.1875 36.409374Q466.20312 36.409374 466.98438 35.971874Q467.78125 35.51875 468.15625 34.753124Q468.4375 34.14375 468.4375 32.9875L468.4375 32.346874ZM472.79688 37.55L472.79688 27.175L474.375 27.175L474.375 28.753124Q474.98438 27.64375 475.5 27.3Q476.01562 26.940624 476.625 26.940624Q477.51562 26.940624 478.4375 27.503124L477.82812 29.14375Q477.1875 28.753124 476.54688 28.753124Q475.96875 28.753124 475.5 29.1125Q475.04688 29.45625 474.84375 30.065624Q474.5625 31.003124 474.5625 32.1125L474.5625 37.55L472.79688 37.55ZM479.82812 25.253124L479.82812 23.2375L481.59375 23.2375L481.59375 25.253124L479.82812 25.253124ZM479.82812 37.55L479.82812 27.175L481.59375 27.175L481.59375 37.55L479.82812 37.55ZM483.10938 34.45625L484.85938 34.175Q485.0 35.221874 485.67188 35.784374Q486.34375 36.33125 487.54688 36.33125Q488.75 36.33125 489.32812 35.846874Q489.92188 35.346874 489.92188 34.690624Q489.92188 34.096874 489.40625 33.753124Q489.04688 33.51875 487.60938 33.159374Q485.67188 32.659374 484.92188 32.315624Q484.1875 31.95625 483.79688 31.33125Q483.40625 30.690624 483.40625 29.925Q483.40625 29.2375 483.71875 28.64375Q484.04688 28.05 484.59375 27.659374Q485.0 27.3625 485.70312 27.159374Q486.42188 26.940624 487.23438 26.940624Q488.45312 26.940624 489.375 27.3Q490.29688 27.64375 490.73438 28.253124Q491.17188 28.846874 491.34375 29.846874L489.625 30.08125Q489.5 29.284374 488.9375 28.846874Q488.375 28.39375 487.35938 28.39375Q486.14062 28.39375 485.625 28.8Q485.10938 29.190624 485.10938 29.721874Q485.10938 30.065624 485.32812 30.346874Q485.53125 30.628124 486.0 30.815624Q486.26562 30.909374 487.54688 31.253124Q489.42188 31.753124 490.15625 32.08125Q490.89062 32.39375 491.3125 33.003124Q491.73438 33.596874 491.73438 34.503124Q491.73438 35.378124 491.21875 36.159374Q490.70312 36.940624 489.73438 37.3625Q488.76562 37.784374 487.54688 37.784374Q485.53125 37.784374 484.46875 36.940624Q483.40625 36.096874 483.10938 34.45625ZM493.17188 32.3625Q493.17188 29.4875 494.76562 28.096874Q496.10938 26.940624 498.03125 26.940624Q500.17188 26.940624 501.51562 28.346874Q502.875 29.753124 502.875 32.221874Q502.875 34.221874 502.28125 35.378124Q501.6875 36.51875 500.53125 37.159374Q499.39062 37.784374 498.03125 37.784374Q495.84375 37.784374 494.5 36.39375Q493.17188 34.9875 493.17188 32.3625ZM494.96875 32.3625Q494.96875 34.3625 495.82812 35.346874Q496.70312 36.33125 498.03125 36.33125Q499.34375 36.33125 500.20312 35.346874Q501.07812 34.346874 501.07812 32.3Q501.07812 30.378124 500.20312 29.39375Q499.32812 28.39375 498.03125 28.39375Q496.70312 28.39375 495.82812 29.39375Q494.96875 30.378124 494.96875 32.3625ZM504.8125 37.55L504.8125 27.175L506.40625 27.175L506.40625 28.659374Q507.54688 26.940624 509.70312 26.940624Q510.64062 26.940624 511.42188 27.284374Q512.21875 27.6125 512.6094 28.159374Q513.0 28.70625 513.15625 29.45625Q513.25 29.95625 513.25 31.175L513.25 37.55L511.48438 37.55L511.48438 31.2375Q511.48438 30.159374 511.28125 29.628124Q511.07812 29.096874 510.54688 28.784374Q510.03125 28.471874 509.32812 28.471874Q508.20312 28.471874 507.39062 29.190624Q506.57812 29.89375 506.57812 31.878124L506.57812 37.55L504.8125 37.55Z" fill-rule="nonzero"/></svg>